<ttFont>
    <TTGlyph name="A" xMin="-2" yMin="-8" xMax="841" yMax="672">
      <contour>
        <pt x="364" y="-5" on="1"/>
        <pt x="56" y="-5" on="1"/>
        <pt x="49" y="-5" on="0"/>
        <pt x="37" y="9" on="0"/>
        <pt x="37" y="18" on="1"/>
        <pt x="37" y="31" on="0"/>
        <pt x="50" y="41" on="1"/>
        <pt x="107" y="45" on="1"/>
        <pt x="139" y="47" on="0"/>
        <pt x="142" y="52" on="1"/>
        <pt x="245" y="326" on="1"/>
        <pt x="246" y="333" on="1"/>
        <pt x="246" y="353" on="0"/>
        <pt x="195" y="379" on="0"/>
        <pt x="144" y="379" on="1"/>
        <pt x="123" y="379" on="0"/>
        <pt x="85" y="366" on="0"/>
        <pt x="55" y="340" on="0"/>
        <pt x="38" y="304" on="0"/>
        <pt x="38" y="281" on="1"/>
        <pt x="38" y="252" on="0"/>
        <pt x="66" y="252" on="1"/>
        <pt x="86" y="252" on="0"/>
        <pt x="97" y="270" on="0"/>
        <pt x="97" y="285" on="1"/>
        <pt x="97" y="309" on="1"/>
        <pt x="98" y="322" on="0"/>
        <pt x="114" y="322" on="1"/>
        <pt x="131" y="322" on="0"/>
        <pt x="148" y="291" on="0"/>
        <pt x="148" y="277" on="1"/>
        <pt x="148" y="262" on="0"/>
        <pt x="133" y="236" on="0"/>
        <pt x="112" y="217" on="0"/>
        <pt x="89" y="206" on="0"/>
        <pt x="80" y="206" on="1"/>
        <pt x="41" y="206" on="0"/>
        <pt x="-2" y="245" on="0"/>
        <pt x="-2" y="278" on="1"/>
        <pt x="-2" y="312" on="0"/>
        <pt x="20" y="367" on="0"/>
        <pt x="56" y="404" on="0"/>
        <pt x="104" y="424" on="0"/>
        <pt x="130" y="424" on="1"/>
        <pt x="168" y="424" on="0"/>
        <pt x="228" y="411" on="0"/>
        <pt x="264" y="387" on="1"/>
        <pt x="273" y="395" on="1"/>
        <pt x="355" y="609" on="1"/>
        <pt x="348" y="618" on="1"/>
        <pt x="208" y="618" on="1"/>
        <pt x="204" y="628" on="1"/>
        <pt x="204" y="638" on="0"/>
        <pt x="214" y="662" on="0"/>
        <pt x="222" y="663" on="1"/>
        <pt x="657" y="672" on="1"/>
        <pt x="665" y="672" on="0"/>
        <pt x="673" y="656" on="0"/>
        <pt x="673" y="642" on="1"/>
        <pt x="673" y="634" on="0"/>
        <pt x="668" y="623" on="0"/>
        <pt x="663" y="623" on="1"/>
        <pt x="572" y="623" on="1"/>
        <pt x="645" y="406" on="1"/>
        <pt x="647" y="395" on="0"/>
        <pt x="653" y="387" on="0"/>
        <pt x="673" y="387" on="1"/>
        <pt x="693" y="387" on="0"/>
        <pt x="754" y="406" on="0"/>
        <pt x="788" y="406" on="1"/>
        <pt x="805" y="406" on="0"/>
        <pt x="805" y="387" on="1"/>
        <pt x="805" y="374" on="0"/>
        <pt x="787" y="363" on="0"/>
        <pt x="776" y="361" on="1"/>
        <pt x="685" y="349" on="1"/>
        <pt x="673" y="349" on="0"/>
        <pt x="673" y="338" on="1"/>
        <pt x="775" y="43" on="1"/>
        <pt x="829" y="29" on="1"/>
        <pt x="841" y="26" on="0"/>
        <pt x="841" y="13" on="1"/>
        <pt x="841" y="2" on="0"/>
        <pt x="835" y="-4" on="1"/>
        <pt x="831" y="-3" on="0"/>
        <pt x="823" y="-3" on="1"/>
        <pt x="622" y="-8" on="1"/>
        <pt x="611" y="-8" on="0"/>
        <pt x="605" y="-1" on="0"/>
        <pt x="605" y="10" on="1"/>
        <pt x="605" y="23" on="0"/>
        <pt x="618" y="34" on="0"/>
        <pt x="641" y="42" on="0"/>
        <pt x="661" y="44" on="0"/>
        <pt x="666" y="44" on="1"/>
        <pt x="682" y="44" on="0"/>
        <pt x="712" y="41" on="0"/>
        <pt x="721" y="41" on="1"/>
        <pt x="721" y="53" on="1"/>
        <pt x="633" y="326" on="1"/>
        <pt x="622" y="326" on="1"/>
        <pt x="618" y="326" on="0"/>
        <pt x="578" y="290" on="1"/>
        <pt x="529" y="246" on="1"/>
        <pt x="524" y="241" on="0"/>
        <pt x="518" y="231" on="0"/>
        <pt x="513" y="223" on="0"/>
        <pt x="505" y="218" on="0"/>
        <pt x="497" y="218" on="1"/>
        <pt x="483" y="218" on="0"/>
        <pt x="464" y="236" on="0"/>
        <pt x="449" y="258" on="0"/>
        <pt x="435" y="276" on="0"/>
        <pt x="425" y="276" on="1"/>
        <pt x="418" y="276" on="0"/>
        <pt x="418" y="275" on="0"/>
        <pt x="417" y="275" on="1"/>
        <pt x="337" y="57" on="1"/>
        <pt x="335" y="49" on="1"/>
        <pt x="335" y="40" on="0"/>
        <pt x="340" y="38" on="1"/>
        <pt x="353" y="34" on="1"/>
        <pt x="361" y="30" on="0"/>
        <pt x="371" y="19" on="0"/>
        <pt x="371" y="8" on="1"/>
        <pt x="371" y="-5" on="0"/>
      </contour>
      <contour>
        <pt x="439" y="338" on="1"/>
        <pt x="438" y="332" on="1"/>
        <pt x="438" y="324" on="0"/>
        <pt x="443" y="320" on="0"/>
        <pt x="450" y="316" on="1"/>
        <pt x="482" y="293" on="1"/>
        <pt x="486" y="290" on="0"/>
        <pt x="496" y="284" on="0"/>
        <pt x="502" y="280" on="1"/>
        <pt x="605" y="365" on="1"/>
        <pt x="618" y="371" on="1"/>
        <pt x="540" y="594" on="1"/>
      </contour>
    </TTGlyph>
    <TTGlyph name="AE" xMin="-14" yMin="-3" xMax="885" yMax="668">
      <contour>
        <pt x="430" y="-3" on="1"/>
        <pt x="416" y="-3" on="0"/>
        <pt x="416" y="21" on="1"/>
        <pt x="417" y="29" on="1"/>
        <pt x="430" y="91" on="1"/>
        <pt x="430" y="148" on="1"/>
        <pt x="430" y="268" on="1"/>
        <pt x="430" y="289" on="1"/>
        <pt x="413" y="277" on="0"/>
        <pt x="381" y="258" on="0"/>
        <pt x="361" y="258" on="1"/>
        <pt x="350" y="259" on="1"/>
        <pt x="283" y="337" on="1"/>
        <pt x="277" y="338" on="1"/>
        <pt x="269" y="338" on="0"/>
        <pt x="255" y="326" on="0"/>
        <pt x="240" y="301" on="0"/>
        <pt x="191" y="221" on="0"/>
        <pt x="160" y="165" on="1"/>
        <pt x="94" y="47" on="1"/>
        <pt x="137" y="31" on="0"/>
        <pt x="137" y="0" on="1"/>
        <pt x="0" y="0" on="1"/>
        <pt x="-14" y="0" on="0"/>
        <pt x="-14" y="23" on="1"/>
        <pt x="-13" y="30" on="1"/>
        <pt x="1" y="35" on="0"/>
        <pt x="26" y="60" on="0"/>
        <pt x="59" y="100" on="0"/>
        <pt x="97" y="158" on="0"/>
        <pt x="123" y="197" on="1"/>
        <pt x="188" y="290" on="1"/>
        <pt x="229" y="349" on="0"/>
        <pt x="229" y="353" on="1"/>
        <pt x="229" y="368" on="1"/>
        <pt x="229" y="371" on="0"/>
        <pt x="212" y="376" on="0"/>
        <pt x="191" y="380" on="0"/>
        <pt x="169" y="383" on="0"/>
        <pt x="165" y="383" on="1"/>
        <pt x="110" y="383" on="1"/>
        <pt x="104" y="383" on="0"/>
        <pt x="97" y="398" on="1"/>
        <pt x="104" y="413" on="0"/>
        <pt x="146" y="431" on="0"/>
        <pt x="182" y="430" on="1"/>
        <pt x="216" y="429" on="1"/>
        <pt x="270" y="414" on="1"/>
        <pt x="281" y="425" on="0"/>
        <pt x="286" y="432" on="1"/>
        <pt x="344" y="526" on="1"/>
        <pt x="403" y="622" on="1"/>
        <pt x="323" y="622" on="1"/>
        <pt x="323" y="668" on="1"/>
        <pt x="335" y="668" on="0"/>
        <pt x="384" y="667" on="0"/>
        <pt x="443" y="665" on="0"/>
        <pt x="505" y="664" on="0"/>
        <pt x="556" y="662" on="0"/>
        <pt x="589" y="661" on="0"/>
        <pt x="590" y="661" on="1"/>
        <pt x="670" y="645" on="1"/>
        <pt x="703" y="645" on="1"/>
        <pt x="743" y="645" on="0"/>
        <pt x="823" y="661" on="0"/>
        <pt x="863" y="661" on="1"/>
        <pt x="885" y="661" on="0"/>
        <pt x="885" y="622" on="1"/>
        <pt x="883" y="600" on="1"/>
        <pt x="870" y="569" on="0"/>
        <pt x="846" y="520" on="0"/>
        <pt x="829" y="520" on="1"/>
        <pt x="818" y="520" on="0"/>
        <pt x="814" y="523" on="0"/>
        <pt x="810" y="530" on="1"/>
        <pt x="795" y="560" on="1"/>
        <pt x="790" y="569" on="1"/>
        <pt x="770" y="593" on="0"/>
        <pt x="764" y="600" on="0"/>
        <pt x="763" y="600" on="1"/>
        <pt x="603" y="600" on="1"/>
        <pt x="603" y="354" on="1"/>
        <pt x="616" y="354" on="0"/>
        <pt x="643" y="366" on="0"/>
        <pt x="669" y="379" on="0"/>
        <pt x="691" y="387" on="0"/>
        <pt x="700" y="387" on="1"/>
        <pt x="699" y="376" on="0"/>
        <pt x="699" y="367" on="0"/>
        <pt x="699" y="358" on="1"/>
        <pt x="697" y="336" on="1"/>
        <pt x="690" y="312" on="1"/>
        <pt x="688" y="303" on="0"/>
        <pt x="683" y="289" on="1"/>
        <pt x="677" y="289" on="1"/>
        <pt x="664" y="289" on="0"/>
        <pt x="643" y="306" on="0"/>
        <pt x="628" y="306" on="1"/>
        <pt x="603" y="306" on="0"/>
        <pt x="603" y="277" on="1"/>
        <pt x="603" y="259" on="1"/>
        <pt x="605" y="236" on="0"/>
        <pt x="608" y="216" on="1"/>
        <pt x="610" y="199" on="0"/>
        <pt x="613" y="166" on="0"/>
        <pt x="614" y="158" on="1"/>
        <pt x="616" y="140" on="0"/>
        <pt x="617" y="136" on="0"/>
        <pt x="617" y="132" on="1"/>
        <pt x="616" y="112" on="1"/>
        <pt x="619" y="91" on="0"/>
        <pt x="628" y="64" on="0"/>
        <pt x="648" y="48" on="0"/>
        <pt x="672" y="42" on="0"/>
        <pt x="682" y="42" on="1"/>
        <pt x="689" y="42" on="1"/>
        <pt x="699" y="43" on="0"/>
        <pt x="715" y="43" on="0"/>
        <pt x="721" y="43" on="1"/>
        <pt x="778" y="44" on="1"/>
        <pt x="790" y="44" on="1"/>
        <pt x="803" y="51" on="0"/>
        <pt x="808" y="68" on="1"/>
        <pt x="818" y="100" on="1"/>
        <pt x="823" y="116" on="0"/>
        <pt x="841" y="141" on="0"/>
        <pt x="861" y="141" on="1"/>
        <pt x="858" y="103" on="0"/>
        <pt x="857" y="72" on="0"/>
        <pt x="846" y="39" on="0"/>
        <pt x="837" y="12" on="0"/>
        <pt x="829" y="-3" on="1"/>
      </contour>
      <contour>
        <pt x="309" y="390" on="1"/>
        <pt x="309" y="383" on="0"/>
        <pt x="327" y="360" on="0"/>
        <pt x="353" y="332" on="0"/>
        <pt x="366" y="321" on="0"/>
        <pt x="374" y="321" on="1"/>
        <pt x="380" y="321" on="0"/>
        <pt x="395" y="328" on="0"/>
        <pt x="412" y="339" on="0"/>
        <pt x="427" y="350" on="0"/>
        <pt x="430" y="353" on="1"/>
        <pt x="443" y="510" on="1"/>
        <pt x="444" y="532" on="1"/>
        <pt x="445" y="572" on="1"/>
        <pt x="432" y="572" on="0"/>
        <pt x="425" y="565" on="0"/>
        <pt x="417" y="554" on="1"/>
        <pt x="371" y="492" on="1"/>
        <pt x="331" y="437" on="1"/>
        <pt x="322" y="420" on="1"/>
        <pt x="309" y="397" on="0"/>
      </contour>
    </TTGlyph>
    <TTGlyph name="Aacute" xMin="-2" yMin="-8" xMax="841" yMax="789">
      <component glyphName="A" x="0" y="0" flags="0x204"/>
      <component glyphName="acute" x="408" y="20" flags="0x4"/>
    </TTGlyph>
    <TTGlyph name="Acircumflex" xMin="-2" yMin="-8" xMax="841" yMax="808">
      <component glyphName="A" x="0" y="0" flags="0x204"/>
      <component glyphName="circumflex" x="247" y="20" flags="0x4"/>
    </TTGlyph>
    <TTGlyph name="Adieresis" xMin="-2" yMin="-8" xMax="841" yMax="818">
      <component glyphName="A" x="0" y="0" flags="0x204"/>
      <component glyphName="dieresis" x="205" y="20" flags="0x4"/>
    </TTGlyph>
    <TTGlyph name="Agrave" xMin="-2" yMin="-8" xMax="841" yMax="790">
      <component glyphName="A" x="0" y="0" flags="0x204"/>
      <component glyphName="grave" x="292" y="20" flags="0x4"/>
    </TTGlyph>
    <TTGlyph name="Aring" xMin="-2" yMin="-8" xMax="841" yMax="918">
      <component glyphName="A" x="0" y="0" flags="0x204"/>
      <component glyphName="ring" x="305" y="20" flags="0x4"/>
    </TTGlyph>
    <TTGlyph name="Atilde" xMin="-2" yMin="-8" xMax="841" yMax="847">
      <component glyphName="A" x="0" y="0" flags="0x204"/>
      <component glyphName="tilde" x="146" y="20" flags="0x4"/>
    </TTGlyph>
    <TTGlyph name="B" xMin="11" yMin="-55" xMax="689" yMax="681">
      <contour>
        <pt x="78" y="-54" on="1"/>
        <pt x="55" y="-54" on="0"/>
        <pt x="55" y="-25" on="1"/>
        <pt x="55" y="-1" on="0"/>
        <pt x="107" y="29" on="0"/>
        <pt x="174" y="40" on="1"/>
        <pt x="180" y="46" on="1"/>
        <pt x="180" y="295" on="1"/>
        <pt x="180" y="305" on="0"/>
        <pt x="166" y="311" on="0"/>
        <pt x="150" y="316" on="0"/>
        <pt x="136" y="325" on="0"/>
        <pt x="136" y="337" on="1"/>
        <pt x="136" y="367" on="0"/>
        <pt x="174" y="369" on="1"/>
        <pt x="174" y="417" on="0"/>
        <pt x="165" y="531" on="0"/>
        <pt x="155" y="600" on="1"/>
        <pt x="135" y="600" on="0"/>
        <pt x="102" y="563" on="0"/>
        <pt x="74" y="518" on="0"/>
        <pt x="50" y="481" on="0"/>
        <pt x="37" y="481" on="1"/>
        <pt x="26" y="481" on="0"/>
        <pt x="11" y="499" on="0"/>
        <pt x="11" y="505" on="1"/>
        <pt x="11" y="514" on="1"/>
        <pt x="12" y="520" on="1"/>
        <pt x="26" y="557" on="0"/>
        <pt x="80" y="617" on="0"/>
        <pt x="150" y="659" on="0"/>
        <pt x="231" y="681" on="0"/>
        <pt x="272" y="681" on="1"/>
        <pt x="350" y="681" on="0"/>
        <pt x="465" y="658" on="0"/>
        <pt x="543" y="620" on="0"/>
        <pt x="595" y="576" on="0"/>
        <pt x="623" y="532" on="0"/>
        <pt x="633" y="495" on="0"/>
        <pt x="633" y="485" on="1"/>
        <pt x="632" y="476" on="1"/>
        <pt x="635" y="473" on="0"/>
        <pt x="635" y="442" on="1"/>
        <pt x="635" y="411" on="0"/>
        <pt x="608" y="363" on="0"/>
        <pt x="577" y="337" on="1"/>
        <pt x="631" y="317" on="0"/>
        <pt x="689" y="243" on="0"/>
        <pt x="689" y="187" on="1"/>
        <pt x="689" y="138" on="0"/>
        <pt x="661" y="67" on="0"/>
        <pt x="616" y="18" on="0"/>
        <pt x="560" y="-13" on="0"/>
        <pt x="504" y="-29" on="0"/>
        <pt x="455" y="-35" on="0"/>
        <pt x="439" y="-35" on="1"/>
        <pt x="396" y="-36" on="0"/>
        <pt x="308" y="-21" on="0"/>
        <pt x="261" y="-21" on="1"/>
        <pt x="217" y="-21" on="1"/>
        <pt x="213" y="-29" on="0"/>
        <pt x="206" y="-35" on="0"/>
        <pt x="196" y="-35" on="1"/>
        <pt x="186" y="-35" on="0"/>
        <pt x="174" y="-21" on="0"/>
        <pt x="160" y="-21" on="1"/>
        <pt x="149" y="-21" on="0"/>
        <pt x="139" y="-26" on="1"/>
        <pt x="118" y="-38" on="1"/>
        <pt x="104" y="-46" on="0"/>
        <pt x="86" y="-55" on="0"/>
      </contour>
      <contour>
        <pt x="395" y="23" on="1"/>
        <pt x="396" y="18" on="0"/>
        <pt x="414" y="14" on="0"/>
        <pt x="428" y="14" on="1"/>
        <pt x="463" y="14" on="0"/>
        <pt x="539" y="34" on="0"/>
        <pt x="605" y="71" on="0"/>
        <pt x="645" y="128" on="0"/>
        <pt x="645" y="164" on="1"/>
        <pt x="645" y="204" on="0"/>
        <pt x="636" y="250" on="0"/>
        <pt x="612" y="279" on="0"/>
        <pt x="571" y="296" on="0"/>
        <pt x="539" y="307" on="1"/>
        <pt x="520" y="307" on="1"/>
        <pt x="416" y="292" on="1"/>
        <pt x="398" y="289" on="0"/>
        <pt x="385" y="287" on="0"/>
        <pt x="385" y="279" on="1"/>
        <pt x="385" y="275" on="1"/>
        <pt x="385" y="176" on="0"/>
        <pt x="397" y="28" on="1"/>
      </contour>
      <contour>
        <pt x="386" y="342" on="1"/>
        <pt x="428" y="344" on="1"/>
        <pt x="437" y="344" on="0"/>
        <pt x="459" y="346" on="0"/>
        <pt x="482" y="349" on="0"/>
        <pt x="502" y="352" on="0"/>
        <pt x="509" y="354" on="1"/>
        <pt x="520" y="356" on="1"/>
        <pt x="556" y="378" on="0"/>
        <pt x="585" y="440" on="0"/>
        <pt x="585" y="462" on="1"/>
        <pt x="585" y="494" on="0"/>
        <pt x="559" y="546" on="0"/>
        <pt x="513" y="587" on="0"/>
        <pt x="438" y="618" on="0"/>
        <pt x="391" y="619" on="1"/>
        <pt x="371" y="619" on="1"/>
        <pt x="371" y="584" on="0"/>
        <pt x="377" y="495" on="0"/>
        <pt x="383" y="413" on="0"/>
        <pt x="386" y="351" on="0"/>
      </contour>
    </TTGlyph>
    <TTGlyph name="C" xMin="18" yMin="-50" xMax="633" yMax="679">
      <contour>
        <pt x="328" y="6" on="1"/>
        <pt x="377" y="5" on="1"/>
        <pt x="419" y="4" on="0"/>
        <pt x="488" y="19" on="0"/>
        <pt x="539" y="45" on="0"/>
        <pt x="570" y="76" on="0"/>
        <pt x="574" y="92" on="1"/>
        <pt x="582" y="125" on="0"/>
        <pt x="600" y="145" on="0"/>
        <pt x="609" y="145" on="1"/>
        <pt x="619" y="145" on="0"/>
        <pt x="633" y="133" on="0"/>
        <pt x="633" y="119" on="1"/>
        <pt x="633" y="104" on="0"/>
        <pt x="617" y="64" on="0"/>
        <pt x="590" y="25" on="0"/>
        <pt x="554" y="-9" on="0"/>
        <pt x="535" y="-18" on="1"/>
        <pt x="466" y="-50" on="0"/>
        <pt x="375" y="-50" on="1"/>
        <pt x="238" y="-50" on="0"/>
        <pt x="87" y="122" on="0"/>
        <pt x="76" y="293" on="1"/>
        <pt x="26" y="293" on="1"/>
        <pt x="18" y="293" on="0"/>
        <pt x="18" y="306" on="1"/>
        <pt x="18" y="316" on="0"/>
        <pt x="27" y="328" on="0"/>
        <pt x="42" y="336" on="0"/>
        <pt x="58" y="340" on="0"/>
        <pt x="66" y="342" on="1"/>
        <pt x="69" y="382" on="0"/>
        <pt x="86" y="463" on="0"/>
        <pt x="110" y="531" on="0"/>
        <pt x="137" y="582" on="0"/>
        <pt x="150" y="593" on="1"/>
        <pt x="173" y="613" on="0"/>
        <pt x="235" y="645" on="0"/>
        <pt x="305" y="667" on="0"/>
        <pt x="377" y="679" on="0"/>
        <pt x="409" y="679" on="1"/>
        <pt x="522" y="653" on="1"/>
        <pt x="535" y="678" on="0"/>
        <pt x="570" y="678" on="1"/>
        <pt x="597" y="678" on="0"/>
        <pt x="597" y="631" on="1"/>
        <pt x="566" y="497" on="1"/>
        <pt x="549" y="491" on="1"/>
        <pt x="529" y="491" on="0"/>
        <pt x="522" y="504" on="1"/>
        <pt x="497" y="573" on="0"/>
        <pt x="432" y="629" on="0"/>
        <pt x="387" y="629" on="1"/>
        <pt x="325" y="629" on="0"/>
        <pt x="325" y="583" on="1"/>
        <pt x="326" y="573" on="1"/>
        <pt x="327" y="454" on="1"/>
        <pt x="327" y="343" on="0"/>
        <pt x="323" y="192" on="0"/>
        <pt x="319" y="95" on="0"/>
        <pt x="315" y="42" on="0"/>
        <pt x="315" y="28" on="1"/>
        <pt x="315" y="6" on="0"/>
      </contour>
    </TTGlyph>
    <TTGlyph name="Ccedilla" xMin="22" yMin="-258" xMax="637" yMax="679">
      <contour>
        <pt x="332" y="6" on="1"/>
        <pt x="338" y="6" on="1"/>
        <pt x="346" y="16" on="0"/>
        <pt x="357" y="16" on="1"/>
        <pt x="367" y="16" on="0"/>
        <pt x="369" y="5" on="1"/>
        <pt x="381" y="5" on="1"/>
        <pt x="423" y="4" on="0"/>
        <pt x="492" y="19" on="0"/>
        <pt x="543" y="45" on="0"/>
        <pt x="574" y="76" on="0"/>
        <pt x="578" y="92" on="1"/>
        <pt x="586" y="125" on="0"/>
        <pt x="604" y="145" on="0"/>
        <pt x="613" y="145" on="1"/>
        <pt x="623" y="145" on="0"/>
        <pt x="637" y="133" on="0"/>
        <pt x="637" y="119" on="1"/>
        <pt x="637" y="104" on="0"/>
        <pt x="621" y="64" on="0"/>
        <pt x="594" y="25" on="0"/>
        <pt x="558" y="-9" on="0"/>
        <pt x="539" y="-18" on="1"/>
        <pt x="470" y="-50" on="0"/>
        <pt x="379" y="-50" on="1"/>
        <pt x="367" y="-50" on="0"/>
        <pt x="356" y="-49" on="1"/>
        <pt x="355" y="-60" on="1"/>
        <pt x="357" y="-65" on="1"/>
        <pt x="420" y="-127" on="1"/>
        <pt x="426" y="-136" on="0"/>
        <pt x="426" y="-155" on="1"/>
        <pt x="426" y="-177" on="0"/>
        <pt x="411" y="-215" on="0"/>
        <pt x="389" y="-242" on="0"/>
        <pt x="361" y="-258" on="0"/>
        <pt x="348" y="-258" on="1"/>
        <pt x="318" y="-258" on="0"/>
        <pt x="277" y="-232" on="0"/>
        <pt x="277" y="-207" on="1"/>
        <pt x="277" y="-196" on="0"/>
        <pt x="283" y="-196" on="1"/>
        <pt x="291" y="-196" on="0"/>
        <pt x="304" y="-204" on="0"/>
        <pt x="317" y="-213" on="0"/>
        <pt x="329" y="-221" on="0"/>
        <pt x="336" y="-221" on="1"/>
        <pt x="349" y="-221" on="0"/>
        <pt x="369" y="-205" on="0"/>
        <pt x="382" y="-183" on="0"/>
        <pt x="388" y="-161" on="0"/>
        <pt x="388" y="-155" on="1"/>
        <pt x="388" y="-139" on="0"/>
        <pt x="369" y="-123" on="0"/>
        <pt x="358" y="-118" on="1"/>
        <pt x="335" y="-108" on="1"/>
        <pt x="324" y="-104" on="0"/>
        <pt x="320" y="-96" on="1"/>
        <pt x="320" y="-71" on="1"/>
        <pt x="320" y="-57" on="0"/>
        <pt x="321" y="-45" on="1"/>
        <pt x="225" y="-31" on="0"/>
        <pt x="166" y="36" on="1"/>
        <pt x="91" y="122" on="0"/>
        <pt x="80" y="293" on="1"/>
        <pt x="30" y="293" on="1"/>
        <pt x="22" y="293" on="0"/>
        <pt x="22" y="306" on="1"/>
        <pt x="22" y="316" on="0"/>
        <pt x="31" y="328" on="0"/>
        <pt x="46" y="336" on="0"/>
        <pt x="54" y="338" on="1"/>
        <pt x="70" y="342" on="1"/>
        <pt x="73" y="382" on="0"/>
        <pt x="90" y="463" on="0"/>
        <pt x="114" y="531" on="0"/>
        <pt x="141" y="582" on="0"/>
        <pt x="154" y="593" on="1"/>
        <pt x="177" y="613" on="0"/>
        <pt x="239" y="645" on="0"/>
        <pt x="309" y="667" on="0"/>
        <pt x="381" y="679" on="0"/>
        <pt x="413" y="679" on="1"/>
        <pt x="526" y="653" on="1"/>
        <pt x="539" y="678" on="0"/>
        <pt x="574" y="678" on="1"/>
        <pt x="601" y="678" on="0"/>
        <pt x="601" y="631" on="1"/>
        <pt x="570" y="497" on="1"/>
        <pt x="553" y="491" on="1"/>
        <pt x="533" y="491" on="0"/>
        <pt x="526" y="504" on="1"/>
        <pt x="501" y="573" on="0"/>
        <pt x="436" y="629" on="0"/>
        <pt x="391" y="629" on="1"/>
        <pt x="329" y="629" on="0"/>
        <pt x="329" y="583" on="1"/>
        <pt x="330" y="573" on="1"/>
        <pt x="331" y="454" on="1"/>
        <pt x="331" y="343" on="0"/>
        <pt x="327" y="192" on="0"/>
        <pt x="323" y="95" on="0"/>
        <pt x="319" y="42" on="0"/>
        <pt x="319" y="28" on="1"/>
        <pt x="319" y="6" on="0"/>
      </contour>
    </TTGlyph>
    <TTGlyph name="D" xMin="-3" yMin="-38" xMax="722" yMax="694">
      <contour>
        <pt x="356" y="627" on="1"/>
        <pt x="357" y="617" on="1"/>
        <pt x="357" y="552" on="0"/>
        <pt x="354" y="403" on="0"/>
        <pt x="351" y="264" on="0"/>
        <pt x="348" y="146" on="0"/>
        <pt x="348" y="112" on="1"/>
        <pt x="348" y="74" on="0"/>
        <pt x="349" y="36" on="0"/>
        <pt x="357" y="16" on="0"/>
        <pt x="361" y="12" on="1"/>
        <pt x="371" y="2" on="0"/>
        <pt x="404" y="2" on="1"/>
        <pt x="465" y="2" on="0"/>
        <pt x="564" y="47" on="0"/>
        <pt x="634" y="129" on="0"/>
        <pt x="673" y="242" on="0"/>
        <pt x="673" y="308" on="1"/>
        <pt x="673" y="363" on="0"/>
        <pt x="643" y="484" on="0"/>
        <pt x="577" y="585" on="0"/>
        <pt x="473" y="651" on="0"/>
        <pt x="400" y="651" on="1"/>
        <pt x="383" y="651" on="0"/>
        <pt x="356" y="643" on="0"/>
      </contour>
      <contour>
        <pt x="128" y="689" on="1"/>
        <pt x="168" y="674" on="0"/>
        <pt x="220" y="674" on="1"/>
        <pt x="247" y="674" on="0"/>
        <pt x="283" y="676" on="0"/>
        <pt x="310" y="679" on="0"/>
        <pt x="329" y="682" on="0"/>
        <pt x="338" y="684" on="1"/>
        <pt x="381" y="694" on="0"/>
        <pt x="410" y="694" on="1"/>
        <pt x="465" y="694" on="0"/>
        <pt x="578" y="642" on="0"/>
        <pt x="666" y="542" on="0"/>
        <pt x="722" y="399" on="0"/>
        <pt x="722" y="309" on="1"/>
        <pt x="722" y="224" on="0"/>
        <pt x="673" y="94" on="0"/>
        <pt x="582" y="7" on="0"/>
        <pt x="453" y="-38" on="0"/>
        <pt x="373" y="-38" on="1"/>
        <pt x="341" y="-38" on="0"/>
        <pt x="278" y="-32" on="0"/>
        <pt x="247" y="-28" on="1"/>
        <pt x="199" y="-22" on="0"/>
        <pt x="138" y="-19" on="0"/>
        <pt x="125" y="-17" on="1"/>
        <pt x="89" y="-17" on="1"/>
        <pt x="84" y="-17" on="0"/>
        <pt x="73" y="-17" on="0"/>
        <pt x="67" y="-18" on="1"/>
        <pt x="60" y="-11" on="0"/>
        <pt x="60" y="2" on="1"/>
        <pt x="60" y="16" on="0"/>
        <pt x="71" y="20" on="0"/>
        <pt x="94" y="20" on="1"/>
        <pt x="155" y="20" on="1"/>
        <pt x="162" y="20" on="0"/>
        <pt x="162" y="30" on="1"/>
        <pt x="163" y="55" on="0"/>
        <pt x="158" y="126" on="0"/>
        <pt x="156" y="172" on="1"/>
        <pt x="150" y="294" on="1"/>
        <pt x="138" y="303" on="0"/>
        <pt x="126" y="308" on="1"/>
        <pt x="99" y="321" on="1"/>
        <pt x="141" y="345" on="0"/>
        <pt x="153" y="373" on="1"/>
        <pt x="153" y="393" on="1"/>
        <pt x="148" y="449" on="1"/>
        <pt x="146" y="487" on="0"/>
        <pt x="141" y="540" on="0"/>
        <pt x="139" y="564" on="1"/>
        <pt x="134" y="634" on="1"/>
        <pt x="131" y="641" on="0"/>
        <pt x="116" y="641" on="1"/>
        <pt x="96" y="641" on="0"/>
        <pt x="63" y="622" on="0"/>
        <pt x="48" y="608" on="1"/>
        <pt x="29" y="590" on="1"/>
        <pt x="16" y="590" on="0"/>
        <pt x="-3" y="597" on="0"/>
        <pt x="-3" y="611" on="1"/>
        <pt x="-3" y="621" on="1"/>
        <pt x="25" y="656" on="0"/>
        <pt x="86" y="686" on="0"/>
      </contour>
    </TTGlyph>
    <TTGlyph name="E" xMin="27" yMin="-16" xMax="633" yMax="678">
      <contour>
        <pt x="528" y="-9" on="1"/>
        <pt x="471" y="-10" on="1"/>
        <pt x="436" y="-11" on="0"/>
        <pt x="297" y="-12" on="0"/>
        <pt x="191" y="-15" on="1"/>
        <pt x="122" y="-16" on="1"/>
        <pt x="107" y="-16" on="0"/>
        <pt x="78" y="-16" on="0"/>
        <pt x="54" y="-12" on="0"/>
        <pt x="39" y="-4" on="0"/>
        <pt x="39" y="4" on="1"/>
        <pt x="39" y="19" on="0"/>
        <pt x="53" y="24" on="1"/>
        <pt x="138" y="22" on="1"/>
        <pt x="138" y="94" on="0"/>
        <pt x="127" y="226" on="0"/>
        <pt x="127" y="298" on="1"/>
        <pt x="122" y="304" on="0"/>
        <pt x="108" y="311" on="0"/>
        <pt x="96" y="316" on="0"/>
        <pt x="87" y="323" on="0"/>
        <pt x="87" y="329" on="1"/>
        <pt x="87" y="343" on="0"/>
        <pt x="97" y="351" on="0"/>
        <pt x="110" y="351" on="0"/>
        <pt x="124" y="353" on="0"/>
        <pt x="127" y="361" on="1"/>
        <pt x="128" y="420" on="1"/>
        <pt x="129" y="518" on="1"/>
        <pt x="129" y="549" on="0"/>
        <pt x="123" y="603" on="1"/>
        <pt x="105" y="602" on="1"/>
        <pt x="34" y="602" on="1"/>
        <pt x="27" y="603" on="0"/>
        <pt x="27" y="611" on="1"/>
        <pt x="27" y="634" on="0"/>
        <pt x="40" y="653" on="0"/>
        <pt x="59" y="653" on="1"/>
        <pt x="179" y="654" on="1"/>
        <pt x="207" y="655" on="0"/>
        <pt x="359" y="645" on="0"/>
        <pt x="411" y="646" on="1"/>
        <pt x="447" y="645" on="0"/>
        <pt x="511" y="653" on="0"/>
        <pt x="539" y="664" on="1"/>
        <pt x="547" y="668" on="0"/>
        <pt x="558" y="678" on="0"/>
        <pt x="565" y="678" on="1"/>
        <pt x="572" y="678" on="0"/>
        <pt x="584" y="667" on="0"/>
        <pt x="584" y="659" on="1"/>
        <pt x="583" y="653" on="1"/>
        <pt x="557" y="610" on="1"/>
        <pt x="550" y="600" on="0"/>
        <pt x="539" y="600" on="1"/>
        <pt x="517" y="600" on="0"/>
        <pt x="484" y="603" on="0"/>
        <pt x="439" y="603" on="1"/>
        <pt x="414" y="603" on="0"/>
        <pt x="350" y="601" on="0"/>
        <pt x="312" y="599" on="1"/>
        <pt x="307" y="539" on="0"/>
        <pt x="301" y="422" on="0"/>
        <pt x="301" y="362" on="1"/>
        <pt x="346" y="362" on="0"/>
        <pt x="370" y="372" on="1"/>
        <pt x="405" y="386" on="1"/>
        <pt x="417" y="391" on="0"/>
        <pt x="427" y="391" on="1"/>
        <pt x="438" y="391" on="0"/>
        <pt x="450" y="377" on="0"/>
        <pt x="450" y="354" on="1"/>
        <pt x="450" y="333" on="0"/>
        <pt x="430" y="306" on="0"/>
        <pt x="398" y="306" on="1"/>
        <pt x="367" y="306" on="0"/>
        <pt x="363" y="325" on="1"/>
        <pt x="301" y="321" on="1"/>
        <pt x="300" y="308" on="1"/>
        <pt x="298" y="275" on="0"/>
        <pt x="295" y="234" on="0"/>
        <pt x="295" y="226" on="1"/>
        <pt x="295" y="198" on="1"/>
        <pt x="295" y="184" on="0"/>
        <pt x="296" y="134" on="0"/>
        <pt x="298" y="84" on="0"/>
        <pt x="300" y="47" on="0"/>
        <pt x="301" y="46" on="1"/>
        <pt x="307" y="34" on="1"/>
        <pt x="421" y="32" on="1"/>
        <pt x="547" y="32" on="0"/>
        <pt x="585" y="65" on="1"/>
        <pt x="592" y="71" on="0"/>
        <pt x="597" y="71" on="1"/>
        <pt x="633" y="71" on="0"/>
        <pt x="633" y="37" on="1"/>
        <pt x="631" y="23" on="1"/>
        <pt x="630" y="10" on="0"/>
        <pt x="627" y="10" on="1"/>
        <pt x="614" y="-3" on="1"/>
        <pt x="604" y="-4" on="1"/>
        <pt x="579" y="-6" on="0"/>
        <pt x="541" y="-9" on="0"/>
      </contour>
    </TTGlyph>
    <TTGlyph name="Eacute" xMin="27" yMin="-16" xMax="633" yMax="789">
      <component glyphName="E" x="0" y="0" flags="0x204"/>
      <component glyphName="acute" x="205" y="20" flags="0x4"/>
    </TTGlyph>
    <TTGlyph name="Ecircumflex" xMin="27" yMin="-16" xMax="633" yMax="808">
      <component glyphName="E" x="0" y="0" flags="0x204"/>
      <component glyphName="circumflex" x="97" y="20" flags="0x4"/>
    </TTGlyph>
    <TTGlyph name="Edieresis" xMin="27" yMin="-16" xMax="633" yMax="818">
      <component glyphName="E" x="0" y="0" flags="0x204"/>
      <component glyphName="dieresis" x="28" y="20" flags="0x4"/>
    </TTGlyph>
    <TTGlyph name="Egrave" xMin="27" yMin="-16" xMax="633" yMax="790">
      <component glyphName="E" x="0" y="0" flags="0x204"/>
      <component glyphName="grave" x="187" y="20" flags="0x4"/>
    </TTGlyph>
    <TTGlyph name="Eth" xMin="22" yMin="-1" xMax="731" yMax="702">
      <contour>
        <pt x="176" y="1" on="1"/>
        <pt x="43" y="5" on="1"/>
        <pt x="29" y="21" on="1"/>
        <pt x="48" y="72" on="0"/>
        <pt x="131" y="72" on="1"/>
        <pt x="146" y="241" on="1"/>
        <pt x="144" y="293" on="1"/>
        <pt x="43" y="293" on="1"/>
        <pt x="36" y="293" on="0"/>
        <pt x="28" y="312" on="0"/>
        <pt x="24" y="337" on="0"/>
        <pt x="22" y="362" on="0"/>
        <pt x="22" y="369" on="1"/>
        <pt x="146" y="369" on="1"/>
        <pt x="146" y="614" on="1"/>
        <pt x="143" y="614" on="0"/>
        <pt x="124" y="629" on="0"/>
        <pt x="104" y="647" on="0"/>
        <pt x="87" y="664" on="1"/>
        <pt x="84" y="669" on="0"/>
        <pt x="77" y="702" on="1"/>
        <pt x="102" y="699" on="1"/>
        <pt x="131" y="681" on="1"/>
        <pt x="149" y="669" on="0"/>
        <pt x="160" y="664" on="1"/>
        <pt x="173" y="666" on="1"/>
        <pt x="204" y="647" on="1"/>
        <pt x="510" y="647" on="1"/>
        <pt x="556" y="647" on="0"/>
        <pt x="627" y="597" on="1"/>
        <pt x="678" y="556" on="1"/>
        <pt x="729" y="512" on="1"/>
        <pt x="730" y="428" on="1"/>
        <pt x="731" y="389" on="1"/>
        <pt x="731" y="378" on="1"/>
        <pt x="731" y="333" on="0"/>
        <pt x="714" y="293" on="1"/>
        <pt x="712" y="287" on="0"/>
        <pt x="698" y="277" on="0"/>
        <pt x="698" y="271" on="1"/>
        <pt x="701" y="261" on="1"/>
        <pt x="699" y="254" on="1"/>
        <pt x="686" y="222" on="1"/>
        <pt x="671" y="191" on="1"/>
        <pt x="660" y="174" on="0"/>
        <pt x="640" y="145" on="0"/>
        <pt x="624" y="122" on="0"/>
        <pt x="612" y="106" on="0"/>
        <pt x="607" y="101" on="0"/>
        <pt x="550" y="67" on="0"/>
        <pt x="496" y="38" on="1"/>
        <pt x="458" y="18" on="0"/>
        <pt x="354" y="0" on="0"/>
        <pt x="289" y="-1" on="1"/>
        <pt x="208" y="1" on="1"/>
      </contour>
      <contour>
        <pt x="350" y="327" on="1"/>
        <pt x="335" y="90" on="1"/>
        <pt x="350" y="54" on="1"/>
        <pt x="401" y="68" on="1"/>
        <pt x="438" y="78" on="0"/>
        <pt x="485" y="90" on="0"/>
        <pt x="518" y="104" on="0"/>
        <pt x="545" y="119" on="0"/>
        <pt x="563" y="134" on="1"/>
        <pt x="609" y="174" on="0"/>
        <pt x="670" y="292" on="0"/>
        <pt x="689" y="378" on="1"/>
        <pt x="700" y="429" on="1"/>
        <pt x="698" y="438" on="1"/>
        <pt x="694" y="454" on="1"/>
        <pt x="686" y="486" on="0"/>
        <pt x="659" y="515" on="1"/>
        <pt x="624" y="550" on="0"/>
        <pt x="566" y="582" on="0"/>
        <pt x="495" y="598" on="0"/>
        <pt x="467" y="598" on="1"/>
        <pt x="405" y="597" on="1"/>
        <pt x="393" y="597" on="1"/>
        <pt x="378" y="583" on="0"/>
        <pt x="364" y="544" on="0"/>
        <pt x="359" y="492" on="0"/>
        <pt x="359" y="426" on="0"/>
        <pt x="358" y="385" on="1"/>
        <pt x="447" y="385" on="1"/>
        <pt x="451" y="370" on="1"/>
        <pt x="452" y="365" on="0"/>
        <pt x="453" y="358" on="0"/>
        <pt x="453" y="354" on="1"/>
        <pt x="453" y="336" on="0"/>
        <pt x="432" y="325" on="0"/>
        <pt x="393" y="325" on="1"/>
        <pt x="376" y="325" on="0"/>
        <pt x="355" y="326" on="0"/>
      </contour>
    </TTGlyph>
    <TTGlyph name="Euro" xMin="29" yMin="4" xMax="678" yMax="677">
      <contour>
        <pt x="400" y="5" on="1"/>
        <pt x="357" y="6" on="1"/>
        <pt x="276" y="54" on="1"/>
        <pt x="216" y="86" on="0"/>
        <pt x="149" y="180" on="0"/>
        <pt x="146" y="226" on="1"/>
        <pt x="41" y="226" on="1"/>
        <pt x="36" y="226" on="0"/>
        <pt x="29" y="242" on="1"/>
        <pt x="29" y="267" on="0"/>
        <pt x="47" y="267" on="1"/>
        <pt x="140" y="267" on="1"/>
        <pt x="140" y="341" on="1"/>
        <pt x="54" y="341" on="1"/>
        <pt x="43" y="341" on="0"/>
        <pt x="39" y="350" on="0"/>
        <pt x="39" y="356" on="1"/>
        <pt x="39" y="385" on="0"/>
        <pt x="117" y="385" on="1"/>
        <pt x="153" y="385" on="1"/>
        <pt x="168" y="453" on="0"/>
        <pt x="231" y="562" on="0"/>
        <pt x="321" y="637" on="0"/>
        <pt x="433" y="677" on="0"/>
        <pt x="495" y="677" on="1"/>
        <pt x="531" y="677" on="0"/>
        <pt x="597" y="665" on="0"/>
        <pt x="648" y="642" on="0"/>
        <pt x="678" y="607" on="0"/>
        <pt x="678" y="585" on="1"/>
        <pt x="678" y="563" on="0"/>
        <pt x="649" y="563" on="1"/>
        <pt x="633" y="586" on="0"/>
        <pt x="597" y="613" on="0"/>
        <pt x="584" y="618" on="1"/>
        <pt x="571" y="623" on="0"/>
        <pt x="531" y="629" on="0"/>
        <pt x="503" y="628" on="1"/>
        <pt x="450" y="626" on="1"/>
        <pt x="428" y="611" on="0"/>
        <pt x="390" y="562" on="0"/>
        <pt x="362" y="504" on="0"/>
        <pt x="346" y="441" on="0"/>
        <pt x="346" y="411" on="1"/>
        <pt x="460" y="415" on="1"/>
        <pt x="474" y="416" on="0"/>
        <pt x="482" y="405" on="0"/>
        <pt x="482" y="396" on="1"/>
        <pt x="482" y="380" on="0"/>
        <pt x="435" y="370" on="0"/>
        <pt x="379" y="367" on="0"/>
        <pt x="332" y="363" on="0"/>
        <pt x="332" y="354" on="1"/>
        <pt x="332" y="292" on="1"/>
        <pt x="341" y="292" on="1"/>
        <pt x="436" y="304" on="0"/>
        <pt x="448" y="304" on="1"/>
        <pt x="456" y="304" on="0"/>
        <pt x="468" y="299" on="0"/>
        <pt x="470" y="289" on="1"/>
        <pt x="470" y="277" on="0"/>
        <pt x="450" y="262" on="0"/>
        <pt x="437" y="261" on="1"/>
        <pt x="320" y="242" on="1"/>
        <pt x="313" y="229" on="1"/>
        <pt x="363" y="56" on="1"/>
        <pt x="368" y="42" on="0"/>
        <pt x="407" y="42" on="1"/>
        <pt x="446" y="42" on="0"/>
        <pt x="517" y="55" on="0"/>
        <pt x="576" y="84" on="0"/>
        <pt x="622" y="136" on="0"/>
        <pt x="637" y="173" on="1"/>
        <pt x="648" y="174" on="1"/>
        <pt x="659" y="174" on="0"/>
        <pt x="668" y="169" on="0"/>
        <pt x="668" y="158" on="1"/>
        <pt x="668" y="146" on="0"/>
        <pt x="643" y="107" on="0"/>
        <pt x="607" y="67" on="0"/>
        <pt x="565" y="33" on="0"/>
        <pt x="549" y="26" on="1"/>
        <pt x="525" y="15" on="0"/>
        <pt x="458" y="4" on="0"/>
        <pt x="410" y="5" on="1"/>
      </contour>
    </TTGlyph>
    <TTGlyph name="F" xMin="19" yMin="-25" xMax="667" yMax="689">
      <contour>
        <pt x="398" y="-18" on="1"/>
        <pt x="308" y="-21" on="0"/>
        <pt x="193" y="-23" on="0"/>
        <pt x="127" y="-25" on="0"/>
        <pt x="101" y="-25" on="0"/>
        <pt x="101" y="-25" on="1"/>
        <pt x="76" y="-25" on="0"/>
        <pt x="50" y="-19" on="0"/>
        <pt x="50" y="-3" on="1"/>
        <pt x="50" y="31" on="0"/>
        <pt x="112" y="31" on="1"/>
        <pt x="131" y="31" on="0"/>
        <pt x="138" y="52" on="0"/>
        <pt x="138" y="71" on="1"/>
        <pt x="131" y="174" on="1"/>
        <pt x="137" y="286" on="1"/>
        <pt x="124" y="286" on="1"/>
        <pt x="102" y="286" on="0"/>
        <pt x="81" y="301" on="0"/>
        <pt x="81" y="311" on="1"/>
        <pt x="81" y="336" on="0"/>
        <pt x="137" y="336" on="1"/>
        <pt x="145" y="370" on="0"/>
        <pt x="145" y="419" on="1"/>
        <pt x="144" y="562" on="1"/>
        <pt x="144" y="589" on="1"/>
        <pt x="137" y="614" on="1"/>
        <pt x="32" y="627" on="1"/>
        <pt x="22" y="629" on="0"/>
        <pt x="19" y="645" on="0"/>
        <pt x="19" y="652" on="1"/>
        <pt x="19" y="660" on="0"/>
        <pt x="22" y="673" on="0"/>
        <pt x="32" y="677" on="1"/>
        <pt x="70" y="677" on="0"/>
        <pt x="158" y="667" on="0"/>
        <pt x="235" y="655" on="0"/>
        <pt x="292" y="651" on="0"/>
        <pt x="298" y="651" on="1"/>
        <pt x="367" y="652" on="1"/>
        <pt x="565" y="689" on="1"/>
        <pt x="658" y="689" on="1"/>
        <pt x="664" y="677" on="1"/>
        <pt x="667" y="586" on="1"/>
        <pt x="667" y="561" on="0"/>
        <pt x="653" y="520" on="0"/>
        <pt x="629" y="520" on="1"/>
        <pt x="620" y="520" on="1"/>
        <pt x="616" y="520" on="0"/>
        <pt x="615" y="521" on="1"/>
        <pt x="521" y="621" on="1"/>
        <pt x="510" y="621" on="1"/>
        <pt x="474" y="621" on="0"/>
        <pt x="411" y="615" on="0"/>
        <pt x="364" y="607" on="0"/>
        <pt x="337" y="598" on="0"/>
        <pt x="336" y="596" on="1"/>
        <pt x="330" y="508" on="1"/>
        <pt x="329" y="499" on="0"/>
        <pt x="329" y="480" on="0"/>
        <pt x="329" y="470" on="1"/>
        <pt x="329" y="361" on="1"/>
        <pt x="342" y="348" on="0"/>
        <pt x="365" y="348" on="1"/>
        <pt x="367" y="348" on="1"/>
        <pt x="390" y="348" on="0"/>
        <pt x="420" y="357" on="0"/>
        <pt x="438" y="362" on="0"/>
        <pt x="445" y="372" on="0"/>
        <pt x="446" y="375" on="1"/>
        <pt x="452" y="396" on="1"/>
        <pt x="455" y="406" on="0"/>
        <pt x="460" y="423" on="0"/>
        <pt x="472" y="423" on="1"/>
        <pt x="497" y="423" on="0"/>
        <pt x="497" y="379" on="1"/>
        <pt x="497" y="353" on="0"/>
        <pt x="490" y="305" on="0"/>
        <pt x="478" y="266" on="0"/>
        <pt x="463" y="243" on="0"/>
        <pt x="456" y="243" on="1"/>
        <pt x="444" y="247" on="1"/>
        <pt x="435" y="252" on="1"/>
        <pt x="435" y="311" on="1"/>
        <pt x="336" y="311" on="1"/>
        <pt x="329" y="298" on="1"/>
        <pt x="329" y="235" on="1"/>
        <pt x="329" y="171" on="0"/>
        <pt x="332" y="69" on="0"/>
        <pt x="336" y="31" on="1"/>
        <pt x="337" y="25" on="0"/>
        <pt x="347" y="25" on="1"/>
        <pt x="420" y="31" on="1"/>
        <pt x="448" y="31" on="0"/>
        <pt x="448" y="9" on="1"/>
        <pt x="448" y="-18" on="0"/>
      </contour>
    </TTGlyph>
    <TTGlyph name="G" xMin="1" yMin="-63" xMax="793" yMax="692">
      <contour>
        <pt x="562" y="285" on="1"/>
        <pt x="649" y="281" on="1"/>
        <pt x="681" y="281" on="0"/>
        <pt x="746" y="304" on="0"/>
        <pt x="766" y="328" on="1"/>
        <pt x="776" y="328" on="0"/>
        <pt x="793" y="317" on="0"/>
        <pt x="793" y="300" on="1"/>
        <pt x="793" y="288" on="0"/>
        <pt x="780" y="272" on="0"/>
        <pt x="761" y="262" on="0"/>
        <pt x="739" y="256" on="0"/>
        <pt x="729" y="253" on="1"/>
        <pt x="714" y="247" on="0"/>
        <pt x="703" y="218" on="0"/>
        <pt x="700" y="183" on="0"/>
        <pt x="701" y="148" on="0"/>
        <pt x="697" y="136" on="1"/>
        <pt x="654" y="-63" on="0"/>
        <pt x="404" y="-63" on="1"/>
        <pt x="338" y="-63" on="0"/>
        <pt x="226" y="-13" on="0"/>
        <pt x="138" y="82" on="0"/>
        <pt x="77" y="217" on="0"/>
        <pt x="62" y="302" on="1"/>
        <pt x="8" y="302" on="1"/>
        <pt x="1" y="302" on="0"/>
        <pt x="1" y="319" on="1"/>
        <pt x="2" y="329" on="1"/>
        <pt x="28" y="339" on="1"/>
        <pt x="55" y="348" on="1"/>
        <pt x="66" y="387" on="0"/>
        <pt x="77" y="434" on="0"/>
        <pt x="87" y="478" on="0"/>
        <pt x="90" y="487" on="1"/>
        <pt x="107" y="533" on="0"/>
        <pt x="165" y="609" on="0"/>
        <pt x="238" y="663" on="0"/>
        <pt x="326" y="692" on="0"/>
        <pt x="373" y="692" on="1"/>
        <pt x="399" y="692" on="0"/>
        <pt x="448" y="681" on="1"/>
        <pt x="518" y="666" on="1"/>
        <pt x="531" y="663" on="0"/>
        <pt x="553" y="661" on="0"/>
        <pt x="563" y="661" on="1"/>
        <pt x="586" y="661" on="0"/>
        <pt x="615" y="670" on="0"/>
        <pt x="620" y="676" on="1"/>
        <pt x="635" y="687" on="1"/>
        <pt x="642" y="692" on="0"/>
        <pt x="649" y="692" on="1"/>
        <pt x="654" y="692" on="0"/>
        <pt x="660" y="688" on="1"/>
        <pt x="677" y="671" on="1"/>
        <pt x="677" y="527" on="1"/>
        <pt x="677" y="516" on="0"/>
        <pt x="657" y="506" on="0"/>
        <pt x="649" y="506" on="1"/>
        <pt x="631" y="514" on="0"/>
        <pt x="598" y="535" on="0"/>
        <pt x="582" y="546" on="1"/>
        <pt x="518" y="591" on="1"/>
        <pt x="486" y="614" on="0"/>
        <pt x="416" y="643" on="0"/>
        <pt x="377" y="644" on="1"/>
        <pt x="363" y="643" on="1"/>
        <pt x="353" y="558" on="0"/>
        <pt x="343" y="430" on="0"/>
        <pt x="343" y="387" on="1"/>
        <pt x="343" y="235" on="0"/>
        <pt x="363" y="129" on="1"/>
        <pt x="374" y="58" on="1"/>
        <pt x="383" y="-6" on="0"/>
        <pt x="384" y="-6" on="1"/>
        <pt x="398" y="-22" on="0"/>
        <pt x="415" y="-21" on="1"/>
        <pt x="453" y="-14" on="0"/>
        <pt x="489" y="-4" on="0"/>
        <pt x="524" y="8" on="0"/>
        <pt x="534" y="13" on="1"/>
        <pt x="566" y="32" on="0"/>
        <pt x="596" y="92" on="0"/>
        <pt x="595" y="116" on="1"/>
        <pt x="593" y="150" on="0"/>
        <pt x="555" y="202" on="0"/>
        <pt x="534" y="232" on="1"/>
        <pt x="529" y="232" on="0"/>
        <pt x="509" y="224" on="0"/>
        <pt x="486" y="211" on="0"/>
        <pt x="465" y="204" on="1"/>
        <pt x="457" y="204" on="0"/>
        <pt x="437" y="224" on="0"/>
        <pt x="437" y="234" on="1"/>
        <pt x="437" y="245" on="0"/>
        <pt x="456" y="264" on="0"/>
        <pt x="489" y="277" on="0"/>
        <pt x="531" y="285" on="0"/>
        <pt x="555" y="285" on="1"/>
      </contour>
    </TTGlyph>
    <TTGlyph name="H" xMin="29" yMin="-32" xMax="885" yMax="659">
      <contour>
        <pt x="162" y="-7" on="1"/>
        <pt x="95" y="-8" on="1"/>
        <pt x="84" y="-8" on="0"/>
        <pt x="63" y="-8" on="0"/>
        <pt x="43" y="-5" on="0"/>
        <pt x="34" y="4" on="0"/>
        <pt x="34" y="12" on="1"/>
        <pt x="36" y="26" on="1"/>
        <pt x="39" y="40" on="1"/>
        <pt x="167" y="40" on="1"/>
        <pt x="173" y="181" on="1"/>
        <pt x="173" y="286" on="0"/>
        <pt x="149" y="286" on="1"/>
        <pt x="130" y="286" on="0"/>
        <pt x="97" y="266" on="0"/>
        <pt x="83" y="266" on="1"/>
        <pt x="69" y="266" on="0"/>
        <pt x="59" y="278" on="0"/>
        <pt x="59" y="291" on="1"/>
        <pt x="59" y="296" on="0"/>
        <pt x="61" y="302" on="0"/>
        <pt x="66" y="304" on="1"/>
        <pt x="153" y="341" on="1"/>
        <pt x="153" y="378" on="1"/>
        <pt x="116" y="577" on="1"/>
        <pt x="41" y="577" on="1"/>
        <pt x="29" y="605" on="0"/>
        <pt x="29" y="610" on="1"/>
        <pt x="29" y="621" on="0"/>
        <pt x="50" y="627" on="0"/>
        <pt x="65" y="627" on="1"/>
        <pt x="75" y="627" on="1"/>
        <pt x="103" y="626" on="1"/>
        <pt x="107" y="637" on="0"/>
        <pt x="117" y="646" on="0"/>
        <pt x="128" y="646" on="1"/>
        <pt x="139" y="646" on="0"/>
        <pt x="158" y="637" on="0"/>
        <pt x="189" y="637" on="1"/>
        <pt x="206" y="637" on="0"/>
        <pt x="256" y="644" on="0"/>
        <pt x="314" y="651" on="0"/>
        <pt x="376" y="658" on="0"/>
        <pt x="406" y="658" on="1"/>
        <pt x="439" y="658" on="0"/>
        <pt x="439" y="635" on="1"/>
        <pt x="439" y="619" on="0"/>
        <pt x="426" y="609" on="0"/>
        <pt x="412" y="609" on="1"/>
        <pt x="387" y="610" on="1"/>
        <pt x="373" y="611" on="0"/>
        <pt x="351" y="596" on="0"/>
        <pt x="351" y="576" on="1"/>
        <pt x="351" y="557" on="0"/>
        <pt x="353" y="531" on="0"/>
        <pt x="356" y="509" on="0"/>
        <pt x="358" y="486" on="0"/>
        <pt x="358" y="470" on="1"/>
        <pt x="357" y="396" on="1"/>
        <pt x="364" y="384" on="1"/>
        <pt x="469" y="384" on="1"/>
        <pt x="699" y="337" on="1"/>
        <pt x="699" y="577" on="1"/>
        <pt x="699" y="587" on="0"/>
        <pt x="684" y="607" on="0"/>
        <pt x="680" y="607" on="1"/>
        <pt x="581" y="607" on="1"/>
        <pt x="574" y="607" on="0"/>
        <pt x="574" y="622" on="1"/>
        <pt x="574" y="643" on="0"/>
        <pt x="668" y="657" on="0"/>
        <pt x="734" y="657" on="1"/>
        <pt x="762" y="658" on="0"/>
        <pt x="796" y="659" on="1"/>
        <pt x="812" y="658" on="0"/>
        <pt x="829" y="651" on="0"/>
        <pt x="829" y="641" on="1"/>
        <pt x="829" y="630" on="0"/>
        <pt x="818" y="619" on="0"/>
        <pt x="803" y="613" on="0"/>
        <pt x="786" y="612" on="0"/>
        <pt x="781" y="612" on="1"/>
        <pt x="761" y="612" on="1"/>
        <pt x="749" y="613" on="1"/>
        <pt x="742" y="607" on="1"/>
        <pt x="736" y="350" on="1"/>
        <pt x="746" y="350" on="0"/>
        <pt x="753" y="346" on="0"/>
        <pt x="756" y="346" on="1"/>
        <pt x="760" y="346" on="0"/>
        <pt x="794" y="383" on="1"/>
        <pt x="858" y="453" on="0"/>
        <pt x="866" y="453" on="1"/>
        <pt x="872" y="453" on="0"/>
        <pt x="885" y="442" on="0"/>
        <pt x="885" y="430" on="1"/>
        <pt x="885" y="414" on="0"/>
        <pt x="857" y="375" on="0"/>
        <pt x="813" y="336" on="0"/>
        <pt x="761" y="302" on="0"/>
        <pt x="736" y="291" on="1"/>
        <pt x="736" y="277" on="1"/>
        <pt x="736" y="264" on="0"/>
        <pt x="737" y="240" on="0"/>
        <pt x="737" y="228" on="1"/>
        <pt x="737" y="170" on="1"/>
        <pt x="737" y="136" on="0"/>
        <pt x="740" y="72" on="0"/>
        <pt x="742" y="43" on="1"/>
        <pt x="752" y="38" on="0"/>
        <pt x="778" y="32" on="0"/>
        <pt x="801" y="25" on="0"/>
        <pt x="817" y="13" on="0"/>
        <pt x="817" y="3" on="1"/>
        <pt x="817" y="-20" on="0"/>
        <pt x="783" y="-20" on="1"/>
        <pt x="749" y="-20" on="0"/>
        <pt x="675" y="-5" on="0"/>
        <pt x="637" y="-5" on="1"/>
        <pt x="618" y="-6" on="1"/>
        <pt x="611" y="-5" on="0"/>
        <pt x="611" y="13" on="1"/>
        <pt x="611" y="45" on="0"/>
        <pt x="665" y="45" on="1"/>
        <pt x="673" y="45" on="0"/>
        <pt x="687" y="44" on="0"/>
        <pt x="692" y="43" on="1"/>
        <pt x="699" y="74" on="1"/>
        <pt x="699" y="285" on="1"/>
        <pt x="469" y="335" on="1"/>
        <pt x="420" y="336" on="1"/>
        <pt x="377" y="336" on="0"/>
        <pt x="364" y="316" on="1"/>
        <pt x="357" y="93" on="1"/>
        <pt x="357" y="37" on="0"/>
        <pt x="364" y="30" on="1"/>
        <pt x="395" y="30" on="1"/>
        <pt x="464" y="30" on="0"/>
        <pt x="464" y="4" on="1"/>
        <pt x="464" y="-12" on="0"/>
        <pt x="425" y="-25" on="1"/>
        <pt x="412" y="-25" on="0"/>
        <pt x="395" y="-18" on="0"/>
        <pt x="384" y="-18" on="1"/>
        <pt x="367" y="-18" on="0"/>
        <pt x="345" y="-32" on="0"/>
        <pt x="336" y="-32" on="1"/>
        <pt x="332" y="-31" on="1"/>
        <pt x="284" y="-7" on="0"/>
      </contour>
    </TTGlyph>
    <TTGlyph name="I" xMin="25" yMin="-36" xMax="423" yMax="686">
      <contour>
        <pt x="324" y="-34" on="1"/>
        <pt x="255" y="-36" on="1"/>
        <pt x="212" y="-36" on="0"/>
        <pt x="169" y="-28" on="0"/>
        <pt x="152" y="-28" on="1"/>
        <pt x="68" y="-28" on="1"/>
        <pt x="50" y="-28" on="0"/>
        <pt x="35" y="-17" on="0"/>
        <pt x="35" y="-2" on="1"/>
        <pt x="35" y="8" on="0"/>
        <pt x="46" y="17" on="0"/>
        <pt x="60" y="17" on="1"/>
        <pt x="71" y="17" on="0"/>
        <pt x="93" y="15" on="0"/>
        <pt x="104" y="15" on="1"/>
        <pt x="115" y="15" on="0"/>
        <pt x="130" y="19" on="0"/>
        <pt x="133" y="24" on="1"/>
        <pt x="137" y="272" on="1"/>
        <pt x="136" y="287" on="1"/>
        <pt x="128" y="285" on="0"/>
        <pt x="123" y="285" on="1"/>
        <pt x="116" y="285" on="0"/>
        <pt x="98" y="310" on="0"/>
        <pt x="98" y="320" on="1"/>
        <pt x="98" y="329" on="0"/>
        <pt x="110" y="337" on="0"/>
        <pt x="124" y="341" on="0"/>
        <pt x="136" y="345" on="0"/>
        <pt x="136" y="350" on="1"/>
        <pt x="135" y="362" on="0"/>
        <pt x="133" y="414" on="0"/>
        <pt x="132" y="477" on="0"/>
        <pt x="131" y="544" on="0"/>
        <pt x="128" y="599" on="0"/>
        <pt x="126" y="633" on="0"/>
        <pt x="117" y="634" on="1"/>
        <pt x="79" y="634" on="1"/>
        <pt x="65" y="634" on="1"/>
        <pt x="43" y="634" on="0"/>
        <pt x="25" y="652" on="0"/>
        <pt x="25" y="663" on="1"/>
        <pt x="25" y="675" on="0"/>
        <pt x="33" y="679" on="1"/>
        <pt x="132" y="684" on="1"/>
        <pt x="141" y="683" on="0"/>
        <pt x="159" y="682" on="0"/>
        <pt x="167" y="682" on="1"/>
        <pt x="359" y="686" on="1"/>
        <pt x="416" y="685" on="1"/>
        <pt x="423" y="682" on="0"/>
        <pt x="423" y="664" on="1"/>
        <pt x="423" y="647" on="0"/>
        <pt x="403" y="634" on="0"/>
        <pt x="376" y="634" on="1"/>
        <pt x="328" y="636" on="1"/>
        <pt x="328" y="587" on="0"/>
        <pt x="325" y="491" on="0"/>
        <pt x="322" y="389" on="0"/>
        <pt x="319" y="279" on="0"/>
        <pt x="319" y="217" on="1"/>
        <pt x="319" y="156" on="0"/>
        <pt x="325" y="54" on="0"/>
        <pt x="330" y="12" on="1"/>
        <pt x="398" y="7" on="1"/>
        <pt x="418" y="7" on="0"/>
        <pt x="420" y="-16" on="1"/>
        <pt x="415" y="-26" on="0"/>
        <pt x="407" y="-27" on="1"/>
      </contour>
    </TTGlyph>
    <TTGlyph name="Iacute" xMin="25" yMin="-36" xMax="423" yMax="806">
      <component glyphName="I" x="0" y="0" flags="0x204"/>
      <component glyphName="acute" x="113" y="37" flags="0x4"/>
    </TTGlyph>
    <TTGlyph name="Icircumflex" xMin="25" yMin="-36" xMax="424" yMax="825">
      <component glyphName="I" x="0" y="0" flags="0x204"/>
      <component glyphName="circumflex" x="33" y="37" flags="0x4"/>
    </TTGlyph>
    <TTGlyph name="Idieresis" xMin="25" yMin="-36" xMax="423" yMax="818">
      <component glyphName="I" x="0" y="0" flags="0x4"/>
      <component glyphName="dieresis" x="-41" y="20" flags="0x4"/>
    </TTGlyph>
    <TTGlyph name="Igrave" xMin="25" yMin="-36" xMax="423" yMax="807">
      <component glyphName="I" x="0" y="0" flags="0x4"/>
      <component glyphName="grave" x="113" y="37" flags="0x4"/>
    </TTGlyph>
    <TTGlyph name="J" xMin="19" yMin="-95" xMax="564" yMax="682">
      <contour>
        <pt x="412" y="670" on="1"/>
        <pt x="521" y="676" on="1"/>
        <pt x="534" y="676" on="0"/>
        <pt x="551" y="661" on="0"/>
        <pt x="560" y="635" on="0"/>
        <pt x="564" y="603" on="0"/>
        <pt x="564" y="586" on="1"/>
        <pt x="564" y="508" on="1"/>
        <pt x="564" y="377" on="0"/>
        <pt x="539" y="193" on="0"/>
        <pt x="495" y="66" on="0"/>
        <pt x="436" y="-13" on="0"/>
        <pt x="403" y="-38" on="1"/>
        <pt x="329" y="-95" on="0"/>
        <pt x="210" y="-95" on="1"/>
        <pt x="19" y="-95" on="0"/>
        <pt x="19" y="109" on="1"/>
        <pt x="19" y="204" on="0"/>
        <pt x="59" y="204" on="1"/>
        <pt x="71" y="204" on="0"/>
        <pt x="99" y="186" on="0"/>
        <pt x="126" y="160" on="0"/>
        <pt x="155" y="140" on="0"/>
        <pt x="167" y="135" on="1"/>
        <pt x="177" y="129" on="0"/>
        <pt x="177" y="110" on="1"/>
        <pt x="175" y="93" on="0"/>
        <pt x="167" y="58" on="0"/>
        <pt x="158" y="28" on="0"/>
        <pt x="150" y="5" on="0"/>
        <pt x="150" y="1" on="1"/>
        <pt x="150" y="-45" on="0"/>
        <pt x="174" y="-45" on="1"/>
        <pt x="258" y="-45" on="0"/>
        <pt x="299" y="-13" on="1"/>
        <pt x="305" y="11" on="0"/>
        <pt x="312" y="87" on="0"/>
        <pt x="313" y="170" on="0"/>
        <pt x="313" y="251" on="0"/>
        <pt x="314" y="280" on="1"/>
        <pt x="323" y="496" on="1"/>
        <pt x="324" y="521" on="0"/>
        <pt x="325" y="575" on="0"/>
        <pt x="325" y="605" on="1"/>
        <pt x="324" y="627" on="1"/>
        <pt x="299" y="633" on="1"/>
        <pt x="200" y="621" on="1"/>
        <pt x="183" y="618" on="0"/>
        <pt x="155" y="597" on="0"/>
        <pt x="135" y="570" on="0"/>
        <pt x="125" y="543" on="0"/>
        <pt x="125" y="534" on="1"/>
        <pt x="125" y="520" on="0"/>
        <pt x="134" y="502" on="0"/>
        <pt x="148" y="492" on="0"/>
        <pt x="166" y="487" on="0"/>
        <pt x="175" y="486" on="1"/>
        <pt x="210" y="481" on="1"/>
        <pt x="225" y="479" on="0"/>
        <pt x="225" y="468" on="1"/>
        <pt x="225" y="454" on="0"/>
        <pt x="186" y="434" on="0"/>
        <pt x="166" y="434" on="1"/>
        <pt x="148" y="434" on="0"/>
        <pt x="113" y="455" on="0"/>
        <pt x="87" y="486" on="0"/>
        <pt x="71" y="520" on="0"/>
        <pt x="71" y="533" on="1"/>
        <pt x="71" y="549" on="0"/>
        <pt x="94" y="600" on="0"/>
        <pt x="144" y="648" on="0"/>
        <pt x="221" y="682" on="0"/>
        <pt x="274" y="682" on="1"/>
        <pt x="310" y="682" on="0"/>
        <pt x="341" y="678" on="0"/>
        <pt x="354" y="676" on="1"/>
        <pt x="381" y="672" on="1"/>
        <pt x="388" y="671" on="0"/>
        <pt x="403" y="670" on="0"/>
      </contour>
    </TTGlyph>
    <TTGlyph name="K" xMin="21" yMin="-19" xMax="831" yMax="679">
      <contour>
        <pt x="636" y="-17" on="1"/>
        <pt x="621" y="-19" on="0"/>
        <pt x="606" y="-8" on="0"/>
        <pt x="606" y="0" on="1"/>
        <pt x="606" y="17" on="0"/>
        <pt x="626" y="32" on="0"/>
        <pt x="649" y="39" on="0"/>
        <pt x="669" y="45" on="0"/>
        <pt x="669" y="54" on="1"/>
        <pt x="669" y="58" on="0"/>
        <pt x="664" y="64" on="0"/>
        <pt x="651" y="78" on="0"/>
        <pt x="629" y="105" on="0"/>
        <pt x="612" y="130" on="1"/>
        <pt x="570" y="193" on="0"/>
        <pt x="485" y="260" on="0"/>
        <pt x="447" y="260" on="1"/>
        <pt x="392" y="260" on="0"/>
        <pt x="372" y="228" on="1"/>
        <pt x="370" y="211" on="0"/>
        <pt x="368" y="173" on="0"/>
        <pt x="368" y="150" on="1"/>
        <pt x="368" y="128" on="0"/>
        <pt x="369" y="97" on="0"/>
        <pt x="374" y="74" on="0"/>
        <pt x="381" y="55" on="0"/>
        <pt x="387" y="46" on="1"/>
        <pt x="451" y="60" on="1"/>
        <pt x="454" y="60" on="0"/>
        <pt x="467" y="42" on="0"/>
        <pt x="467" y="34" on="1"/>
        <pt x="467" y="28" on="0"/>
        <pt x="455" y="16" on="0"/>
        <pt x="435" y="7" on="0"/>
        <pt x="412" y="2" on="0"/>
        <pt x="401" y="2" on="1"/>
        <pt x="60" y="2" on="1"/>
        <pt x="60" y="23" on="0"/>
        <pt x="79" y="43" on="0"/>
        <pt x="93" y="45" on="1"/>
        <pt x="110" y="48" on="0"/>
        <pt x="135" y="61" on="0"/>
        <pt x="146" y="62" on="1"/>
        <pt x="147" y="93" on="1"/>
        <pt x="147" y="143" on="0"/>
        <pt x="136" y="231" on="0"/>
        <pt x="130" y="288" on="1"/>
        <pt x="90" y="288" on="1"/>
        <pt x="90" y="305" on="0"/>
        <pt x="110" y="334" on="0"/>
        <pt x="130" y="334" on="1"/>
        <pt x="130" y="616" on="1"/>
        <pt x="47" y="600" on="1"/>
        <pt x="36" y="600" on="0"/>
        <pt x="21" y="615" on="0"/>
        <pt x="23" y="631" on="1"/>
        <pt x="24" y="646" on="1"/>
        <pt x="52" y="656" on="0"/>
        <pt x="172" y="679" on="0"/>
        <pt x="200" y="677" on="1"/>
        <pt x="402" y="675" on="1"/>
        <pt x="433" y="676" on="1"/>
        <pt x="455" y="676" on="0"/>
        <pt x="455" y="653" on="1"/>
        <pt x="455" y="647" on="0"/>
        <pt x="434" y="639" on="0"/>
        <pt x="410" y="633" on="0"/>
        <pt x="387" y="622" on="0"/>
        <pt x="387" y="616" on="1"/>
        <pt x="371" y="549" on="0"/>
        <pt x="371" y="371" on="1"/>
        <pt x="372" y="329" on="1"/>
        <pt x="372" y="319" on="1"/>
        <pt x="394" y="336" on="0"/>
        <pt x="452" y="390" on="1"/>
        <pt x="551" y="482" on="1"/>
        <pt x="613" y="535" on="0"/>
        <pt x="684" y="602" on="0"/>
        <pt x="729" y="640" on="0"/>
        <pt x="749" y="655" on="0"/>
        <pt x="755" y="657" on="1"/>
        <pt x="784" y="660" on="1"/>
        <pt x="803" y="660" on="0"/>
        <pt x="807" y="643" on="1"/>
        <pt x="794" y="626" on="0"/>
        <pt x="759" y="588" on="0"/>
        <pt x="736" y="567" on="1"/>
        <pt x="549" y="395" on="1"/>
        <pt x="526" y="374" on="0"/>
        <pt x="491" y="336" on="0"/>
        <pt x="478" y="319" on="1"/>
        <pt x="542" y="292" on="0"/>
        <pt x="613" y="210" on="1"/>
        <pt x="643" y="176" on="0"/>
        <pt x="699" y="104" on="0"/>
        <pt x="725" y="78" on="1"/>
        <pt x="751" y="51" on="0"/>
        <pt x="798" y="37" on="0"/>
        <pt x="831" y="37" on="1"/>
        <pt x="831" y="25" on="0"/>
        <pt x="800" y="4" on="0"/>
        <pt x="749" y="-7" on="0"/>
        <pt x="684" y="-15" on="0"/>
        <pt x="650" y="-16" on="1"/>
      </contour>
    </TTGlyph>
    <TTGlyph name="L" xMin="23" yMin="-19" xMax="739" yMax="676">
      <contour>
        <pt x="433" y="-2" on="1"/>
        <pt x="369" y="-10" on="0"/>
        <pt x="239" y="-19" on="0"/>
        <pt x="171" y="-19" on="1"/>
        <pt x="147" y="-19" on="0"/>
        <pt x="98" y="-16" on="0"/>
        <pt x="57" y="-10" on="0"/>
        <pt x="29" y="0" on="0"/>
        <pt x="26" y="7" on="1"/>
        <pt x="23" y="14" on="0"/>
        <pt x="23" y="39" on="1"/>
        <pt x="129" y="39" on="1"/>
        <pt x="128" y="146" on="1"/>
        <pt x="130" y="171" on="1"/>
        <pt x="126" y="291" on="1"/>
        <pt x="109" y="294" on="0"/>
        <pt x="89" y="299" on="0"/>
        <pt x="80" y="303" on="0"/>
        <pt x="78" y="309" on="0"/>
        <pt x="78" y="314" on="1"/>
        <pt x="78" y="320" on="0"/>
        <pt x="91" y="339" on="0"/>
        <pt x="109" y="357" on="0"/>
        <pt x="121" y="374" on="1"/>
        <pt x="123" y="382" on="0"/>
        <pt x="130" y="435" on="0"/>
        <pt x="135" y="467" on="1"/>
        <pt x="143" y="527" on="1"/>
        <pt x="146" y="548" on="0"/>
        <pt x="146" y="562" on="1"/>
        <pt x="144" y="625" on="1"/>
        <pt x="65" y="620" on="1"/>
        <pt x="44" y="618" on="0"/>
        <pt x="44" y="643" on="1"/>
        <pt x="44" y="646" on="0"/>
        <pt x="59" y="653" on="0"/>
        <pt x="77" y="659" on="0"/>
        <pt x="97" y="663" on="1"/>
        <pt x="119" y="662" on="1"/>
        <pt x="420" y="676" on="1"/>
        <pt x="463" y="676" on="0"/>
        <pt x="463" y="655" on="1"/>
        <pt x="463" y="635" on="0"/>
        <pt x="434" y="630" on="1"/>
        <pt x="409" y="626" on="0"/>
        <pt x="380" y="621" on="0"/>
        <pt x="375" y="619" on="1"/>
        <pt x="369" y="602" on="1"/>
        <pt x="365" y="591" on="0"/>
        <pt x="358" y="570" on="0"/>
        <pt x="358" y="560" on="1"/>
        <pt x="343" y="421" on="1"/>
        <pt x="341" y="397" on="0"/>
        <pt x="336" y="365" on="0"/>
        <pt x="331" y="328" on="0"/>
        <pt x="329" y="272" on="0"/>
        <pt x="329" y="224" on="1"/>
        <pt x="330" y="104" on="1"/>
        <pt x="330" y="79" on="0"/>
        <pt x="343" y="50" on="0"/>
        <pt x="374" y="50" on="1"/>
        <pt x="447" y="45" on="1"/>
        <pt x="470" y="45" on="0"/>
        <pt x="483" y="50" on="1"/>
        <pt x="507" y="62" on="1"/>
        <pt x="529" y="70" on="0"/>
        <pt x="569" y="97" on="0"/>
        <pt x="572" y="100" on="1"/>
        <pt x="601" y="128" on="1"/>
        <pt x="609" y="139" on="0"/>
        <pt x="630" y="160" on="0"/>
        <pt x="641" y="172" on="1"/>
        <pt x="709" y="245" on="1"/>
        <pt x="739" y="234" on="0"/>
        <pt x="739" y="183" on="1"/>
        <pt x="739" y="166" on="0"/>
        <pt x="731" y="119" on="0"/>
        <pt x="719" y="74" on="0"/>
        <pt x="707" y="36" on="0"/>
        <pt x="703" y="28" on="1"/>
        <pt x="682" y="-16" on="0"/>
        <pt x="659" y="-16" on="1"/>
        <pt x="635" y="-16" on="0"/>
        <pt x="588" y="-12" on="0"/>
        <pt x="545" y="-6" on="0"/>
        <pt x="508" y="-1" on="0"/>
        <pt x="495" y="-1" on="1"/>
      </contour>
    </TTGlyph>
    <TTGlyph name="M" xMin="-11" yMin="-5" xMax="1130" yMax="680">
      <contour>
        <pt x="230" y="608" on="1"/>
        <pt x="165" y="602" on="1"/>
        <pt x="139" y="602" on="0"/>
        <pt x="114" y="618" on="0"/>
        <pt x="114" y="629" on="1"/>
        <pt x="113" y="644" on="0"/>
        <pt x="132" y="654" on="1"/>
        <pt x="216" y="665" on="0"/>
        <pt x="349" y="671" on="0"/>
        <pt x="403" y="671" on="1"/>
        <pt x="463" y="671" on="1"/>
        <pt x="465" y="640" on="0"/>
        <pt x="492" y="499" on="0"/>
        <pt x="523" y="387" on="1"/>
        <pt x="553" y="278" on="1"/>
        <pt x="561" y="276" on="1"/>
        <pt x="589" y="276" on="0"/>
        <pt x="655" y="459" on="1"/>
        <pt x="689" y="553" on="1"/>
        <pt x="692" y="560" on="0"/>
        <pt x="692" y="568" on="1"/>
        <pt x="691" y="620" on="1"/>
        <pt x="693" y="647" on="0"/>
        <pt x="709" y="646" on="1"/>
        <pt x="908" y="680" on="1"/>
        <pt x="957" y="680" on="0"/>
        <pt x="957" y="654" on="1"/>
        <pt x="957" y="639" on="0"/>
        <pt x="936" y="628" on="0"/>
        <pt x="910" y="622" on="0"/>
        <pt x="889" y="612" on="0"/>
        <pt x="889" y="597" on="1"/>
        <pt x="889" y="577" on="0"/>
        <pt x="905" y="506" on="0"/>
        <pt x="925" y="436" on="0"/>
        <pt x="948" y="382" on="0"/>
        <pt x="955" y="379" on="1"/>
        <pt x="962" y="375" on="0"/>
        <pt x="981" y="369" on="0"/>
        <pt x="998" y="365" on="0"/>
        <pt x="1010" y="359" on="0"/>
        <pt x="1010" y="355" on="1"/>
        <pt x="1010" y="344" on="0"/>
        <pt x="998" y="330" on="0"/>
        <pt x="984" y="317" on="0"/>
        <pt x="972" y="299" on="0"/>
        <pt x="972" y="287" on="1"/>
        <pt x="972" y="261" on="1"/>
        <pt x="994" y="200" on="1"/>
        <pt x="1025" y="114" on="1"/>
        <pt x="1031" y="97" on="0"/>
        <pt x="1046" y="73" on="0"/>
        <pt x="1063" y="56" on="0"/>
        <pt x="1099" y="43" on="0"/>
        <pt x="1129" y="37" on="1"/>
        <pt x="1130" y="26" on="1"/>
        <pt x="1130" y="21" on="0"/>
        <pt x="1123" y="2" on="0"/>
        <pt x="1113" y="2" on="1"/>
        <pt x="891" y="2" on="1"/>
        <pt x="842" y="54" on="1"/>
        <pt x="727" y="465" on="1"/>
        <pt x="709" y="450" on="1"/>
        <pt x="651" y="311" on="0"/>
        <pt x="577" y="168" on="0"/>
        <pt x="570" y="156" on="1"/>
        <pt x="551" y="126" on="1"/>
        <pt x="523" y="89" on="0"/>
        <pt x="480" y="52" on="0"/>
        <pt x="462" y="52" on="1"/>
        <pt x="438" y="52" on="0"/>
        <pt x="414" y="83" on="0"/>
        <pt x="406" y="106" on="1"/>
        <pt x="333" y="306" on="1"/>
        <pt x="314" y="357" on="0"/>
        <pt x="288" y="459" on="0"/>
        <pt x="278" y="510" on="1"/>
        <pt x="271" y="492" on="0"/>
        <pt x="254" y="425" on="1"/>
        <pt x="226" y="316" on="1"/>
        <pt x="216" y="278" on="0"/>
        <pt x="197" y="210" on="0"/>
        <pt x="181" y="158" on="0"/>
        <pt x="170" y="123" on="0"/>
        <pt x="167" y="118" on="1"/>
        <pt x="159" y="104" on="0"/>
        <pt x="152" y="84" on="0"/>
        <pt x="147" y="59" on="0"/>
        <pt x="147" y="55" on="1"/>
        <pt x="147" y="45" on="0"/>
        <pt x="155" y="37" on="1"/>
        <pt x="229" y="37" on="1"/>
        <pt x="227" y="32" on="0"/>
        <pt x="225" y="20" on="0"/>
        <pt x="214" y="4" on="0"/>
        <pt x="197" y="-5" on="0"/>
        <pt x="183" y="-5" on="1"/>
        <pt x="-11" y="-5" on="1"/>
        <pt x="-11" y="15" on="0"/>
        <pt x="8" y="32" on="0"/>
        <pt x="21" y="36" on="1"/>
        <pt x="48" y="43" on="1"/>
        <pt x="61" y="47" on="0"/>
        <pt x="70" y="62" on="1"/>
        <pt x="103" y="128" on="1"/>
        <pt x="114" y="150" on="0"/>
        <pt x="126" y="182" on="0"/>
        <pt x="137" y="214" on="0"/>
        <pt x="149" y="250" on="0"/>
        <pt x="159" y="276" on="1"/>
        <pt x="195" y="374" on="1"/>
        <pt x="213" y="424" on="0"/>
        <pt x="235" y="523" on="0"/>
        <pt x="235" y="554" on="1"/>
        <pt x="235" y="568" on="0"/>
        <pt x="232" y="594" on="0"/>
      </contour>
    </TTGlyph>
    <TTGlyph name="N" xMin="50" yMin="0" xMax="785" yMax="686">
      <contour>
        <pt x="230" y="2" on="1"/>
        <pt x="69" y="4" on="1"/>
        <pt x="57" y="4" on="0"/>
        <pt x="50" y="28" on="0"/>
        <pt x="50" y="37" on="1"/>
        <pt x="50" y="47" on="0"/>
        <pt x="65" y="54" on="0"/>
        <pt x="84" y="59" on="0"/>
        <pt x="102" y="68" on="0"/>
        <pt x="106" y="80" on="1"/>
        <pt x="117" y="148" on="0"/>
        <pt x="132" y="333" on="0"/>
        <pt x="137" y="453" on="1"/>
        <pt x="140" y="586" on="1"/>
        <pt x="140" y="592" on="0"/>
        <pt x="139" y="604" on="0"/>
        <pt x="138" y="610" on="1"/>
        <pt x="105" y="610" on="0"/>
        <pt x="72" y="616" on="0"/>
        <pt x="62" y="634" on="0"/>
        <pt x="57" y="653" on="0"/>
        <pt x="57" y="663" on="1"/>
        <pt x="108" y="668" on="0"/>
        <pt x="216" y="675" on="0"/>
        <pt x="307" y="680" on="0"/>
        <pt x="371" y="682" on="0"/>
        <pt x="377" y="682" on="1"/>
        <pt x="448" y="682" on="0"/>
        <pt x="448" y="657" on="1"/>
        <pt x="448" y="651" on="0"/>
        <pt x="435" y="639" on="0"/>
        <pt x="418" y="629" on="0"/>
        <pt x="406" y="619" on="0"/>
        <pt x="406" y="615" on="1"/>
        <pt x="406" y="607" on="0"/>
        <pt x="433" y="557" on="0"/>
        <pt x="470" y="499" on="0"/>
        <pt x="507" y="445" on="0"/>
        <pt x="517" y="433" on="1"/>
        <pt x="525" y="435" on="1"/>
        <pt x="555" y="435" on="0"/>
        <pt x="573" y="453" on="1"/>
        <pt x="576" y="447" on="0"/>
        <pt x="576" y="437" on="1"/>
        <pt x="576" y="427" on="0"/>
        <pt x="567" y="410" on="0"/>
        <pt x="556" y="396" on="0"/>
        <pt x="548" y="379" on="0"/>
        <pt x="548" y="372" on="1"/>
        <pt x="548" y="365" on="0"/>
        <pt x="560" y="341" on="0"/>
        <pt x="573" y="315" on="1"/>
        <pt x="603" y="254" on="1"/>
        <pt x="612" y="236" on="0"/>
        <pt x="629" y="201" on="0"/>
        <pt x="645" y="171" on="0"/>
        <pt x="656" y="150" on="0"/>
        <pt x="659" y="146" on="1"/>
        <pt x="668" y="186" on="0"/>
        <pt x="668" y="268" on="1"/>
        <pt x="668" y="442" on="0"/>
        <pt x="649" y="628" on="0"/>
        <pt x="644" y="628" on="1"/>
        <pt x="550" y="620" on="1"/>
        <pt x="550" y="649" on="0"/>
        <pt x="570" y="671" on="0"/>
        <pt x="578" y="672" on="1"/>
        <pt x="625" y="678" on="1"/>
        <pt x="646" y="678" on="0"/>
        <pt x="702" y="686" on="0"/>
        <pt x="726" y="686" on="1"/>
        <pt x="780" y="686" on="0"/>
        <pt x="783" y="677" on="1"/>
        <pt x="785" y="654" on="1"/>
        <pt x="775" y="653" on="0"/>
        <pt x="744" y="644" on="0"/>
        <pt x="733" y="642" on="1"/>
        <pt x="705" y="625" on="1"/>
        <pt x="704" y="619" on="0"/>
        <pt x="701" y="579" on="0"/>
        <pt x="699" y="535" on="0"/>
        <pt x="697" y="497" on="0"/>
        <pt x="697" y="493" on="1"/>
        <pt x="697" y="477" on="1"/>
        <pt x="698" y="394" on="0"/>
        <pt x="701" y="274" on="0"/>
        <pt x="704" y="189" on="0"/>
        <pt x="706" y="135" on="0"/>
        <pt x="709" y="101" on="0"/>
        <pt x="710" y="83" on="0"/>
        <pt x="710" y="76" on="1"/>
        <pt x="706" y="9" on="0"/>
        <pt x="500" y="0" on="1"/>
        <pt x="481" y="0" on="0"/>
        <pt x="461" y="13" on="0"/>
        <pt x="461" y="33" on="1"/>
        <pt x="461" y="50" on="0"/>
        <pt x="463" y="56" on="1"/>
        <pt x="340" y="266" on="1"/>
        <pt x="276" y="261" on="1"/>
        <pt x="276" y="265" on="0"/>
        <pt x="281" y="293" on="0"/>
        <pt x="296" y="304" on="1"/>
        <pt x="306" y="311" on="0"/>
        <pt x="306" y="327" on="1"/>
        <pt x="306" y="345" on="0"/>
        <pt x="281" y="405" on="0"/>
        <pt x="244" y="471" on="0"/>
        <pt x="202" y="532" on="0"/>
        <pt x="185" y="552" on="1"/>
        <pt x="180" y="544" on="0"/>
        <pt x="180" y="527" on="1"/>
        <pt x="180" y="509" on="1"/>
        <pt x="179" y="481" on="0"/>
        <pt x="175" y="406" on="0"/>
        <pt x="171" y="326" on="0"/>
        <pt x="167" y="248" on="0"/>
        <pt x="163" y="185" on="0"/>
        <pt x="161" y="144" on="0"/>
        <pt x="161" y="141" on="1"/>
        <pt x="161" y="62" on="0"/>
        <pt x="167" y="55" on="1"/>
        <pt x="171" y="49" on="0"/>
        <pt x="196" y="49" on="0"/>
        <pt x="227" y="48" on="0"/>
        <pt x="243" y="36" on="0"/>
        <pt x="243" y="20" on="1"/>
        <pt x="243" y="2" on="0"/>
      </contour>
    </TTGlyph>
    <TTGlyph name="Ntilde" xMin="50" yMin="0" xMax="785" yMax="847">
      <component glyphName="N" x="0" y="0" flags="0x204"/>
      <component glyphName="tilde" x="113" y="20" flags="0x4"/>
    </TTGlyph>
    <TTGlyph name="O" xMin="39" yMin="-29" xMax="739" yMax="696">
      <contour>
        <pt x="512" y="-2" on="1"/>
        <pt x="443" y="-29" on="0"/>
        <pt x="367" y="-29" on="1"/>
        <pt x="293" y="-29" on="0"/>
        <pt x="172" y="24" on="0"/>
        <pt x="86" y="111" on="0"/>
        <pt x="39" y="223" on="0"/>
        <pt x="39" y="282" on="1"/>
        <pt x="39" y="316" on="0"/>
        <pt x="53" y="399" on="0"/>
        <pt x="80" y="481" on="0"/>
        <pt x="116" y="556" on="0"/>
        <pt x="138" y="583" on="1"/>
        <pt x="186" y="642" on="0"/>
        <pt x="309" y="696" on="0"/>
        <pt x="378" y="696" on="1"/>
        <pt x="465" y="696" on="0"/>
        <pt x="601" y="649" on="0"/>
        <pt x="691" y="563" on="0"/>
        <pt x="739" y="439" on="0"/>
        <pt x="739" y="363" on="1"/>
        <pt x="739" y="231" on="0"/>
        <pt x="624" y="44" on="0"/>
      </contour>
      <contour>
        <pt x="243" y="356" on="1"/>
        <pt x="240" y="321" on="0"/>
        <pt x="240" y="293" on="1"/>
        <pt x="240" y="226" on="0"/>
        <pt x="292" y="79" on="0"/>
        <pt x="337" y="13" on="1"/>
        <pt x="340" y="4" on="0"/>
        <pt x="365" y="4" on="1"/>
        <pt x="419" y="4" on="0"/>
        <pt x="486" y="39" on="0"/>
        <pt x="496" y="74" on="1"/>
        <pt x="508" y="116" on="0"/>
        <pt x="528" y="175" on="0"/>
        <pt x="536" y="201" on="1"/>
        <pt x="547" y="236" on="0"/>
        <pt x="554" y="293" on="0"/>
        <pt x="554" y="318" on="1"/>
        <pt x="554" y="347" on="0"/>
        <pt x="547" y="419" on="0"/>
        <pt x="532" y="493" on="0"/>
        <pt x="508" y="563" on="0"/>
        <pt x="474" y="618" on="0"/>
        <pt x="428" y="652" on="0"/>
        <pt x="399" y="653" on="1"/>
        <pt x="336" y="651" on="0"/>
        <pt x="254" y="495" on="0"/>
      </contour>
    </TTGlyph>
    <TTGlyph name="OE" xMin="46" yMin="7" xMax="812" yMax="703">
      <contour>
        <pt x="712" y="73" on="1"/>
        <pt x="682" y="72" on="1"/>
        <pt x="659" y="69" on="0"/>
        <pt x="613" y="62" on="0"/>
        <pt x="590" y="58" on="1"/>
        <pt x="491" y="41" on="1"/>
        <pt x="486" y="40" on="0"/>
        <pt x="478" y="36" on="0"/>
        <pt x="474" y="34" on="1"/>
        <pt x="456" y="25" on="1"/>
        <pt x="443" y="19" on="0"/>
        <pt x="430" y="9" on="0"/>
        <pt x="428" y="7" on="1"/>
        <pt x="229" y="7" on="1"/>
        <pt x="208" y="20" on="1"/>
        <pt x="161" y="45" on="0"/>
        <pt x="105" y="94" on="0"/>
        <pt x="61" y="154" on="0"/>
        <pt x="46" y="232" on="0"/>
        <pt x="46" y="286" on="1"/>
        <pt x="46" y="407" on="0"/>
        <pt x="146" y="596" on="0"/>
        <pt x="244" y="646" on="1"/>
        <pt x="274" y="664" on="0"/>
        <pt x="301" y="663" on="1"/>
        <pt x="315" y="662" on="1"/>
        <pt x="363" y="650" on="0"/>
        <pt x="423" y="630" on="0"/>
        <pt x="430" y="628" on="1"/>
        <pt x="461" y="624" on="1"/>
        <pt x="477" y="622" on="0"/>
        <pt x="514" y="618" on="0"/>
        <pt x="548" y="616" on="0"/>
        <pt x="576" y="614" on="0"/>
        <pt x="582" y="614" on="1"/>
        <pt x="598" y="616" on="1"/>
        <pt x="620" y="620" on="1"/>
        <pt x="633" y="623" on="0"/>
        <pt x="648" y="625" on="0"/>
        <pt x="657" y="631" on="0"/>
        <pt x="667" y="642" on="0"/>
        <pt x="676" y="653" on="1"/>
        <pt x="694" y="675" on="0"/>
        <pt x="711" y="697" on="0"/>
        <pt x="727" y="703" on="1"/>
        <pt x="727" y="678" on="0"/>
        <pt x="711" y="631" on="0"/>
        <pt x="693" y="581" on="0"/>
        <pt x="681" y="573" on="0"/>
        <pt x="682" y="573" on="1"/>
        <pt x="498" y="573" on="1"/>
        <pt x="583" y="385" on="1"/>
        <pt x="597" y="384" on="1"/>
        <pt x="614" y="384" on="0"/>
        <pt x="637" y="402" on="0"/>
        <pt x="658" y="423" on="0"/>
        <pt x="680" y="441" on="0"/>
        <pt x="697" y="441" on="1"/>
        <pt x="696" y="418" on="1"/>
        <pt x="695" y="402" on="0"/>
        <pt x="690" y="370" on="0"/>
        <pt x="688" y="354" on="1"/>
        <pt x="682" y="318" on="1"/>
        <pt x="670" y="304" on="0"/>
        <pt x="668" y="304" on="1"/>
        <pt x="648" y="331" on="0"/>
        <pt x="640" y="336" on="1"/>
        <pt x="627" y="336" on="1"/>
        <pt x="583" y="320" on="1"/>
        <pt x="583" y="300" on="0"/>
        <pt x="576" y="218" on="0"/>
        <pt x="569" y="155" on="1"/>
        <pt x="569" y="150" on="0"/>
        <pt x="555" y="106" on="1"/>
        <pt x="632" y="105" on="1"/>
        <pt x="654" y="105" on="0"/>
        <pt x="698" y="111" on="0"/>
        <pt x="735" y="124" on="0"/>
        <pt x="762" y="144" on="0"/>
        <pt x="768" y="157" on="1"/>
        <pt x="776" y="176" on="1"/>
        <pt x="785" y="197" on="0"/>
        <pt x="812" y="197" on="1"/>
        <pt x="812" y="177" on="0"/>
        <pt x="798" y="133" on="1"/>
        <pt x="772" y="55" on="0"/>
        <pt x="761" y="55" on="1"/>
        <pt x="750" y="55" on="0"/>
        <pt x="729" y="73" on="0"/>
      </contour>
      <contour>
        <pt x="306" y="601" on="1"/>
        <pt x="285" y="601" on="0"/>
        <pt x="253" y="563" on="0"/>
        <pt x="230" y="499" on="0"/>
        <pt x="216" y="414" on="0"/>
        <pt x="212" y="366" on="1"/>
        <pt x="208" y="318" on="1"/>
        <pt x="202" y="256" on="1"/>
        <pt x="205" y="209" on="0"/>
        <pt x="210" y="166" on="0"/>
        <pt x="215" y="122" on="1"/>
        <pt x="229" y="99" on="1"/>
        <pt x="244" y="72" on="1"/>
        <pt x="258" y="56" on="1"/>
        <pt x="371" y="56" on="1"/>
        <pt x="386" y="69" on="0"/>
        <pt x="399" y="87" on="0"/>
        <pt x="414" y="108" on="1"/>
        <pt x="431" y="140" on="0"/>
        <pt x="443" y="247" on="0"/>
        <pt x="443" y="310" on="1"/>
        <pt x="443" y="382" on="0"/>
        <pt x="414" y="491" on="0"/>
        <pt x="385" y="532" on="1"/>
        <pt x="366" y="558" on="0"/>
        <pt x="329" y="601" on="0"/>
      </contour>
    </TTGlyph>
    <TTGlyph name="Oacute" xMin="39" yMin="-29" xMax="739" yMax="815">
      <component glyphName="O" x="0" y="0" flags="0x204"/>
      <component glyphName="acute" x="279" y="46" flags="0x4"/>
    </TTGlyph>
    <TTGlyph name="Ocircumflex" xMin="39" yMin="-29" xMax="739" yMax="834">
      <component glyphName="O" x="0" y="0" flags="0x204"/>
      <component glyphName="circumflex" x="171" y="46" flags="0x4"/>
    </TTGlyph>
    <TTGlyph name="Odieresis" xMin="39" yMin="-29" xMax="739" yMax="827">
      <component glyphName="O" x="0" y="0" flags="0x204"/>
      <component glyphName="dieresis" x="103" y="29" flags="0x4"/>
    </TTGlyph>
    <TTGlyph name="Ograve" xMin="39" yMin="-29" xMax="739" yMax="816">
      <component glyphName="O" x="0" y="0" flags="0x204"/>
      <component glyphName="grave" x="234" y="46" flags="0x4"/>
    </TTGlyph>
    <TTGlyph name="Oslash" xMin="-15" yMin="12" xMax="837" yMax="701">
      <contour>
        <pt x="837" y="633" on="1"/>
        <pt x="835" y="621" on="1"/>
        <pt x="711" y="521" on="1"/>
        <pt x="711" y="489" on="0"/>
        <pt x="719" y="429" on="0"/>
        <pt x="719" y="410" on="1"/>
        <pt x="718" y="348" on="1"/>
        <pt x="718" y="341" on="1"/>
        <pt x="668" y="179" on="1"/>
        <pt x="667" y="174" on="0"/>
        <pt x="652" y="153" on="1"/>
        <pt x="631" y="122" on="1"/>
        <pt x="611" y="93" on="0"/>
        <pt x="559" y="51" on="0"/>
        <pt x="503" y="24" on="0"/>
        <pt x="448" y="12" on="0"/>
        <pt x="426" y="12" on="1"/>
        <pt x="328" y="12" on="0"/>
        <pt x="177" y="65" on="0"/>
        <pt x="142" y="118" on="1"/>
        <pt x="18" y="12" on="1"/>
        <pt x="7" y="12" on="1"/>
        <pt x="-7" y="12" on="0"/>
        <pt x="-15" y="19" on="0"/>
        <pt x="-15" y="33" on="1"/>
        <pt x="-15" y="44" on="1"/>
        <pt x="110" y="162" on="1"/>
        <pt x="111" y="171" on="1"/>
        <pt x="111" y="189" on="0"/>
        <pt x="101" y="228" on="0"/>
        <pt x="89" y="269" on="0"/>
        <pt x="84" y="302" on="0"/>
        <pt x="84" y="310" on="1"/>
        <pt x="84" y="376" on="0"/>
        <pt x="98" y="409" on="1"/>
        <pt x="178" y="589" on="1"/>
        <pt x="190" y="609" on="0"/>
        <pt x="239" y="649" on="0"/>
        <pt x="300" y="681" on="0"/>
        <pt x="365" y="701" on="0"/>
        <pt x="393" y="701" on="1"/>
        <pt x="411" y="701" on="0"/>
        <pt x="411" y="692" on="1"/>
        <pt x="409" y="671" on="1"/>
        <pt x="503" y="677" on="1"/>
        <pt x="532" y="676" on="1"/>
        <pt x="574" y="668" on="0"/>
        <pt x="618" y="645" on="1"/>
        <pt x="687" y="564" on="1"/>
        <pt x="811" y="657" on="1"/>
        <pt x="819" y="658" on="1"/>
        <pt x="833" y="658" on="0"/>
        <pt x="837" y="646" on="0"/>
      </contour>
      <contour>
        <pt x="401" y="48" on="1"/>
        <pt x="426" y="49" on="1"/>
        <pt x="456" y="49" on="0"/>
        <pt x="509" y="70" on="0"/>
        <pt x="564" y="106" on="0"/>
        <pt x="609" y="151" on="0"/>
        <pt x="618" y="174" on="1"/>
        <pt x="675" y="322" on="1"/>
        <pt x="675" y="485" on="1"/>
        <pt x="663" y="485" on="0"/>
        <pt x="656" y="478" on="1"/>
        <pt x="284" y="174" on="1"/>
        <pt x="334" y="74" on="1"/>
        <pt x="346" y="48" on="0"/>
      </contour>
      <contour>
        <pt x="472" y="633" on="1"/>
        <pt x="435" y="627" on="0"/>
        <pt x="408" y="613" on="0"/>
        <pt x="387" y="593" on="0"/>
        <pt x="377" y="580" on="1"/>
        <pt x="354" y="554" on="1"/>
        <pt x="327" y="522" on="1"/>
        <pt x="265" y="291" on="1"/>
        <pt x="265" y="224" on="1"/>
        <pt x="650" y="533" on="1"/>
        <pt x="651" y="539" on="1"/>
        <pt x="651" y="546" on="0"/>
        <pt x="636" y="568" on="0"/>
        <pt x="617" y="587" on="0"/>
        <pt x="601" y="602" on="0"/>
        <pt x="600" y="602" on="1"/>
        <pt x="507" y="632" on="1"/>
      </contour>
    </TTGlyph>
    <TTGlyph name="Otilde" xMin="39" yMin="-29" xMax="739" yMax="856">
      <component glyphName="O" x="0" y="0" flags="0x204"/>
      <component glyphName="tilde" x="79" y="29" flags="0x4"/>
    </TTGlyph>
    <TTGlyph name="P" xMin="22" yMin="-12" xMax="629" yMax="682">
      <contour>
        <pt x="73" y="-12" on="1"/>
        <pt x="61" y="-12" on="0"/>
        <pt x="61" y="7" on="1"/>
        <pt x="61" y="26" on="0"/>
        <pt x="80" y="26" on="1"/>
        <pt x="137" y="21" on="1"/>
        <pt x="137" y="357" on="1"/>
        <pt x="105" y="353" on="1"/>
        <pt x="85" y="353" on="0"/>
        <pt x="85" y="372" on="1"/>
        <pt x="85" y="376" on="0"/>
        <pt x="99" y="382" on="0"/>
        <pt x="117" y="387" on="0"/>
        <pt x="132" y="390" on="0"/>
        <pt x="133" y="390" on="1"/>
        <pt x="133" y="447" on="0"/>
        <pt x="125" y="540" on="0"/>
        <pt x="110" y="606" on="0"/>
        <pt x="87" y="643" on="0"/>
        <pt x="72" y="643" on="1"/>
        <pt x="43" y="641" on="1"/>
        <pt x="32" y="640" on="0"/>
        <pt x="22" y="651" on="0"/>
        <pt x="22" y="660" on="1"/>
        <pt x="22" y="670" on="0"/>
        <pt x="36" y="679" on="0"/>
        <pt x="77" y="681" on="0"/>
        <pt x="110" y="682" on="0"/>
        <pt x="119" y="682" on="1"/>
        <pt x="207" y="682" on="1"/>
        <pt x="300" y="682" on="0"/>
        <pt x="455" y="659" on="0"/>
        <pt x="567" y="609" on="0"/>
        <pt x="629" y="533" on="0"/>
        <pt x="629" y="479" on="1"/>
        <pt x="629" y="424" on="0"/>
        <pt x="584" y="348" on="0"/>
        <pt x="502" y="298" on="0"/>
        <pt x="384" y="278" on="0"/>
        <pt x="313" y="278" on="1"/>
        <pt x="313" y="38" on="1"/>
        <pt x="325" y="26" on="1"/>
        <pt x="343" y="27" on="1"/>
        <pt x="369" y="27" on="1"/>
        <pt x="392" y="27" on="0"/>
        <pt x="418" y="25" on="0"/>
        <pt x="434" y="20" on="0"/>
        <pt x="444" y="10" on="0"/>
        <pt x="451" y="1" on="1"/>
        <pt x="438" y="-12" on="1"/>
      </contour>
      <contour>
        <pt x="372" y="324" on="1"/>
        <pt x="412" y="325" on="1"/>
        <pt x="455" y="326" on="0"/>
        <pt x="497" y="398" on="0"/>
        <pt x="497" y="458" on="1"/>
        <pt x="497" y="506" on="0"/>
        <pt x="484" y="568" on="0"/>
        <pt x="453" y="605" on="0"/>
        <pt x="402" y="629" on="0"/>
        <pt x="365" y="635" on="1"/>
        <pt x="342" y="639" on="0"/>
        <pt x="302" y="643" on="0"/>
        <pt x="286" y="643" on="1"/>
        <pt x="286" y="627" on="1"/>
        <pt x="286" y="555" on="0"/>
        <pt x="295" y="435" on="0"/>
        <pt x="303" y="386" on="1"/>
        <pt x="309" y="362" on="0"/>
        <pt x="315" y="337" on="0"/>
        <pt x="327" y="327" on="0"/>
        <pt x="349" y="325" on="0"/>
      </contour>
    </TTGlyph>
    <TTGlyph name="Q" xMin="11" yMin="-81" xMax="829" yMax="725">
      <contour>
        <pt x="448" y="679" on="1"/>
        <pt x="480" y="680" on="1"/>
        <pt x="517" y="681" on="0"/>
        <pt x="599" y="645" on="0"/>
        <pt x="647" y="610" on="1"/>
        <pt x="689" y="579" on="0"/>
        <pt x="722" y="463" on="0"/>
        <pt x="722" y="375" on="1"/>
        <pt x="722" y="336" on="0"/>
        <pt x="708" y="241" on="0"/>
        <pt x="684" y="150" on="0"/>
        <pt x="652" y="72" on="0"/>
        <pt x="635" y="50" on="1"/>
        <pt x="627" y="45" on="0"/>
        <pt x="627" y="37" on="1"/>
        <pt x="627" y="26" on="0"/>
        <pt x="650" y="0" on="0"/>
        <pt x="681" y="-24" on="0"/>
        <pt x="709" y="-42" on="0"/>
        <pt x="724" y="-42" on="1"/>
        <pt x="743" y="-42" on="0"/>
        <pt x="768" y="-26" on="0"/>
        <pt x="783" y="-2" on="0"/>
        <pt x="789" y="24" on="0"/>
        <pt x="789" y="35" on="1"/>
        <pt x="789" y="44" on="0"/>
        <pt x="779" y="65" on="0"/>
        <pt x="756" y="95" on="0"/>
        <pt x="756" y="108" on="1"/>
        <pt x="760" y="123" on="0"/>
        <pt x="772" y="123" on="1"/>
        <pt x="785" y="123" on="0"/>
        <pt x="807" y="103" on="0"/>
        <pt x="821" y="74" on="0"/>
        <pt x="829" y="42" on="0"/>
        <pt x="829" y="29" on="1"/>
        <pt x="829" y="5" on="0"/>
        <pt x="812" y="-35" on="0"/>
        <pt x="782" y="-64" on="0"/>
        <pt x="742" y="-81" on="0"/>
        <pt x="716" y="-81" on="1"/>
        <pt x="687" y="-81" on="0"/>
        <pt x="642" y="-53" on="0"/>
        <pt x="622" y="-37" on="1"/>
        <pt x="572" y="2" on="1"/>
        <pt x="567" y="2" on="1"/>
        <pt x="401" y="-60" on="0"/>
        <pt x="364" y="-60" on="1"/>
        <pt x="320" y="-60" on="0"/>
        <pt x="231" y="-21" on="0"/>
        <pt x="151" y="44" on="0"/>
        <pt x="89" y="128" on="0"/>
        <pt x="74" y="174" on="1"/>
        <pt x="58" y="219" on="0"/>
        <pt x="58" y="278" on="1"/>
        <pt x="58" y="285" on="0"/>
        <pt x="59" y="300" on="0"/>
        <pt x="60" y="308" on="1"/>
        <pt x="56" y="309" on="0"/>
        <pt x="40" y="315" on="0"/>
        <pt x="23" y="323" on="0"/>
        <pt x="11" y="333" on="0"/>
        <pt x="11" y="338" on="1"/>
        <pt x="11" y="352" on="0"/>
        <pt x="49" y="362" on="0"/>
        <pt x="67" y="362" on="1"/>
        <pt x="78" y="427" on="0"/>
        <pt x="133" y="557" on="0"/>
        <pt x="207" y="660" on="0"/>
        <pt x="294" y="725" on="0"/>
        <pt x="338" y="725" on="1"/>
        <pt x="348" y="725" on="0"/>
        <pt x="376" y="722" on="0"/>
        <pt x="403" y="714" on="0"/>
        <pt x="426" y="702" on="0"/>
        <pt x="432" y="689" on="1"/>
        <pt x="436" y="679" on="0"/>
      </contour>
      <contour>
        <pt x="256" y="275" on="1"/>
        <pt x="256" y="246" on="0"/>
        <pt x="259" y="173" on="0"/>
        <pt x="270" y="102" on="0"/>
        <pt x="294" y="39" on="0"/>
        <pt x="315" y="20" on="1"/>
        <pt x="364" y="-14" on="0"/>
        <pt x="389" y="-19" on="1"/>
        <pt x="421" y="-19" on="0"/>
        <pt x="476" y="-2" on="0"/>
        <pt x="521" y="21" on="0"/>
        <pt x="537" y="35" on="0"/>
        <pt x="539" y="42" on="1"/>
        <pt x="537" y="60" on="0"/>
        <pt x="515" y="84" on="0"/>
        <pt x="485" y="108" on="0"/>
        <pt x="456" y="124" on="0"/>
        <pt x="450" y="124" on="1"/>
        <pt x="443" y="124" on="0"/>
        <pt x="427" y="115" on="0"/>
        <pt x="413" y="101" on="0"/>
        <pt x="398" y="94" on="0"/>
        <pt x="392" y="94" on="1"/>
        <pt x="381" y="94" on="0"/>
        <pt x="368" y="113" on="0"/>
        <pt x="368" y="124" on="1"/>
        <pt x="368" y="147" on="0"/>
        <pt x="412" y="173" on="0"/>
        <pt x="436" y="173" on="1"/>
        <pt x="463" y="173" on="0"/>
        <pt x="504" y="156" on="0"/>
        <pt x="538" y="129" on="0"/>
        <pt x="570" y="94" on="0"/>
        <pt x="590" y="76" on="1"/>
        <pt x="626" y="76" on="0"/>
        <pt x="666" y="260" on="1"/>
        <pt x="680" y="324" on="0"/>
        <pt x="680" y="341" on="1"/>
        <pt x="680" y="490" on="0"/>
        <pt x="584" y="624" on="0"/>
        <pt x="481" y="624" on="1"/>
        <pt x="436" y="624" on="0"/>
        <pt x="354" y="570" on="0"/>
        <pt x="293" y="475" on="0"/>
        <pt x="256" y="348" on="0"/>
      </contour>
    </TTGlyph>
    <TTGlyph name="R" xMin="26" yMin="-42" xMax="765" yMax="661">
      <contour>
        <pt x="614" y="67" on="1"/>
        <pt x="615" y="96" on="1"/>
        <pt x="615" y="153" on="0"/>
        <pt x="572" y="216" on="0"/>
        <pt x="530" y="232" on="1"/>
        <pt x="517" y="237" on="0"/>
        <pt x="507" y="237" on="1"/>
        <pt x="459" y="227" on="0"/>
        <pt x="443" y="222" on="1"/>
        <pt x="412" y="213" on="1"/>
        <pt x="406" y="207" on="1"/>
        <pt x="418" y="21" on="1"/>
        <pt x="449" y="21" on="1"/>
        <pt x="467" y="21" on="0"/>
        <pt x="499" y="18" on="0"/>
        <pt x="499" y="4" on="1"/>
        <pt x="499" y="-24" on="0"/>
        <pt x="433" y="-24" on="1"/>
        <pt x="367" y="-24" on="0"/>
        <pt x="233" y="-9" on="0"/>
        <pt x="164" y="-9" on="1"/>
        <pt x="133" y="-10" on="1"/>
        <pt x="120" y="-4" on="0"/>
        <pt x="120" y="10" on="1"/>
        <pt x="120" y="23" on="0"/>
        <pt x="143" y="33" on="0"/>
        <pt x="174" y="33" on="0"/>
        <pt x="205" y="34" on="0"/>
        <pt x="213" y="39" on="1"/>
        <pt x="214" y="77" on="1"/>
        <pt x="214" y="211" on="0"/>
        <pt x="202" y="460" on="0"/>
        <pt x="189" y="579" on="1"/>
        <pt x="183" y="597" on="1"/>
        <pt x="180" y="598" on="1"/>
        <pt x="160" y="598" on="0"/>
        <pt x="112" y="536" on="1"/>
        <pt x="88" y="502" on="1"/>
        <pt x="77" y="487" on="0"/>
        <pt x="71" y="439" on="0"/>
        <pt x="71" y="410" on="1"/>
        <pt x="71" y="382" on="0"/>
        <pt x="77" y="344" on="0"/>
        <pt x="89" y="315" on="0"/>
        <pt x="110" y="288" on="0"/>
        <pt x="128" y="272" on="1"/>
        <pt x="128" y="259" on="0"/>
        <pt x="102" y="250" on="1"/>
        <pt x="86" y="250" on="0"/>
        <pt x="57" y="277" on="0"/>
        <pt x="38" y="322" on="0"/>
        <pt x="26" y="382" on="0"/>
        <pt x="26" y="415" on="1"/>
        <pt x="26" y="443" on="0"/>
        <pt x="40" y="504" on="0"/>
        <pt x="68" y="561" on="0"/>
        <pt x="110" y="611" on="0"/>
        <pt x="139" y="629" on="1"/>
        <pt x="205" y="661" on="0"/>
        <pt x="295" y="661" on="1"/>
        <pt x="369" y="661" on="0"/>
        <pt x="499" y="635" on="0"/>
        <pt x="591" y="578" on="0"/>
        <pt x="647" y="485" on="0"/>
        <pt x="647" y="414" on="1"/>
        <pt x="644" y="392" on="1"/>
        <pt x="641" y="374" on="1"/>
        <pt x="573" y="269" on="1"/>
        <pt x="573" y="262" on="1"/>
        <pt x="667" y="228" on="0"/>
        <pt x="667" y="62" on="1"/>
        <pt x="666" y="27" on="1"/>
        <pt x="687" y="7" on="1"/>
        <pt x="702" y="24" on="0"/>
        <pt x="719" y="38" on="0"/>
        <pt x="739" y="50" on="0"/>
        <pt x="750" y="53" on="0"/>
        <pt x="755" y="53" on="1"/>
        <pt x="760" y="53" on="0"/>
        <pt x="765" y="49" on="0"/>
        <pt x="765" y="41" on="1"/>
        <pt x="765" y="28" on="0"/>
        <pt x="754" y="-1" on="0"/>
        <pt x="735" y="-26" on="0"/>
        <pt x="710" y="-42" on="0"/>
        <pt x="696" y="-42" on="1"/>
        <pt x="679" y="-42" on="0"/>
        <pt x="658" y="-30" on="0"/>
        <pt x="640" y="-16" on="1"/>
        <pt x="623" y="-2" on="0"/>
        <pt x="614" y="41" on="0"/>
      </contour>
      <contour>
        <pt x="380" y="616" on="1"/>
        <pt x="381" y="597" on="1"/>
        <pt x="387" y="519" on="0"/>
        <pt x="393" y="359" on="0"/>
        <pt x="406" y="281" on="1"/>
        <pt x="409" y="274" on="0"/>
        <pt x="418" y="274" on="1"/>
        <pt x="563" y="274" on="0"/>
        <pt x="604" y="405" on="1"/>
        <pt x="604" y="475" on="0"/>
        <pt x="544" y="564" on="0"/>
        <pt x="482" y="584" on="1"/>
        <pt x="446" y="599" on="1"/>
        <pt x="425" y="607" on="0"/>
        <pt x="400" y="616" on="1"/>
      </contour>
    </TTGlyph>
    <TTGlyph name="S" xMin="43" yMin="-40" xMax="571" yMax="675">
      <contour>
        <pt x="571" y="478" on="1"/>
        <pt x="571" y="462" on="0"/>
        <pt x="534" y="462" on="1"/>
        <pt x="527" y="462" on="0"/>
        <pt x="514" y="474" on="1"/>
        <pt x="434" y="546" on="1"/>
        <pt x="411" y="567" on="0"/>
        <pt x="364" y="598" on="0"/>
        <pt x="324" y="620" on="0"/>
        <pt x="293" y="631" on="0"/>
        <pt x="286" y="631" on="1"/>
        <pt x="226" y="631" on="0"/>
        <pt x="153" y="586" on="0"/>
        <pt x="153" y="548" on="1"/>
        <pt x="153" y="506" on="0"/>
        <pt x="270" y="427" on="0"/>
        <pt x="392" y="385" on="1"/>
        <pt x="413" y="414" on="1"/>
        <pt x="423" y="428" on="0"/>
        <pt x="436" y="438" on="0"/>
        <pt x="440" y="438" on="1"/>
        <pt x="445" y="438" on="0"/>
        <pt x="454" y="425" on="0"/>
        <pt x="454" y="421" on="1"/>
        <pt x="454" y="416" on="0"/>
        <pt x="449" y="405" on="0"/>
        <pt x="445" y="398" on="1"/>
        <pt x="433" y="374" on="1"/>
        <pt x="473" y="346" on="0"/>
        <pt x="524" y="300" on="0"/>
        <pt x="552" y="254" on="0"/>
        <pt x="563" y="204" on="0"/>
        <pt x="563" y="171" on="1"/>
        <pt x="563" y="127" on="0"/>
        <pt x="523" y="50" on="0"/>
        <pt x="454" y="-7" on="0"/>
        <pt x="359" y="-40" on="0"/>
        <pt x="304" y="-40" on="1"/>
        <pt x="276" y="-40" on="0"/>
        <pt x="219" y="-31" on="0"/>
        <pt x="167" y="-12" on="0"/>
        <pt x="122" y="19" on="0"/>
        <pt x="103" y="42" on="1"/>
        <pt x="93" y="37" on="1"/>
        <pt x="79" y="-33" on="1"/>
        <pt x="78" y="-40" on="0"/>
        <pt x="67" y="-40" on="1"/>
        <pt x="57" y="-40" on="0"/>
        <pt x="50" y="-35" on="0"/>
        <pt x="45" y="-27" on="1"/>
        <pt x="44" y="13" on="1"/>
        <pt x="43" y="37" on="0"/>
        <pt x="49" y="107" on="0"/>
        <pt x="52" y="153" on="1"/>
        <pt x="57" y="167" on="0"/>
        <pt x="74" y="167" on="1"/>
        <pt x="91" y="167" on="0"/>
        <pt x="115" y="136" on="0"/>
        <pt x="126" y="115" on="1"/>
        <pt x="148" y="73" on="1"/>
        <pt x="153" y="63" on="0"/>
        <pt x="162" y="49" on="0"/>
        <pt x="175" y="38" on="0"/>
        <pt x="197" y="27" on="0"/>
        <pt x="214" y="20" on="1"/>
        <pt x="247" y="7" on="0"/>
        <pt x="301" y="-7" on="0"/>
        <pt x="324" y="-7" on="1"/>
        <pt x="375" y="-7" on="0"/>
        <pt x="441" y="59" on="0"/>
        <pt x="441" y="113" on="1"/>
        <pt x="441" y="129" on="0"/>
        <pt x="410" y="169" on="0"/>
        <pt x="364" y="204" on="0"/>
        <pt x="313" y="228" on="0"/>
        <pt x="294" y="228" on="1"/>
        <pt x="290" y="228" on="0"/>
        <pt x="274" y="220" on="0"/>
        <pt x="259" y="210" on="0"/>
        <pt x="246" y="205" on="0"/>
        <pt x="245" y="205" on="1"/>
        <pt x="246" y="221" on="1"/>
        <pt x="246" y="236" on="0"/>
        <pt x="242" y="243" on="1"/>
        <pt x="180" y="274" on="0"/>
        <pt x="112" y="322" on="0"/>
        <pt x="78" y="369" on="0"/>
        <pt x="71" y="419" on="0"/>
        <pt x="71" y="452" on="1"/>
        <pt x="71" y="555" on="0"/>
        <pt x="162" y="674" on="0"/>
        <pt x="254" y="675" on="1"/>
        <pt x="288" y="675" on="0"/>
        <pt x="334" y="669" on="0"/>
        <pt x="374" y="654" on="0"/>
        <pt x="420" y="626" on="0"/>
        <pt x="454" y="605" on="1"/>
        <pt x="462" y="605" on="1"/>
        <pt x="515" y="668" on="1"/>
        <pt x="527" y="669" on="1"/>
        <pt x="551" y="669" on="0"/>
        <pt x="556" y="655" on="1"/>
        <pt x="571" y="529" on="0"/>
      </contour>
    </TTGlyph>
    <TTGlyph name="Scaron" xMin="43" yMin="-40" xMax="571" yMax="894">
      <component glyphName="S" x="0" y="0" flags="0x204"/>
      <component glyphName="caron" x="108" y="73" flags="0x4"/>
    </TTGlyph>
    <TTGlyph name="T" xMin="3" yMin="-18" xMax="699" yMax="691">
      <contour>
        <pt x="161" y="-18" on="1"/>
        <pt x="148" y="-18" on="0"/>
        <pt x="148" y="4" on="1"/>
        <pt x="148" y="10" on="0"/>
        <pt x="152" y="20" on="0"/>
        <pt x="161" y="20" on="1"/>
        <pt x="236" y="20" on="1"/>
        <pt x="238" y="47" on="0"/>
        <pt x="248" y="132" on="0"/>
        <pt x="255" y="228" on="0"/>
        <pt x="260" y="324" on="0"/>
        <pt x="260" y="361" on="1"/>
        <pt x="260" y="604" on="1"/>
        <pt x="199" y="595" on="1"/>
        <pt x="34" y="489" on="1"/>
        <pt x="30" y="480" on="1"/>
        <pt x="19" y="480" on="0"/>
        <pt x="3" y="500" on="0"/>
        <pt x="3" y="511" on="1"/>
        <pt x="70" y="687" on="1"/>
        <pt x="183" y="652" on="1"/>
        <pt x="197" y="648" on="0"/>
        <pt x="238" y="642" on="0"/>
        <pt x="266" y="643" on="1"/>
        <pt x="343" y="645" on="1"/>
        <pt x="440" y="644" on="1"/>
        <pt x="481" y="645" on="0"/>
        <pt x="553" y="658" on="0"/>
        <pt x="575" y="674" on="1"/>
        <pt x="586" y="683" on="1"/>
        <pt x="597" y="691" on="0"/>
        <pt x="612" y="691" on="1"/>
        <pt x="624" y="691" on="0"/>
        <pt x="629" y="685" on="1"/>
        <pt x="699" y="544" on="1"/>
        <pt x="678" y="523" on="1"/>
        <pt x="562" y="572" on="1"/>
        <pt x="479" y="604" on="1"/>
        <pt x="468" y="604" on="0"/>
        <pt x="453" y="595" on="0"/>
        <pt x="444" y="562" on="0"/>
        <pt x="440" y="494" on="0"/>
        <pt x="440" y="436" on="1"/>
        <pt x="434" y="168" on="1"/>
        <pt x="434" y="127" on="0"/>
        <pt x="436" y="70" on="0"/>
        <pt x="441" y="36" on="0"/>
        <pt x="449" y="21" on="0"/>
        <pt x="454" y="21" on="1"/>
        <pt x="510" y="26" on="1"/>
        <pt x="521" y="26" on="0"/>
        <pt x="540" y="24" on="0"/>
        <pt x="540" y="14" on="1"/>
        <pt x="540" y="-13" on="0"/>
        <pt x="527" y="-14" on="1"/>
        <pt x="465" y="-18" on="1"/>
      </contour>
    </TTGlyph>
    <TTGlyph name="Thorn" xMin="22" yMin="-19" xMax="690" yMax="682">
      <contour>
        <pt x="392" y="34" on="1"/>
        <pt x="398" y="34" on="0"/>
        <pt x="398" y="18" on="1"/>
        <pt x="398" y="7" on="1"/>
        <pt x="398" y="-5" on="0"/>
        <pt x="392" y="-6" on="1"/>
        <pt x="329" y="-19" on="1"/>
        <pt x="94" y="-19" on="1"/>
        <pt x="84" y="-19" on="0"/>
        <pt x="75" y="-2" on="0"/>
        <pt x="75" y="6" on="1"/>
        <pt x="75" y="28" on="0"/>
        <pt x="87" y="28" on="1"/>
        <pt x="162" y="28" on="1"/>
        <pt x="162" y="148" on="1"/>
        <pt x="76" y="148" on="1"/>
        <pt x="70" y="148" on="0"/>
        <pt x="59" y="156" on="0"/>
        <pt x="44" y="170" on="0"/>
        <pt x="44" y="177" on="1"/>
        <pt x="44" y="185" on="0"/>
        <pt x="63" y="192" on="1"/>
        <pt x="100" y="191" on="1"/>
        <pt x="136" y="191" on="0"/>
        <pt x="159" y="202" on="0"/>
        <pt x="158" y="216" on="1"/>
        <pt x="156" y="248" on="1"/>
        <pt x="156" y="333" on="0"/>
        <pt x="148" y="427" on="0"/>
        <pt x="144" y="428" on="1"/>
        <pt x="109" y="430" on="1"/>
        <pt x="99" y="429" on="1"/>
        <pt x="62" y="429" on="0"/>
        <pt x="22" y="452" on="0"/>
        <pt x="22" y="479" on="1"/>
        <pt x="52" y="479" on="0"/>
        <pt x="112" y="471" on="0"/>
        <pt x="143" y="471" on="1"/>
        <pt x="144" y="502" on="1"/>
        <pt x="137" y="613" on="1"/>
        <pt x="125" y="613" on="1"/>
        <pt x="81" y="607" on="1"/>
        <pt x="73" y="607" on="0"/>
        <pt x="56" y="624" on="0"/>
        <pt x="56" y="634" on="1"/>
        <pt x="56" y="646" on="0"/>
        <pt x="74" y="654" on="0"/>
        <pt x="98" y="656" on="0"/>
        <pt x="123" y="657" on="0"/>
        <pt x="130" y="662" on="1"/>
        <pt x="136" y="667" on="0"/>
        <pt x="142" y="682" on="0"/>
        <pt x="153" y="682" on="1"/>
        <pt x="163" y="682" on="0"/>
        <pt x="182" y="670" on="0"/>
        <pt x="188" y="670" on="1"/>
        <pt x="367" y="677" on="1"/>
        <pt x="378" y="677" on="0"/>
        <pt x="385" y="666" on="0"/>
        <pt x="385" y="660" on="1"/>
        <pt x="385" y="637" on="0"/>
        <pt x="365" y="631" on="1"/>
        <pt x="348" y="626" on="1"/>
        <pt x="343" y="584" on="0"/>
        <pt x="342" y="535" on="0"/>
        <pt x="342" y="524" on="1"/>
        <pt x="342" y="514" on="0"/>
        <pt x="344" y="504" on="0"/>
        <pt x="348" y="496" on="1"/>
        <pt x="369" y="499" on="0"/>
        <pt x="403" y="499" on="1"/>
        <pt x="429" y="499" on="0"/>
        <pt x="511" y="479" on="0"/>
        <pt x="571" y="459" on="1"/>
        <pt x="625" y="441" on="0"/>
        <pt x="690" y="366" on="0"/>
        <pt x="690" y="310" on="1"/>
        <pt x="690" y="262" on="0"/>
        <pt x="647" y="189" on="0"/>
        <pt x="578" y="165" on="1"/>
        <pt x="564" y="159" on="0"/>
        <pt x="546" y="154" on="1"/>
        <pt x="360" y="143" on="1"/>
        <pt x="347" y="137" on="1"/>
        <pt x="344" y="119" on="1"/>
        <pt x="342" y="86" on="1"/>
        <pt x="344" y="34" on="1"/>
      </contour>
      <contour>
        <pt x="349" y="454" on="1"/>
        <pt x="349" y="391" on="0"/>
        <pt x="341" y="270" on="0"/>
        <pt x="341" y="207" on="1"/>
        <pt x="398" y="207" on="0"/>
        <pt x="479" y="226" on="0"/>
        <pt x="530" y="260" on="0"/>
        <pt x="553" y="308" on="0"/>
        <pt x="553" y="337" on="1"/>
        <pt x="553" y="365" on="0"/>
        <pt x="546" y="371" on="1"/>
        <pt x="478" y="434" on="1"/>
        <pt x="455" y="455" on="0"/>
        <pt x="391" y="455" on="1"/>
        <pt x="379" y="454" on="1"/>
      </contour>
    </TTGlyph>
    <TTGlyph name="U" xMin="18" yMin="-32" xMax="662" yMax="684">
      <contour>
        <pt x="628" y="684" on="1"/>
        <pt x="643" y="684" on="0"/>
        <pt x="651" y="644" on="0"/>
        <pt x="654" y="604" on="1"/>
        <pt x="658" y="558" on="1"/>
        <pt x="660" y="532" on="0"/>
        <pt x="662" y="473" on="0"/>
        <pt x="662" y="440" on="1"/>
        <pt x="662" y="371" on="0"/>
        <pt x="653" y="245" on="0"/>
        <pt x="622" y="134" on="0"/>
        <pt x="560" y="39" on="0"/>
        <pt x="506" y="0" on="1"/>
        <pt x="468" y="-15" on="0"/>
        <pt x="428" y="-25" on="0"/>
        <pt x="391" y="-32" on="1"/>
        <pt x="378" y="-32" on="0"/>
        <pt x="331" y="-26" on="0"/>
        <pt x="281" y="-16" on="0"/>
        <pt x="238" y="1" on="0"/>
        <pt x="230" y="10" on="1"/>
        <pt x="199" y="44" on="1"/>
        <pt x="182" y="62" on="0"/>
        <pt x="167" y="89" on="0"/>
        <pt x="149" y="134" on="0"/>
        <pt x="133" y="219" on="0"/>
        <pt x="119" y="296" on="1"/>
        <pt x="90" y="309" on="1"/>
        <pt x="93" y="322" on="0"/>
        <pt x="101" y="333" on="0"/>
        <pt x="115" y="340" on="1"/>
        <pt x="119" y="354" on="0"/>
        <pt x="124" y="377" on="1"/>
        <pt x="130" y="410" on="1"/>
        <pt x="124" y="479" on="1"/>
        <pt x="129" y="626" on="1"/>
        <pt x="103" y="626" on="0"/>
        <pt x="81" y="593" on="0"/>
        <pt x="75" y="574" on="1"/>
        <pt x="64" y="538" on="1"/>
        <pt x="59" y="521" on="0"/>
        <pt x="46" y="521" on="1"/>
        <pt x="33" y="521" on="0"/>
        <pt x="18" y="539" on="0"/>
        <pt x="18" y="563" on="1"/>
        <pt x="18" y="588" on="0"/>
        <pt x="43" y="632" on="0"/>
        <pt x="88" y="665" on="0"/>
        <pt x="149" y="683" on="0"/>
        <pt x="185" y="683" on="1"/>
        <pt x="298" y="676" on="1"/>
        <pt x="323" y="676" on="0"/>
        <pt x="368" y="684" on="0"/>
        <pt x="385" y="684" on="1"/>
        <pt x="402" y="683" on="0"/>
        <pt x="402" y="670" on="1"/>
        <pt x="402" y="659" on="0"/>
        <pt x="385" y="642" on="0"/>
        <pt x="361" y="631" on="0"/>
        <pt x="332" y="623" on="0"/>
        <pt x="320" y="621" on="1"/>
        <pt x="317" y="618" on="0"/>
        <pt x="311" y="590" on="0"/>
        <pt x="309" y="559" on="0"/>
        <pt x="307" y="531" on="0"/>
        <pt x="307" y="528" on="1"/>
        <pt x="310" y="335" on="1"/>
        <pt x="360" y="340" on="1"/>
        <pt x="371" y="340" on="0"/>
        <pt x="371" y="320" on="1"/>
        <pt x="371" y="300" on="0"/>
        <pt x="335" y="291" on="0"/>
        <pt x="313" y="290" on="1"/>
        <pt x="313" y="271" on="1"/>
        <pt x="351" y="19" on="1"/>
        <pt x="352" y="12" on="0"/>
        <pt x="396" y="12" on="1"/>
        <pt x="444" y="12" on="0"/>
        <pt x="519" y="54" on="0"/>
        <pt x="567" y="113" on="0"/>
        <pt x="600" y="193" on="0"/>
        <pt x="619" y="278" on="0"/>
        <pt x="626" y="361" on="0"/>
        <pt x="625" y="394" on="1"/>
        <pt x="624" y="460" on="1"/>
        <pt x="624" y="476" on="0"/>
        <pt x="619" y="514" on="0"/>
        <pt x="615" y="537" on="1"/>
        <pt x="603" y="609" on="1"/>
        <pt x="599" y="632" on="0"/>
        <pt x="599" y="659" on="1"/>
        <pt x="599" y="684" on="0"/>
      </contour>
    </TTGlyph>
    <TTGlyph name="Uacute" xMin="18" yMin="-32" xMax="662" yMax="806">
      <component glyphName="U" x="0" y="0" flags="0x204"/>
      <component glyphName="acute" x="291" y="37" flags="0x4"/>
    </TTGlyph>
    <TTGlyph name="Ucircumflex" xMin="18" yMin="-32" xMax="662" yMax="843">
      <component glyphName="U" x="0" y="0" flags="0x204"/>
      <component glyphName="circumflex" x="175" y="55" flags="0x4"/>
    </TTGlyph>
    <TTGlyph name="Udieresis" xMin="18" yMin="-32" xMax="662" yMax="835">
      <component glyphName="U" x="0" y="0" flags="0x204"/>
      <component glyphName="dieresis" x="88" y="37" flags="0x4"/>
    </TTGlyph>
    <TTGlyph name="Ugrave" xMin="18" yMin="-32" xMax="662" yMax="816">
      <component glyphName="U" x="0" y="0" flags="0x204"/>
      <component glyphName="grave" x="255" y="46" flags="0x4"/>
    </TTGlyph>
    <TTGlyph name="V" xMin="-6" yMin="-24" xMax="676" yMax="687">
      <contour>
        <pt x="635" y="635" on="1"/>
        <pt x="607" y="637" on="1"/>
        <pt x="436" y="-4" on="1"/>
        <pt x="433" y="-14" on="0"/>
        <pt x="420" y="-24" on="0"/>
        <pt x="404" y="-24" on="1"/>
        <pt x="392" y="-24" on="0"/>
        <pt x="358" y="-19" on="0"/>
        <pt x="334" y="-14" on="1"/>
        <pt x="263" y="3" on="1"/>
        <pt x="247" y="13" on="0"/>
        <pt x="245" y="28" on="1"/>
        <pt x="161" y="296" on="1"/>
        <pt x="100" y="296" on="1"/>
        <pt x="96" y="296" on="0"/>
        <pt x="93" y="305" on="0"/>
        <pt x="93" y="310" on="1"/>
        <pt x="93" y="323" on="0"/>
        <pt x="111" y="330" on="0"/>
        <pt x="132" y="332" on="0"/>
        <pt x="150" y="335" on="0"/>
        <pt x="150" y="346" on="1"/>
        <pt x="99" y="618" on="1"/>
        <pt x="1" y="618" on="1"/>
        <pt x="-6" y="618" on="0"/>
        <pt x="-6" y="632" on="1"/>
        <pt x="-6" y="648" on="0"/>
        <pt x="27" y="663" on="0"/>
        <pt x="72" y="667" on="0"/>
        <pt x="119" y="671" on="0"/>
        <pt x="133" y="673" on="1"/>
        <pt x="179" y="675" on="1"/>
        <pt x="239" y="674" on="1"/>
        <pt x="249" y="674" on="1"/>
        <pt x="261" y="667" on="0"/>
        <pt x="269" y="649" on="0"/>
        <pt x="271" y="631" on="0"/>
        <pt x="273" y="616" on="0"/>
        <pt x="279" y="612" on="1"/>
        <pt x="418" y="89" on="1"/>
        <pt x="424" y="89" on="1"/>
        <pt x="532" y="526" on="1"/>
        <pt x="534" y="538" on="0"/>
        <pt x="538" y="567" on="0"/>
        <pt x="542" y="595" on="0"/>
        <pt x="545" y="615" on="0"/>
        <pt x="545" y="619" on="1"/>
        <pt x="545" y="634" on="0"/>
        <pt x="538" y="634" on="1"/>
        <pt x="464" y="634" on="1"/>
        <pt x="457" y="634" on="0"/>
        <pt x="457" y="651" on="1"/>
        <pt x="457" y="671" on="0"/>
        <pt x="475" y="680" on="0"/>
        <pt x="500" y="682" on="1"/>
        <pt x="571" y="686" on="1"/>
        <pt x="579" y="687" on="0"/>
        <pt x="602" y="687" on="0"/>
        <pt x="630" y="685" on="0"/>
        <pt x="657" y="678" on="0"/>
        <pt x="676" y="665" on="0"/>
        <pt x="676" y="655" on="1"/>
        <pt x="676" y="635" on="0"/>
      </contour>
    </TTGlyph>
    <TTGlyph name="W" xMin="17" yMin="-26" xMax="895" yMax="657">
      <contour>
        <pt x="875" y="595" on="1"/>
        <pt x="832" y="601" on="1"/>
        <pt x="820" y="596" on="1"/>
        <pt x="689" y="0" on="1"/>
        <pt x="687" y="-10" on="0"/>
        <pt x="671" y="-26" on="0"/>
        <pt x="661" y="-26" on="1"/>
        <pt x="647" y="-26" on="0"/>
        <pt x="638" y="-12" on="0"/>
        <pt x="638" y="-4" on="1"/>
        <pt x="638" y="3" on="0"/>
        <pt x="639" y="6" on="1"/>
        <pt x="533" y="333" on="1"/>
        <pt x="527" y="335" on="1"/>
        <pt x="522" y="335" on="0"/>
        <pt x="504" y="254" on="1"/>
        <pt x="454" y="35" on="1"/>
        <pt x="468" y="29" on="0"/>
        <pt x="484" y="23" on="0"/>
        <pt x="498" y="13" on="0"/>
        <pt x="498" y="4" on="1"/>
        <pt x="498" y="-10" on="0"/>
        <pt x="494" y="-19" on="0"/>
        <pt x="476" y="-19" on="1"/>
        <pt x="467" y="-19" on="0"/>
        <pt x="425" y="-17" on="0"/>
        <pt x="370" y="-15" on="0"/>
        <pt x="307" y="-12" on="0"/>
        <pt x="250" y="-9" on="0"/>
        <pt x="204" y="-7" on="0"/>
        <pt x="193" y="-6" on="1"/>
        <pt x="180" y="1" on="0"/>
        <pt x="180" y="12" on="1"/>
        <pt x="180" y="30" on="0"/>
        <pt x="215" y="43" on="0"/>
        <pt x="231" y="43" on="1"/>
        <pt x="237" y="43" on="1"/>
        <pt x="237" y="68" on="1"/>
        <pt x="94" y="571" on="1"/>
        <pt x="87" y="577" on="1"/>
        <pt x="69" y="539" on="0"/>
        <pt x="69" y="483" on="1"/>
        <pt x="69" y="468" on="0"/>
        <pt x="76" y="439" on="0"/>
        <pt x="76" y="428" on="1"/>
        <pt x="76" y="421" on="0"/>
        <pt x="70" y="413" on="0"/>
        <pt x="57" y="413" on="1"/>
        <pt x="35" y="413" on="0"/>
        <pt x="19" y="442" on="0"/>
        <pt x="19" y="475" on="1"/>
        <pt x="17" y="539" on="0"/>
        <pt x="37" y="610" on="0"/>
        <pt x="63" y="626" on="1"/>
        <pt x="80" y="634" on="1"/>
        <pt x="127" y="656" on="0"/>
        <pt x="131" y="657" on="1"/>
        <pt x="268" y="657" on="1"/>
        <pt x="275" y="657" on="0"/>
        <pt x="299" y="644" on="0"/>
        <pt x="299" y="637" on="1"/>
        <pt x="299" y="626" on="0"/>
        <pt x="279" y="614" on="0"/>
        <pt x="279" y="605" on="1"/>
        <pt x="280" y="595" on="1"/>
        <pt x="416" y="118" on="1"/>
        <pt x="422" y="112" on="1"/>
        <pt x="447" y="173" on="1"/>
        <pt x="497" y="440" on="1"/>
        <pt x="496" y="456" on="1"/>
        <pt x="496" y="491" on="0"/>
        <pt x="516" y="559" on="0"/>
        <pt x="516" y="595" on="1"/>
        <pt x="510" y="599" on="0"/>
        <pt x="469" y="607" on="0"/>
        <pt x="454" y="607" on="1"/>
        <pt x="448" y="620" on="0"/>
        <pt x="448" y="626" on="1"/>
        <pt x="448" y="631" on="0"/>
        <pt x="455" y="644" on="0"/>
        <pt x="466" y="645" on="1"/>
        <pt x="559" y="651" on="1"/>
        <pt x="591" y="651" on="0"/>
        <pt x="591" y="625" on="1"/>
        <pt x="591" y="598" on="0"/>
        <pt x="571" y="583" on="1"/>
        <pt x="560" y="545" on="0"/>
        <pt x="546" y="486" on="0"/>
        <pt x="546" y="451" on="1"/>
        <pt x="546" y="428" on="1"/>
        <pt x="658" y="74" on="1"/>
        <pt x="664" y="68" on="1"/>
        <pt x="763" y="558" on="1"/>
        <pt x="763" y="593" on="1"/>
        <pt x="707" y="588" on="1"/>
        <pt x="699" y="588" on="0"/>
        <pt x="688" y="591" on="0"/>
        <pt x="688" y="601" on="1"/>
        <pt x="688" y="651" on="0"/>
        <pt x="791" y="651" on="1"/>
        <pt x="895" y="651" on="0"/>
        <pt x="895" y="616" on="1"/>
        <pt x="895" y="595" on="0"/>
      </contour>
    </TTGlyph>
    <TTGlyph name="X" xMin="-13" yMin="-39" xMax="788" yMax="682">
      <contour>
        <pt x="421" y="-39" on="1"/>
        <pt x="390" y="-39" on="0"/>
        <pt x="390" y="-16" on="1"/>
        <pt x="390" y="9" on="0"/>
        <pt x="440" y="17" on="1"/>
        <pt x="440" y="29" on="1"/>
        <pt x="316" y="240" on="1"/>
        <pt x="312" y="247" on="0"/>
        <pt x="305" y="247" on="1"/>
        <pt x="138" y="42" on="1"/>
        <pt x="223" y="42" on="1"/>
        <pt x="229" y="42" on="0"/>
        <pt x="236" y="22" on="0"/>
        <pt x="236" y="15" on="1"/>
        <pt x="236" y="9" on="0"/>
        <pt x="220" y="0" on="0"/>
        <pt x="194" y="-8" on="0"/>
        <pt x="161" y="-14" on="0"/>
        <pt x="144" y="-16" on="1"/>
        <pt x="96" y="-19" on="1"/>
        <pt x="73" y="-21" on="0"/>
        <pt x="44" y="-20" on="0"/>
        <pt x="37" y="-21" on="1"/>
        <pt x="6" y="-20" on="1"/>
        <pt x="1" y="-16" on="0"/>
        <pt x="-13" y="0" on="0"/>
        <pt x="-13" y="2" on="1"/>
        <pt x="-13" y="18" on="0"/>
        <pt x="12" y="29" on="0"/>
        <pt x="45" y="31" on="0"/>
        <pt x="75" y="31" on="0"/>
        <pt x="80" y="36" on="1"/>
        <pt x="283" y="296" on="1"/>
        <pt x="87" y="600" on="1"/>
        <pt x="71" y="625" on="0"/>
        <pt x="44" y="625" on="1"/>
        <pt x="26" y="625" on="0"/>
        <pt x="25" y="640" on="1"/>
        <pt x="25" y="652" on="0"/>
        <pt x="49" y="662" on="0"/>
        <pt x="55" y="662" on="1"/>
        <pt x="390" y="662" on="1"/>
        <pt x="409" y="648" on="0"/>
        <pt x="409" y="637" on="1"/>
        <pt x="409" y="632" on="0"/>
        <pt x="396" y="623" on="0"/>
        <pt x="380" y="616" on="0"/>
        <pt x="360" y="612" on="1"/>
        <pt x="459" y="438" on="1"/>
        <pt x="468" y="430" on="1"/>
        <pt x="638" y="612" on="1"/>
        <pt x="638" y="624" on="1"/>
        <pt x="604" y="624" on="1"/>
        <pt x="546" y="619" on="1"/>
        <pt x="532" y="619" on="0"/>
        <pt x="526" y="640" on="0"/>
        <pt x="526" y="646" on="1"/>
        <pt x="526" y="657" on="1"/>
        <pt x="531" y="671" on="0"/>
        <pt x="554" y="671" on="1"/>
        <pt x="586" y="674" on="1"/>
        <pt x="605" y="676" on="0"/>
        <pt x="647" y="678" on="0"/>
        <pt x="684" y="680" on="0"/>
        <pt x="714" y="681" on="0"/>
        <pt x="720" y="682" on="1"/>
        <pt x="756" y="682" on="0"/>
        <pt x="756" y="658" on="1"/>
        <pt x="756" y="650" on="0"/>
        <pt x="750" y="644" on="1"/>
        <pt x="707" y="625" on="1"/>
        <pt x="508" y="396" on="1"/>
        <pt x="490" y="383" on="1"/>
        <pt x="695" y="29" on="1"/>
        <pt x="701" y="23" on="1"/>
        <pt x="706" y="24" on="0"/>
        <pt x="725" y="25" on="0"/>
        <pt x="736" y="25" on="1"/>
        <pt x="755" y="25" on="0"/>
        <pt x="788" y="15" on="0"/>
        <pt x="788" y="-2" on="1"/>
        <pt x="788" y="-19" on="0"/>
        <pt x="781" y="-20" on="1"/>
        <pt x="704" y="-25" on="1"/>
        <pt x="694" y="-26" on="0"/>
        <pt x="677" y="-26" on="0"/>
        <pt x="670" y="-26" on="1"/>
        <pt x="590" y="-26" on="1"/>
        <pt x="585" y="-26" on="0"/>
        <pt x="573" y="-26" on="0"/>
        <pt x="568" y="-25" on="1"/>
        <pt x="457" y="-25" on="0"/>
      </contour>
    </TTGlyph>
    <TTGlyph name="Y" xMin="2" yMin="-24" xMax="739" yMax="687">
      <contour>
        <pt x="143" y="31" on="1"/>
        <pt x="137" y="69" on="1"/>
        <pt x="141" y="80" on="0"/>
        <pt x="148" y="101" on="0"/>
        <pt x="154" y="112" on="1"/>
        <pt x="177" y="152" on="1"/>
        <pt x="204" y="200" on="0"/>
        <pt x="204" y="232" on="1"/>
        <pt x="204" y="263" on="0"/>
        <pt x="189" y="276" on="0"/>
        <pt x="179" y="276" on="1"/>
        <pt x="170" y="277" on="0"/>
        <pt x="155" y="277" on="0"/>
        <pt x="155" y="286" on="1"/>
        <pt x="155" y="294" on="0"/>
        <pt x="184" y="309" on="0"/>
        <pt x="201" y="311" on="1"/>
        <pt x="188" y="334" on="0"/>
        <pt x="159" y="399" on="0"/>
        <pt x="143" y="442" on="1"/>
        <pt x="100" y="588" on="1"/>
        <pt x="100" y="603" on="1"/>
        <pt x="11" y="605" on="0"/>
        <pt x="11" y="642" on="1"/>
        <pt x="11" y="646" on="1"/>
        <pt x="12" y="662" on="1"/>
        <pt x="158" y="676" on="1"/>
        <pt x="218" y="676" on="0"/>
        <pt x="218" y="638" on="1"/>
        <pt x="217" y="631" on="1"/>
        <pt x="157" y="602" on="1"/>
        <pt x="157" y="597" on="1"/>
        <pt x="158" y="588" on="0"/>
        <pt x="169" y="537" on="0"/>
        <pt x="186" y="477" on="0"/>
        <pt x="203" y="419" on="0"/>
        <pt x="208" y="404" on="1"/>
        <pt x="233" y="325" on="0"/>
        <pt x="246" y="325" on="1"/>
        <pt x="260" y="325" on="1"/>
        <pt x="404" y="609" on="1"/>
        <pt x="402" y="617" on="0"/>
        <pt x="402" y="637" on="1"/>
        <pt x="402" y="660" on="0"/>
        <pt x="413" y="683" on="0"/>
        <pt x="432" y="683" on="1"/>
        <pt x="514" y="681" on="1"/>
        <pt x="739" y="687" on="1"/>
        <pt x="739" y="664" on="0"/>
        <pt x="693" y="641" on="0"/>
        <pt x="653" y="639" on="1"/>
        <pt x="645" y="607" on="0"/>
        <pt x="608" y="580" on="1"/>
        <pt x="623" y="566" on="1"/>
        <pt x="588" y="531" on="1"/>
        <pt x="579" y="522" on="1"/>
        <pt x="579" y="508" on="1"/>
        <pt x="479" y="340" on="1"/>
        <pt x="478" y="331" on="1"/>
        <pt x="478" y="324" on="0"/>
        <pt x="487" y="319" on="0"/>
        <pt x="499" y="315" on="0"/>
        <pt x="508" y="310" on="0"/>
        <pt x="508" y="303" on="1"/>
        <pt x="508" y="290" on="0"/>
        <pt x="495" y="281" on="0"/>
        <pt x="478" y="274" on="1"/>
        <pt x="454" y="267" on="1"/>
        <pt x="440" y="262" on="0"/>
        <pt x="435" y="253" on="1"/>
        <pt x="382" y="173" on="0"/>
        <pt x="356" y="69" on="1"/>
        <pt x="352" y="56" on="0"/>
        <pt x="358" y="46" on="1"/>
        <pt x="487" y="46" on="1"/>
        <pt x="502" y="24" on="1"/>
        <pt x="476" y="-24" on="0"/>
        <pt x="2" y="-24" on="1"/>
        <pt x="2" y="7" on="0"/>
        <pt x="16" y="31" on="0"/>
        <pt x="21" y="31" on="1"/>
      </contour>
    </TTGlyph>
    <TTGlyph name="Yacute" xMin="2" yMin="-24" xMax="739" yMax="806">
      <component glyphName="Y" x="0" y="0" flags="0x204"/>
      <component glyphName="acute" x="244" y="37" flags="0x4"/>
    </TTGlyph>
    <TTGlyph name="Ydieresis" xMin="2" yMin="-24" xMax="739" yMax="818">
      <component glyphName="Y" x="0" y="0" flags="0x204"/>
      <component glyphName="dieresis" x="85" y="20" flags="0x4"/>
    </TTGlyph>
    <TTGlyph name="Z" xMin="36" yMin="-40" xMax="762" yMax="668">
      <contour>
        <pt x="719" y="79" on="1"/>
        <pt x="719" y="91" on="0"/>
        <pt x="733" y="91" on="1"/>
        <pt x="762" y="91" on="0"/>
        <pt x="762" y="63" on="1"/>
        <pt x="762" y="22" on="0"/>
        <pt x="711" y="-36" on="0"/>
        <pt x="671" y="-36" on="1"/>
        <pt x="660" y="-36" on="0"/>
        <pt x="650" y="-33" on="1"/>
        <pt x="336" y="34" on="1"/>
        <pt x="161" y="-8" on="1"/>
        <pt x="141" y="-22" on="0"/>
        <pt x="107" y="-40" on="0"/>
        <pt x="92" y="-40" on="1"/>
        <pt x="61" y="-40" on="0"/>
        <pt x="61" y="-21" on="1"/>
        <pt x="62" y="-14" on="1"/>
        <pt x="167" y="239" on="1"/>
        <pt x="192" y="274" on="0"/>
        <pt x="192" y="283" on="1"/>
        <pt x="181" y="279" on="0"/>
        <pt x="157" y="276" on="0"/>
        <pt x="146" y="276" on="1"/>
        <pt x="125" y="276" on="0"/>
        <pt x="116" y="286" on="0"/>
        <pt x="116" y="299" on="1"/>
        <pt x="116" y="308" on="0"/>
        <pt x="125" y="325" on="0"/>
        <pt x="136" y="327" on="1"/>
        <pt x="235" y="346" on="1"/>
        <pt x="415" y="593" on="1"/>
        <pt x="399" y="624" on="0"/>
        <pt x="322" y="624" on="1"/>
        <pt x="269" y="624" on="0"/>
        <pt x="182" y="607" on="0"/>
        <pt x="119" y="574" on="0"/>
        <pt x="85" y="522" on="0"/>
        <pt x="85" y="488" on="1"/>
        <pt x="86" y="477" on="0"/>
        <pt x="94" y="454" on="0"/>
        <pt x="104" y="444" on="1"/>
        <pt x="118" y="430" on="1"/>
        <pt x="124" y="421" on="0"/>
        <pt x="124" y="414" on="1"/>
        <pt x="124" y="408" on="0"/>
        <pt x="112" y="400" on="0"/>
        <pt x="103" y="400" on="1"/>
        <pt x="91" y="400" on="0"/>
        <pt x="67" y="416" on="0"/>
        <pt x="48" y="442" on="0"/>
        <pt x="36" y="475" on="0"/>
        <pt x="36" y="491" on="1"/>
        <pt x="36" y="538" on="0"/>
        <pt x="87" y="605" on="0"/>
        <pt x="168" y="647" on="0"/>
        <pt x="268" y="668" on="0"/>
        <pt x="318" y="668" on="1"/>
        <pt x="334" y="668" on="1"/>
        <pt x="538" y="624" on="1"/>
        <pt x="580" y="624" on="0"/>
        <pt x="649" y="637" on="0"/>
        <pt x="687" y="637" on="1"/>
        <pt x="712" y="637" on="1"/>
        <pt x="706" y="612" on="1"/>
        <pt x="501" y="345" on="1"/>
        <pt x="501" y="342" on="1"/>
        <pt x="501" y="333" on="0"/>
        <pt x="526" y="330" on="0"/>
        <pt x="557" y="328" on="0"/>
        <pt x="582" y="323" on="0"/>
        <pt x="582" y="312" on="1"/>
        <pt x="582" y="295" on="0"/>
        <pt x="546" y="288" on="0"/>
        <pt x="528" y="288" on="1"/>
        <pt x="493" y="288" on="1"/>
        <pt x="474" y="289" on="0"/>
        <pt x="471" y="289" on="1"/>
        <pt x="458" y="277" on="1"/>
        <pt x="364" y="83" on="1"/>
        <pt x="364" y="81" on="0"/>
        <pt x="397" y="73" on="0"/>
        <pt x="438" y="64" on="0"/>
        <pt x="466" y="59" on="0"/>
        <pt x="477" y="60" on="1"/>
        <pt x="620" y="16" on="1"/>
        <pt x="638" y="15" on="1"/>
        <pt x="721" y="15" on="0"/>
        <pt x="721" y="54" on="1"/>
      </contour>
    </TTGlyph>
    <TTGlyph name="Zcaron" xMin="36" yMin="-40" xMax="762" yMax="867">
      <component glyphName="Z" x="0" y="0" flags="0x204"/>
      <component glyphName="caron" x="197" y="46" flags="0x4"/>
    </TTGlyph>
    <TTGlyph name="a" xMin="19" yMin="-47" xMax="541" yMax="452">
      <contour>
        <pt x="335" y="312" on="1"/>
        <pt x="335" y="391" on="0"/>
        <pt x="265" y="391" on="1"/>
        <pt x="241" y="391" on="0"/>
        <pt x="218" y="364" on="0"/>
        <pt x="216" y="339" on="1"/>
        <pt x="216" y="324" on="0"/>
        <pt x="225" y="316" on="0"/>
        <pt x="225" y="306" on="1"/>
        <pt x="225" y="292" on="0"/>
        <pt x="213" y="283" on="0"/>
        <pt x="187" y="279" on="0"/>
        <pt x="148" y="278" on="0"/>
        <pt x="121" y="269" on="1"/>
        <pt x="94" y="260" on="0"/>
        <pt x="90" y="260" on="1"/>
        <pt x="81" y="260" on="0"/>
        <pt x="72" y="282" on="0"/>
        <pt x="72" y="292" on="1"/>
        <pt x="72" y="301" on="0"/>
        <pt x="87" y="333" on="0"/>
        <pt x="107" y="366" on="0"/>
        <pt x="129" y="394" on="0"/>
        <pt x="136" y="400" on="1"/>
        <pt x="166" y="423" on="0"/>
        <pt x="219" y="452" on="0"/>
        <pt x="247" y="452" on="1"/>
        <pt x="304" y="452" on="0"/>
        <pt x="384" y="428" on="0"/>
        <pt x="434" y="381" on="0"/>
        <pt x="457" y="313" on="0"/>
        <pt x="457" y="269" on="1"/>
        <pt x="457" y="242" on="0"/>
        <pt x="443" y="186" on="0"/>
        <pt x="443" y="160" on="1"/>
        <pt x="443" y="139" on="0"/>
        <pt x="452" y="98" on="0"/>
        <pt x="468" y="69" on="0"/>
        <pt x="488" y="49" on="0"/>
        <pt x="498" y="46" on="1"/>
        <pt x="504" y="46" on="0"/>
        <pt x="515" y="54" on="0"/>
        <pt x="520" y="54" on="1"/>
        <pt x="531" y="54" on="0"/>
        <pt x="541" y="41" on="0"/>
        <pt x="541" y="33" on="1"/>
        <pt x="541" y="18" on="0"/>
        <pt x="521" y="-6" on="0"/>
        <pt x="493" y="-23" on="0"/>
        <pt x="464" y="-32" on="0"/>
        <pt x="454" y="-32" on="1"/>
        <pt x="432" y="-32" on="0"/>
        <pt x="404" y="-28" on="0"/>
        <pt x="384" y="-20" on="0"/>
        <pt x="370" y="-9" on="0"/>
        <pt x="363" y="-2" on="1"/>
        <pt x="332" y="28" on="1"/>
        <pt x="326" y="35" on="0"/>
        <pt x="325" y="35" on="1"/>
        <pt x="258" y="-47" on="0"/>
        <pt x="153" y="-47" on="1"/>
        <pt x="123" y="-47" on="0"/>
        <pt x="74" y="-23" on="0"/>
        <pt x="39" y="12" on="0"/>
        <pt x="19" y="53" on="0"/>
        <pt x="19" y="71" on="1"/>
        <pt x="19" y="140" on="0"/>
        <pt x="158" y="224" on="0"/>
        <pt x="299" y="243" on="1"/>
        <pt x="309" y="244" on="0"/>
        <pt x="322" y="250" on="0"/>
        <pt x="331" y="264" on="0"/>
        <pt x="335" y="290" on="0"/>
      </contour>
      <contour>
        <pt x="196" y="153" on="1"/>
        <pt x="185" y="134" on="0"/>
        <pt x="185" y="119" on="1"/>
        <pt x="185" y="100" on="0"/>
        <pt x="188" y="63" on="0"/>
        <pt x="196" y="35" on="0"/>
        <pt x="207" y="16" on="0"/>
        <pt x="216" y="15" on="1"/>
        <pt x="233" y="15" on="0"/>
        <pt x="261" y="29" on="0"/>
        <pt x="281" y="49" on="0"/>
        <pt x="292" y="71" on="0"/>
        <pt x="293" y="79" on="1"/>
        <pt x="305" y="204" on="1"/>
        <pt x="227" y="204" on="0"/>
      </contour>
    </TTGlyph>
    <TTGlyph name="aacute" xMin="19" yMin="-47" xMax="541" yMax="657">
      <component glyphName="a" x="0" y="0" flags="0x204"/>
      <component glyphName="acute" x="150" y="-112" flags="0x4"/>
    </TTGlyph>
    <TTGlyph name="acircumflex" xMin="19" yMin="-47" xMax="541" yMax="685">
      <component glyphName="a" x="0" y="0" flags="0x204"/>
      <component glyphName="circumflex" x="69" y="-103" flags="0x4"/>
    </TTGlyph>
    <TTGlyph name="acute" xMin="11" yMin="682" xMax="232" yMax="769">
      <contour>
        <pt x="206" y="769" on="1"/>
        <pt x="216" y="769" on="0"/>
        <pt x="232" y="757" on="0"/>
        <pt x="232" y="751" on="1"/>
        <pt x="231" y="743" on="1"/>
        <pt x="39" y="682" on="1"/>
        <pt x="32" y="682" on="1"/>
        <pt x="21" y="682" on="0"/>
        <pt x="11" y="688" on="0"/>
        <pt x="11" y="700" on="1"/>
        <pt x="11" y="708" on="1"/>
        <pt x="200" y="768" on="1"/>
      </contour>
    </TTGlyph>
    <TTGlyph name="adieresis" xMin="19" yMin="-47" xMax="541" yMax="704">
      <component glyphName="a" x="0" y="0" flags="0x204"/>
      <component glyphName="dieresis" x="-5" y="-94" flags="0x4"/>
    </TTGlyph>
    <TTGlyph name="ae" xMin="30" yMin="-65" xMax="693" yMax="462">
      <contour>
        <pt x="505" y="-65" on="1"/>
        <pt x="495" y="-64" on="1"/>
        <pt x="486" y="-64" on="0"/>
        <pt x="474" y="-60" on="1"/>
        <pt x="443" y="-52" on="1"/>
        <pt x="420" y="-48" on="0"/>
        <pt x="395" y="-39" on="0"/>
        <pt x="365" y="-12" on="0"/>
        <pt x="340" y="20" on="0"/>
        <pt x="327" y="46" on="1"/>
        <pt x="315" y="38" on="0"/>
        <pt x="308" y="26" on="1"/>
        <pt x="291" y="4" on="1"/>
        <pt x="276" y="-15" on="0"/>
        <pt x="245" y="-35" on="0"/>
        <pt x="218" y="-44" on="0"/>
        <pt x="200" y="-46" on="0"/>
        <pt x="199" y="-46" on="1"/>
        <pt x="191" y="-47" on="0"/>
        <pt x="174" y="-48" on="0"/>
        <pt x="165" y="-48" on="1"/>
        <pt x="144" y="-48" on="0"/>
        <pt x="106" y="-36" on="0"/>
        <pt x="77" y="-18" on="0"/>
        <pt x="57" y="1" on="0"/>
        <pt x="53" y="8" on="1"/>
        <pt x="40" y="29" on="0"/>
        <pt x="40" y="66" on="1"/>
        <pt x="40" y="82" on="0"/>
        <pt x="42" y="102" on="0"/>
        <pt x="49" y="117" on="0"/>
        <pt x="62" y="133" on="0"/>
        <pt x="73" y="146" on="1"/>
        <pt x="78" y="157" on="0"/>
        <pt x="110" y="162" on="0"/>
        <pt x="130" y="170" on="1"/>
        <pt x="173" y="187" on="1"/>
        <pt x="187" y="193" on="0"/>
        <pt x="214" y="197" on="0"/>
        <pt x="247" y="198" on="0"/>
        <pt x="288" y="199" on="0"/>
        <pt x="315" y="202" on="1"/>
        <pt x="332" y="204" on="0"/>
        <pt x="340" y="234" on="0"/>
        <pt x="340" y="255" on="1"/>
        <pt x="340" y="346" on="1"/>
        <pt x="325" y="366" on="0"/>
        <pt x="298" y="391" on="0"/>
        <pt x="271" y="406" on="0"/>
        <pt x="241" y="414" on="0"/>
        <pt x="222" y="417" on="1"/>
        <pt x="215" y="418" on="0"/>
        <pt x="199" y="373" on="0"/>
        <pt x="190" y="314" on="0"/>
        <pt x="186" y="258" on="0"/>
        <pt x="185" y="246" on="1"/>
        <pt x="179" y="240" on="1"/>
        <pt x="127" y="234" on="1"/>
        <pt x="109" y="232" on="0"/>
        <pt x="78" y="228" on="0"/>
        <pt x="66" y="228" on="1"/>
        <pt x="30" y="228" on="0"/>
        <pt x="30" y="251" on="1"/>
        <pt x="30" y="254" on="0"/>
        <pt x="38" y="288" on="0"/>
        <pt x="48" y="329" on="0"/>
        <pt x="57" y="364" on="0"/>
        <pt x="59" y="368" on="1"/>
        <pt x="66" y="383" on="0"/>
        <pt x="85" y="417" on="0"/>
        <pt x="116" y="444" on="0"/>
        <pt x="163" y="462" on="0"/>
        <pt x="198" y="462" on="1"/>
        <pt x="206" y="462" on="0"/>
        <pt x="214" y="459" on="0"/>
        <pt x="230" y="454" on="1"/>
        <pt x="268" y="442" on="1"/>
        <pt x="305" y="430" on="0"/>
        <pt x="360" y="392" on="0"/>
        <pt x="377" y="362" on="1"/>
        <pt x="383" y="378" on="0"/>
        <pt x="410" y="406" on="0"/>
        <pt x="445" y="428" on="0"/>
        <pt x="484" y="441" on="0"/>
        <pt x="501" y="441" on="1"/>
        <pt x="507" y="441" on="0"/>
        <pt x="537" y="430" on="1"/>
        <pt x="581" y="414" on="1"/>
        <pt x="599" y="408" on="0"/>
        <pt x="625" y="396" on="0"/>
        <pt x="647" y="378" on="0"/>
        <pt x="667" y="348" on="0"/>
        <pt x="679" y="324" on="1"/>
        <pt x="684" y="314" on="0"/>
        <pt x="693" y="282" on="0"/>
        <pt x="693" y="276" on="1"/>
        <pt x="693" y="269" on="0"/>
        <pt x="681" y="236" on="0"/>
        <pt x="667" y="202" on="0"/>
        <pt x="652" y="175" on="0"/>
        <pt x="649" y="174" on="1"/>
        <pt x="606" y="174" on="1"/>
        <pt x="581" y="174" on="0"/>
        <pt x="563" y="180" on="1"/>
        <pt x="513" y="183" on="1"/>
        <pt x="482" y="184" on="0"/>
        <pt x="464" y="196" on="1"/>
        <pt x="463" y="177" on="1"/>
        <pt x="463" y="161" on="0"/>
        <pt x="470" y="142" on="0"/>
        <pt x="470" y="129" on="1"/>
        <pt x="470" y="91" on="1"/>
        <pt x="471" y="71" on="0"/>
        <pt x="483" y="32" on="0"/>
        <pt x="501" y="-1" on="0"/>
        <pt x="523" y="-21" on="0"/>
        <pt x="535" y="-21" on="1"/>
        <pt x="557" y="-21" on="0"/>
        <pt x="577" y="1" on="0"/>
        <pt x="586" y="35" on="0"/>
        <pt x="590" y="73" on="0"/>
        <pt x="594" y="107" on="0"/>
        <pt x="601" y="129" on="0"/>
        <pt x="609" y="129" on="1"/>
        <pt x="618" y="127" on="0"/>
        <pt x="633" y="120" on="1"/>
        <pt x="649" y="112" on="1"/>
        <pt x="668" y="100" on="0"/>
        <pt x="692" y="72" on="0"/>
        <pt x="693" y="70" on="1"/>
        <pt x="686" y="38" on="0"/>
        <pt x="686" y="34" on="1"/>
        <pt x="687" y="23" on="1"/>
        <pt x="687" y="8" on="0"/>
        <pt x="648" y="-24" on="0"/>
        <pt x="592" y="-51" on="0"/>
        <pt x="529" y="-65" on="0"/>
      </contour>
      <contour>
        <pt x="304" y="158" on="1"/>
        <pt x="284" y="158" on="0"/>
        <pt x="246" y="137" on="0"/>
        <pt x="214" y="104" on="0"/>
        <pt x="195" y="64" on="0"/>
        <pt x="195" y="44" on="1"/>
        <pt x="195" y="26" on="0"/>
        <pt x="207" y="2" on="0"/>
        <pt x="222" y="2" on="1"/>
        <pt x="223" y="2" on="0"/>
        <pt x="238" y="6" on="0"/>
        <pt x="262" y="25" on="0"/>
        <pt x="291" y="66" on="0"/>
        <pt x="306" y="104" on="1"/>
        <pt x="310" y="115" on="0"/>
        <pt x="316" y="133" on="0"/>
        <pt x="315" y="141" on="1"/>
        <pt x="315" y="158" on="0"/>
      </contour>
      <contour>
        <pt x="544" y="229" on="1"/>
        <pt x="549" y="260" on="0"/>
        <pt x="557" y="274" on="1"/>
        <pt x="557" y="286" on="0"/>
        <pt x="551" y="321" on="0"/>
        <pt x="540" y="352" on="0"/>
        <pt x="525" y="374" on="0"/>
        <pt x="516" y="374" on="1"/>
        <pt x="510" y="374" on="0"/>
        <pt x="507" y="368" on="1"/>
        <pt x="487" y="334" on="0"/>
        <pt x="463" y="274" on="0"/>
        <pt x="463" y="236" on="1"/>
        <pt x="463" y="222" on="0"/>
        <pt x="483" y="218" on="0"/>
        <pt x="499" y="218" on="1"/>
        <pt x="549" y="219" on="1"/>
      </contour>
    </TTGlyph>
    <TTGlyph name="agrave" xMin="19" yMin="-47" xMax="541" yMax="658">
      <component glyphName="a" x="0" y="0" flags="0x204"/>
      <component glyphName="grave" x="150" y="-112" flags="0x4"/>
    </TTGlyph>
    <TTGlyph name="ampersand" xMin="36" yMin="-4" xMax="703" yMax="679">
      <contour>
        <pt x="550" y="55" on="1"/>
        <pt x="525" y="65" on="0"/>
        <pt x="488" y="76" on="0"/>
        <pt x="477" y="78" on="1"/>
        <pt x="461" y="72" on="0"/>
        <pt x="450" y="64" on="1"/>
        <pt x="410" y="37" on="1"/>
        <pt x="383" y="23" on="1"/>
        <pt x="355" y="5" on="0"/>
        <pt x="303" y="-4" on="0"/>
        <pt x="274" y="-4" on="1"/>
        <pt x="238" y="-4" on="1"/>
        <pt x="193" y="-4" on="0"/>
        <pt x="118" y="23" on="0"/>
        <pt x="65" y="73" on="0"/>
        <pt x="36" y="144" on="0"/>
        <pt x="36" y="187" on="1"/>
        <pt x="36" y="208" on="1"/>
        <pt x="37" y="228" on="0"/>
        <pt x="53" y="258" on="0"/>
        <pt x="60" y="273" on="1"/>
        <pt x="76" y="306" on="1"/>
        <pt x="81" y="317" on="0"/>
        <pt x="93" y="334" on="0"/>
        <pt x="98" y="340" on="1"/>
        <pt x="118" y="363" on="1"/>
        <pt x="131" y="378" on="0"/>
        <pt x="142" y="392" on="0"/>
        <pt x="146" y="399" on="0"/>
        <pt x="145" y="406" on="1"/>
        <pt x="144" y="496" on="1"/>
        <pt x="145" y="522" on="0"/>
        <pt x="156" y="569" on="0"/>
        <pt x="171" y="619" on="0"/>
        <pt x="196" y="653" on="0"/>
        <pt x="210" y="662" on="1"/>
        <pt x="238" y="679" on="0"/>
        <pt x="321" y="679" on="1"/>
        <pt x="336" y="679" on="0"/>
        <pt x="358" y="675" on="0"/>
        <pt x="381" y="663" on="0"/>
        <pt x="412" y="641" on="0"/>
        <pt x="437" y="623" on="1"/>
        <pt x="463" y="603" on="0"/>
        <pt x="463" y="551" on="1"/>
        <pt x="463" y="518" on="0"/>
        <pt x="414" y="427" on="0"/>
        <pt x="366" y="379" on="1"/>
        <pt x="263" y="277" on="1"/>
        <pt x="272" y="266" on="0"/>
        <pt x="325" y="219" on="0"/>
        <pt x="389" y="178" on="0"/>
        <pt x="454" y="142" on="0"/>
        <pt x="463" y="142" on="1"/>
        <pt x="472" y="142" on="0"/>
        <pt x="512" y="174" on="0"/>
        <pt x="546" y="215" on="0"/>
        <pt x="570" y="252" on="0"/>
        <pt x="570" y="263" on="1"/>
        <pt x="571" y="354" on="1"/>
        <pt x="570" y="384" on="1"/>
        <pt x="560" y="403" on="0"/>
        <pt x="503" y="411" on="1"/>
        <pt x="503" y="437" on="1"/>
        <pt x="703" y="437" on="1"/>
        <pt x="703" y="411" on="1"/>
        <pt x="695" y="411" on="0"/>
        <pt x="674" y="407" on="0"/>
        <pt x="653" y="403" on="0"/>
        <pt x="636" y="396" on="1"/>
        <pt x="631" y="393" on="0"/>
        <pt x="621" y="353" on="0"/>
        <pt x="614" y="303" on="0"/>
        <pt x="610" y="252" on="0"/>
        <pt x="610" y="237" on="1"/>
        <pt x="596" y="224" on="1"/>
        <pt x="529" y="130" on="1"/>
        <pt x="529" y="123" on="1"/>
        <pt x="529" y="105" on="0"/>
        <pt x="567" y="93" on="0"/>
        <pt x="613" y="86" on="0"/>
        <pt x="651" y="74" on="0"/>
        <pt x="651" y="55" on="1"/>
        <pt x="651" y="37" on="0"/>
        <pt x="627" y="37" on="1"/>
        <pt x="604" y="37" on="0"/>
        <pt x="568" y="48" on="0"/>
      </contour>
      <contour>
        <pt x="240" y="66" on="1"/>
        <pt x="253" y="54" on="0"/>
        <pt x="294" y="37" on="0"/>
        <pt x="304" y="37" on="1"/>
        <pt x="329" y="42" on="1"/>
        <pt x="356" y="50" on="1"/>
        <pt x="365" y="53" on="0"/>
        <pt x="388" y="65" on="0"/>
        <pt x="425" y="89" on="0"/>
        <pt x="425" y="97" on="1"/>
        <pt x="425" y="102" on="0"/>
        <pt x="368" y="140" on="1"/>
        <pt x="304" y="182" on="1"/>
        <pt x="263" y="215" on="1"/>
        <pt x="248" y="227" on="0"/>
        <pt x="229" y="238" on="0"/>
        <pt x="225" y="238" on="1"/>
        <pt x="218" y="238" on="0"/>
        <pt x="207" y="220" on="0"/>
        <pt x="200" y="192" on="0"/>
        <pt x="196" y="158" on="0"/>
        <pt x="196" y="143" on="1"/>
        <pt x="196" y="128" on="0"/>
        <pt x="204" y="92" on="0"/>
        <pt x="217" y="82" on="1"/>
      </contour>
      <contour>
        <pt x="246" y="627" on="1"/>
        <pt x="232" y="621" on="0"/>
        <pt x="213" y="601" on="0"/>
        <pt x="201" y="571" on="0"/>
        <pt x="196" y="527" on="0"/>
        <pt x="196" y="496" on="1"/>
        <pt x="196" y="437" on="1"/>
        <pt x="249" y="472" on="1"/>
        <pt x="297" y="504" on="0"/>
        <pt x="353" y="578" on="0"/>
        <pt x="356" y="623" on="1"/>
        <pt x="345" y="634" on="0"/>
        <pt x="325" y="637" on="0"/>
        <pt x="305" y="637" on="1"/>
        <pt x="291" y="637" on="0"/>
        <pt x="259" y="633" on="0"/>
      </contour>
    </TTGlyph>
    <TTGlyph name="aring" xMin="19" yMin="-47" xMax="541" yMax="714">
      <component glyphName="a" x="0" y="0" flags="0x204"/>
      <component glyphName="ring" x="154" y="-184" flags="0x4"/>
    </TTGlyph>
    <TTGlyph name="asciicircum" xMin="12" yMin="427" xMax="391" yMax="664">
      <contour>
        <pt x="206" y="664" on="1"/>
        <pt x="241" y="656" on="0"/>
        <pt x="248" y="651" on="1"/>
        <pt x="379" y="533" on="1"/>
        <pt x="391" y="516" on="0"/>
        <pt x="391" y="508" on="1"/>
        <pt x="391" y="496" on="0"/>
        <pt x="366" y="496" on="1"/>
        <pt x="231" y="605" on="1"/>
        <pt x="220" y="608" on="1"/>
        <pt x="217" y="607" on="1"/>
        <pt x="69" y="446" on="1"/>
        <pt x="51" y="427" on="0"/>
        <pt x="35" y="427" on="1"/>
        <pt x="19" y="427" on="0"/>
        <pt x="12" y="440" on="1"/>
        <pt x="18" y="469" on="0"/>
        <pt x="43" y="495" on="0"/>
        <pt x="69" y="508" on="1"/>
        <pt x="198" y="663" on="1"/>
      </contour>
    </TTGlyph>
    <TTGlyph name="asciitilde" xMin="42" yMin="260" xMax="613" yMax="416">
      <contour>
        <pt x="64" y="260" on="1"/>
        <pt x="42" y="260" on="0"/>
        <pt x="42" y="285" on="1"/>
        <pt x="42" y="309" on="0"/>
        <pt x="60" y="326" on="1"/>
        <pt x="101" y="363" on="1"/>
        <pt x="141" y="399" on="0"/>
        <pt x="224" y="399" on="1"/>
        <pt x="260" y="397" on="1"/>
        <pt x="445" y="347" on="1"/>
        <pt x="454" y="346" on="1"/>
        <pt x="502" y="346" on="0"/>
        <pt x="563" y="378" on="0"/>
        <pt x="588" y="416" on="1"/>
        <pt x="600" y="416" on="0"/>
        <pt x="609" y="407" on="0"/>
        <pt x="613" y="397" on="1"/>
        <pt x="605" y="355" on="0"/>
        <pt x="530" y="304" on="0"/>
        <pt x="466" y="304" on="1"/>
        <pt x="452" y="304" on="1"/>
        <pt x="235" y="354" on="1"/>
        <pt x="223" y="354" on="1"/>
        <pt x="164" y="354" on="0"/>
        <pt x="122" y="307" on="1"/>
        <pt x="92" y="274" on="1"/>
        <pt x="79" y="260" on="0"/>
      </contour>
    </TTGlyph>
    <TTGlyph name="asterisk" xMin="34" yMin="440" xMax="299" yMax="692">
      <contour>
        <pt x="167" y="529" on="1"/>
        <pt x="164" y="526" on="0"/>
        <pt x="111" y="490" on="1"/>
        <pt x="104" y="490" on="1"/>
        <pt x="97" y="490" on="0"/>
        <pt x="85" y="502" on="0"/>
        <pt x="85" y="510" on="1"/>
        <pt x="85" y="521" on="0"/>
        <pt x="98" y="529" on="1"/>
        <pt x="91" y="529" on="1"/>
        <pt x="80" y="529" on="0"/>
        <pt x="64" y="515" on="0"/>
        <pt x="54" y="515" on="1"/>
        <pt x="45" y="515" on="0"/>
        <pt x="34" y="527" on="0"/>
        <pt x="34" y="535" on="1"/>
        <pt x="35" y="541" on="1"/>
        <pt x="73" y="559" on="1"/>
        <pt x="96" y="570" on="1"/>
        <pt x="107" y="575" on="0"/>
        <pt x="118" y="582" on="0"/>
        <pt x="123" y="588" on="0"/>
        <pt x="123" y="594" on="0"/>
        <pt x="123" y="599" on="1"/>
        <pt x="123" y="609" on="0"/>
        <pt x="116" y="624" on="0"/>
        <pt x="103" y="640" on="0"/>
        <pt x="95" y="659" on="0"/>
        <pt x="94" y="671" on="1"/>
        <pt x="108" y="671" on="0"/>
        <pt x="119" y="660" on="1"/>
        <pt x="133" y="642" on="1"/>
        <pt x="144" y="629" on="0"/>
        <pt x="153" y="629" on="1"/>
        <pt x="157" y="629" on="0"/>
        <pt x="163" y="633" on="0"/>
        <pt x="167" y="635" on="1"/>
        <pt x="167" y="692" on="1"/>
        <pt x="198" y="692" on="1"/>
        <pt x="198" y="629" on="1"/>
        <pt x="228" y="661" on="0"/>
        <pt x="276" y="661" on="1"/>
        <pt x="276" y="638" on="0"/>
        <pt x="262" y="616" on="1"/>
        <pt x="290" y="607" on="0"/>
        <pt x="299" y="591" on="1"/>
        <pt x="280" y="584" on="0"/>
        <pt x="237" y="572" on="0"/>
        <pt x="211" y="566" on="1"/>
        <pt x="222" y="549" on="0"/>
        <pt x="244" y="540" on="1"/>
        <pt x="267" y="529" on="0"/>
        <pt x="291" y="516" on="0"/>
        <pt x="299" y="504" on="1"/>
        <pt x="299" y="500" on="0"/>
        <pt x="289" y="490" on="0"/>
        <pt x="285" y="490" on="1"/>
        <pt x="219" y="514" on="0"/>
        <pt x="195" y="527" on="0"/>
        <pt x="192" y="529" on="1"/>
        <pt x="192" y="440" on="1"/>
        <pt x="167" y="440" on="1"/>
      </contour>
    </TTGlyph>
    <TTGlyph name="at" xMin="46" yMin="35" xMax="652" yMax="564">
      <contour>
        <pt x="484" y="249" on="1"/>
        <pt x="510" y="258" on="0"/>
        <pt x="540" y="327" on="0"/>
        <pt x="538" y="388" on="1"/>
        <pt x="537" y="438" on="1"/>
        <pt x="535" y="454" on="0"/>
        <pt x="512" y="481" on="0"/>
        <pt x="480" y="501" on="0"/>
        <pt x="442" y="513" on="0"/>
        <pt x="425" y="513" on="1"/>
        <pt x="397" y="513" on="0"/>
        <pt x="347" y="493" on="0"/>
        <pt x="294" y="460" on="0"/>
        <pt x="234" y="403" on="0"/>
        <pt x="197" y="362" on="1"/>
        <pt x="169" y="331" on="0"/>
        <pt x="158" y="269" on="0"/>
        <pt x="158" y="248" on="1"/>
        <pt x="160" y="174" on="1"/>
        <pt x="193" y="133" on="0"/>
        <pt x="307" y="86" on="0"/>
        <pt x="386" y="86" on="1"/>
        <pt x="416" y="86" on="0"/>
        <pt x="465" y="95" on="0"/>
        <pt x="525" y="115" on="0"/>
        <pt x="584" y="154" on="1"/>
        <pt x="615" y="175" on="0"/>
        <pt x="619" y="175" on="1"/>
        <pt x="637" y="175" on="0"/>
        <pt x="637" y="160" on="1"/>
        <pt x="637" y="146" on="0"/>
        <pt x="604" y="113" on="0"/>
        <pt x="556" y="81" on="0"/>
        <pt x="500" y="56" on="0"/>
        <pt x="478" y="50" on="1"/>
        <pt x="452" y="42" on="0"/>
        <pt x="397" y="36" on="0"/>
        <pt x="368" y="35" on="1"/>
        <pt x="302" y="35" on="0"/>
        <pt x="205" y="49" on="0"/>
        <pt x="134" y="83" on="0"/>
        <pt x="83" y="140" on="0"/>
        <pt x="64" y="184" on="1"/>
        <pt x="54" y="206" on="0"/>
        <pt x="46" y="247" on="0"/>
        <pt x="46" y="267" on="1"/>
        <pt x="46" y="306" on="0"/>
        <pt x="76" y="380" on="0"/>
        <pt x="99" y="418" on="1"/>
        <pt x="117" y="448" on="0"/>
        <pt x="167" y="491" on="0"/>
        <pt x="227" y="522" on="0"/>
        <pt x="294" y="542" on="0"/>
        <pt x="329" y="548" on="1"/>
        <pt x="424" y="564" on="1"/>
        <pt x="442" y="564" on="1"/>
        <pt x="455" y="564" on="0"/>
        <pt x="500" y="555" on="0"/>
        <pt x="545" y="540" on="0"/>
        <pt x="583" y="527" on="0"/>
        <pt x="589" y="524" on="1"/>
        <pt x="607" y="516" on="0"/>
        <pt x="629" y="479" on="0"/>
        <pt x="645" y="434" on="0"/>
        <pt x="652" y="387" on="0"/>
        <pt x="652" y="369" on="1"/>
        <pt x="652" y="329" on="0"/>
        <pt x="620" y="262" on="0"/>
        <pt x="571" y="213" on="0"/>
        <pt x="512" y="186" on="0"/>
        <pt x="486" y="186" on="1"/>
        <pt x="477" y="186" on="0"/>
        <pt x="422" y="210" on="0"/>
        <pt x="412" y="224" on="1"/>
        <pt x="373" y="212" on="1"/>
        <pt x="354" y="212" on="0"/>
        <pt x="318" y="220" on="0"/>
        <pt x="289" y="237" on="0"/>
        <pt x="272" y="263" on="0"/>
        <pt x="272" y="285" on="1"/>
        <pt x="281" y="306" on="0"/>
        <pt x="294" y="332" on="0"/>
        <pt x="310" y="359" on="0"/>
        <pt x="317" y="368" on="1"/>
        <pt x="354" y="415" on="0"/>
        <pt x="395" y="415" on="1"/>
        <pt x="410" y="415" on="0"/>
        <pt x="436" y="398" on="0"/>
        <pt x="452" y="371" on="0"/>
        <pt x="462" y="337" on="0"/>
        <pt x="462" y="319" on="1"/>
        <pt x="462" y="305" on="0"/>
        <pt x="459" y="287" on="0"/>
        <pt x="454" y="273" on="0"/>
        <pt x="451" y="263" on="0"/>
        <pt x="451" y="257" on="1"/>
      </contour>
      <contour>
        <pt x="310" y="280" on="1"/>
        <pt x="310" y="270" on="0"/>
        <pt x="349" y="237" on="1"/>
        <pt x="359" y="237" on="0"/>
        <pt x="384" y="258" on="0"/>
        <pt x="400" y="291" on="0"/>
        <pt x="412" y="325" on="0"/>
        <pt x="412" y="338" on="1"/>
        <pt x="412" y="355" on="0"/>
        <pt x="407" y="376" on="0"/>
        <pt x="392" y="376" on="1"/>
        <pt x="386" y="375" on="1"/>
        <pt x="310" y="311" on="0"/>
      </contour>
    </TTGlyph>
    <TTGlyph name="atilde" xMin="7" yMin="-47" xMax="542" yMax="697">
      <component glyphName="a" x="0" y="0" flags="0x204"/>
      <component glyphName="tilde" x="-29" y="-130" flags="0x4"/>
    </TTGlyph>
    <TTGlyph name="b" xMin="-17" yMin="-37" xMax="542" yMax="693">
      <contour>
        <pt x="59" y="566" on="1"/>
        <pt x="53" y="563" on="0"/>
        <pt x="28" y="563" on="1"/>
        <pt x="3" y="563" on="0"/>
        <pt x="-17" y="573" on="0"/>
        <pt x="-17" y="584" on="1"/>
        <pt x="-17" y="601" on="0"/>
        <pt x="-2" y="612" on="0"/>
        <pt x="6" y="614" on="1"/>
        <pt x="18" y="616" on="1"/>
        <pt x="74" y="635" on="1"/>
        <pt x="129" y="654" on="0"/>
        <pt x="147" y="662" on="1"/>
        <pt x="176" y="676" on="1"/>
        <pt x="213" y="693" on="0"/>
        <pt x="228" y="693" on="1"/>
        <pt x="244" y="693" on="0"/>
        <pt x="254" y="674" on="0"/>
        <pt x="254" y="663" on="1"/>
        <pt x="254" y="649" on="0"/>
        <pt x="248" y="642" on="1"/>
        <pt x="240" y="635" on="0"/>
        <pt x="234" y="576" on="0"/>
        <pt x="225" y="514" on="1"/>
        <pt x="217" y="457" on="0"/>
        <pt x="211" y="381" on="0"/>
        <pt x="209" y="361" on="1"/>
        <pt x="232" y="384" on="1"/>
        <pt x="255" y="407" on="0"/>
        <pt x="307" y="419" on="0"/>
        <pt x="345" y="419" on="1"/>
        <pt x="387" y="419" on="0"/>
        <pt x="459" y="384" on="0"/>
        <pt x="512" y="322" on="0"/>
        <pt x="542" y="239" on="0"/>
        <pt x="542" y="190" on="1"/>
        <pt x="542" y="151" on="0"/>
        <pt x="507" y="85" on="0"/>
        <pt x="446" y="33" on="0"/>
        <pt x="363" y="-3" on="0"/>
        <pt x="315" y="-11" on="1"/>
        <pt x="289" y="-11" on="0"/>
        <pt x="255" y="1" on="0"/>
        <pt x="233" y="14" on="1"/>
        <pt x="224" y="22" on="1"/>
        <pt x="207" y="13" on="0"/>
        <pt x="174" y="-9" on="0"/>
        <pt x="142" y="-25" on="0"/>
        <pt x="111" y="-37" on="0"/>
        <pt x="99" y="-37" on="1"/>
        <pt x="75" y="-37" on="0"/>
        <pt x="65" y="-20" on="0"/>
        <pt x="65" y="10" on="1"/>
        <pt x="65" y="41" on="0"/>
        <pt x="75" y="123" on="0"/>
        <pt x="75" y="162" on="1"/>
        <pt x="75" y="202" on="0"/>
        <pt x="72" y="313" on="0"/>
        <pt x="68" y="428" on="0"/>
        <pt x="62" y="532" on="0"/>
      </contour>
      <contour>
        <pt x="356" y="358" on="1"/>
        <pt x="345" y="369" on="0"/>
        <pt x="328" y="369" on="1"/>
        <pt x="308" y="369" on="0"/>
        <pt x="267" y="352" on="0"/>
        <pt x="232" y="326" on="0"/>
        <pt x="210" y="290" on="0"/>
        <pt x="209" y="274" on="1"/>
        <pt x="209" y="127" on="1"/>
        <pt x="209" y="106" on="0"/>
        <pt x="230" y="71" on="0"/>
        <pt x="261" y="49" on="0"/>
        <pt x="293" y="35" on="0"/>
        <pt x="304" y="33" on="1"/>
        <pt x="322" y="34" on="0"/>
        <pt x="355" y="67" on="0"/>
        <pt x="377" y="126" on="0"/>
        <pt x="390" y="199" on="0"/>
        <pt x="390" y="237" on="1"/>
        <pt x="390" y="327" on="0"/>
      </contour>
    </TTGlyph>
    <TTGlyph name="backslash" xMin="33" yMin="-18" xMax="330" yMax="669">
      <contour>
        <pt x="312" y="-18" on="1"/>
        <pt x="296" y="-18" on="0"/>
        <pt x="254" y="82" on="1"/>
        <pt x="210" y="187" on="1"/>
        <pt x="124" y="403" on="1"/>
        <pt x="79" y="517" on="1"/>
        <pt x="55" y="578" on="0"/>
        <pt x="34" y="644" on="0"/>
        <pt x="33" y="649" on="1"/>
        <pt x="33" y="658" on="0"/>
        <pt x="45" y="669" on="0"/>
        <pt x="52" y="669" on="1"/>
        <pt x="69" y="669" on="0"/>
        <pt x="114" y="586" on="0"/>
        <pt x="152" y="499" on="1"/>
        <pt x="172" y="447" on="0"/>
        <pt x="191" y="390" on="0"/>
        <pt x="200" y="360" on="0"/>
        <pt x="203" y="346" on="0"/>
        <pt x="206" y="337" on="1"/>
        <pt x="210" y="324" on="0"/>
        <pt x="217" y="302" on="0"/>
        <pt x="222" y="291" on="1"/>
        <pt x="282" y="138" on="1"/>
        <pt x="306" y="74" on="1"/>
        <pt x="317" y="43" on="0"/>
        <pt x="330" y="5" on="0"/>
        <pt x="330" y="-3" on="1"/>
        <pt x="330" y="-18" on="0"/>
      </contour>
    </TTGlyph>
    <TTGlyph name="bar" xMin="79" yMin="18" xMax="139" yMax="633">
      <contour>
        <pt x="139" y="128" on="1"/>
        <pt x="139" y="18" on="0"/>
        <pt x="119" y="18" on="1"/>
        <pt x="107" y="18" on="0"/>
        <pt x="96" y="41" on="0"/>
        <pt x="91" y="83" on="0"/>
        <pt x="91" y="140" on="0"/>
        <pt x="91" y="174" on="1"/>
        <pt x="91" y="279" on="1"/>
        <pt x="91" y="294" on="0"/>
        <pt x="90" y="317" on="0"/>
        <pt x="89" y="325" on="1"/>
        <pt x="85" y="360" on="1"/>
        <pt x="81" y="389" on="0"/>
        <pt x="79" y="458" on="0"/>
        <pt x="79" y="499" on="1"/>
        <pt x="79" y="633" on="0"/>
        <pt x="106" y="633" on="1"/>
        <pt x="112" y="633" on="0"/>
        <pt x="131" y="621" on="0"/>
        <pt x="131" y="614" on="1"/>
        <pt x="131" y="517" on="0"/>
        <pt x="133" y="377" on="0"/>
        <pt x="135" y="277" on="0"/>
        <pt x="137" y="211" on="0"/>
        <pt x="138" y="167" on="0"/>
        <pt x="139" y="140" on="0"/>
      </contour>
    </TTGlyph>
    <TTGlyph name="braceleft" xMin="5" yMin="-13" xMax="429" yMax="710">
      <contour>
        <pt x="409" y="62" on="1"/>
        <pt x="429" y="51" on="0"/>
        <pt x="429" y="21" on="1"/>
        <pt x="429" y="13" on="0"/>
        <pt x="425" y="3" on="0"/>
        <pt x="415" y="0" on="1"/>
        <pt x="396" y="1" on="1"/>
        <pt x="364" y="1" on="0"/>
        <pt x="296" y="-13" on="0"/>
        <pt x="259" y="-13" on="1"/>
        <pt x="219" y="-13" on="0"/>
        <pt x="144" y="20" on="0"/>
        <pt x="89" y="76" on="0"/>
        <pt x="55" y="152" on="0"/>
        <pt x="55" y="196" on="1"/>
        <pt x="62" y="279" on="1"/>
        <pt x="62" y="304" on="1"/>
        <pt x="56" y="314" on="0"/>
        <pt x="37" y="322" on="0"/>
        <pt x="18" y="328" on="0"/>
        <pt x="5" y="337" on="0"/>
        <pt x="5" y="348" on="1"/>
        <pt x="5" y="360" on="0"/>
        <pt x="21" y="370" on="0"/>
        <pt x="43" y="372" on="0"/>
        <pt x="65" y="375" on="0"/>
        <pt x="77" y="384" on="1"/>
        <pt x="87" y="393" on="1"/>
        <pt x="99" y="408" on="1"/>
        <pt x="124" y="577" on="1"/>
        <pt x="126" y="596" on="0"/>
        <pt x="178" y="642" on="0"/>
        <pt x="254" y="681" on="0"/>
        <pt x="335" y="710" on="0"/>
        <pt x="365" y="710" on="1"/>
        <pt x="416" y="710" on="0"/>
        <pt x="416" y="688" on="1"/>
        <pt x="416" y="680" on="0"/>
        <pt x="400" y="674" on="1"/>
        <pt x="366" y="662" on="1"/>
        <pt x="333" y="651" on="0"/>
        <pt x="305" y="628" on="0"/>
        <pt x="291" y="579" on="0"/>
        <pt x="289" y="523" on="0"/>
        <pt x="288" y="467" on="0"/>
        <pt x="282" y="413" on="0"/>
        <pt x="271" y="393" on="1"/>
        <pt x="254" y="362" on="1"/>
        <pt x="247" y="351" on="0"/>
        <pt x="247" y="340" on="1"/>
        <pt x="247" y="331" on="0"/>
        <pt x="267" y="301" on="0"/>
        <pt x="267" y="278" on="1"/>
        <pt x="267" y="253" on="0"/>
        <pt x="254" y="203" on="0"/>
        <pt x="254" y="178" on="1"/>
        <pt x="254" y="152" on="0"/>
        <pt x="278" y="109" on="0"/>
        <pt x="315" y="76" on="0"/>
        <pt x="360" y="58" on="0"/>
        <pt x="382" y="58" on="1"/>
        <pt x="398" y="58" on="0"/>
      </contour>
    </TTGlyph>
    <TTGlyph name="braceright" xMin="7" yMin="-13" xMax="431" yMax="710">
      <contour>
        <pt x="40" y="1" on="1"/>
        <pt x="21" y="0" on="1"/>
        <pt x="11" y="3" on="0"/>
        <pt x="7" y="13" on="0"/>
        <pt x="7" y="23" on="1"/>
        <pt x="7" y="51" on="0"/>
        <pt x="27" y="62" on="1"/>
        <pt x="35" y="58" on="0"/>
        <pt x="51" y="58" on="1"/>
        <pt x="73" y="56" on="0"/>
        <pt x="120" y="75" on="0"/>
        <pt x="159" y="109" on="0"/>
        <pt x="182" y="153" on="0"/>
        <pt x="182" y="179" on="1"/>
        <pt x="182" y="205" on="0"/>
        <pt x="169" y="255" on="0"/>
        <pt x="169" y="278" on="1"/>
        <pt x="169" y="301" on="0"/>
        <pt x="189" y="331" on="0"/>
        <pt x="189" y="340" on="1"/>
        <pt x="189" y="351" on="0"/>
        <pt x="182" y="362" on="1"/>
        <pt x="165" y="393" on="1"/>
        <pt x="154" y="413" on="0"/>
        <pt x="148" y="469" on="0"/>
        <pt x="146" y="529" on="0"/>
        <pt x="143" y="589" on="0"/>
        <pt x="134" y="613" on="1"/>
        <pt x="126" y="635" on="0"/>
        <pt x="89" y="656" on="0"/>
        <pt x="50" y="668" on="0"/>
        <pt x="20" y="677" on="0"/>
        <pt x="20" y="688" on="1"/>
        <pt x="20" y="710" on="0"/>
        <pt x="71" y="710" on="1"/>
        <pt x="121" y="710" on="0"/>
        <pt x="211" y="666" on="1"/>
        <pt x="240" y="652" on="0"/>
        <pt x="278" y="626" on="0"/>
        <pt x="301" y="603" on="0"/>
        <pt x="311" y="584" on="0"/>
        <pt x="312" y="577" on="1"/>
        <pt x="337" y="409" on="1"/>
        <pt x="345" y="397" on="1"/>
        <pt x="360" y="378" on="0"/>
        <pt x="387" y="374" on="0"/>
        <pt x="413" y="371" on="0"/>
        <pt x="431" y="362" on="0"/>
        <pt x="431" y="346" on="1"/>
        <pt x="431" y="336" on="0"/>
        <pt x="415" y="327" on="0"/>
        <pt x="391" y="317" on="0"/>
        <pt x="378" y="309" on="0"/>
        <pt x="374" y="304" on="1"/>
        <pt x="374" y="279" on="1"/>
        <pt x="381" y="196" on="1"/>
        <pt x="381" y="155" on="0"/>
        <pt x="349" y="80" on="0"/>
        <pt x="294" y="21" on="0"/>
        <pt x="220" y="-13" on="0"/>
        <pt x="179" y="-13" on="1"/>
        <pt x="141" y="-13" on="0"/>
        <pt x="75" y="1" on="0"/>
      </contour>
    </TTGlyph>
    <TTGlyph name="bracketleft" xMin="74" yMin="-51" xMax="459" yMax="701">
      <contour>
        <pt x="76" y="629" on="1"/>
        <pt x="81" y="666" on="1"/>
        <pt x="81" y="671" on="0"/>
        <pt x="93" y="685" on="0"/>
        <pt x="95" y="685" on="1"/>
        <pt x="395" y="660" on="1"/>
        <pt x="415" y="680" on="1"/>
        <pt x="437" y="701" on="1"/>
        <pt x="443" y="701" on="1"/>
        <pt x="449" y="700" on="0"/>
        <pt x="456" y="687" on="0"/>
        <pt x="459" y="670" on="0"/>
        <pt x="459" y="653" on="1"/>
        <pt x="456" y="614" on="1"/>
        <pt x="453" y="600" on="1"/>
        <pt x="448" y="585" on="0"/>
        <pt x="437" y="585" on="1"/>
        <pt x="423" y="585" on="0"/>
        <pt x="409" y="605" on="0"/>
        <pt x="404" y="614" on="1"/>
        <pt x="252" y="640" on="1"/>
        <pt x="243" y="639" on="0"/>
        <pt x="239" y="621" on="0"/>
        <pt x="239" y="616" on="1"/>
        <pt x="275" y="17" on="1"/>
        <pt x="363" y="9" on="1"/>
        <pt x="373" y="8" on="0"/>
        <pt x="377" y="27" on="0"/>
        <pt x="378" y="50" on="0"/>
        <pt x="384" y="69" on="0"/>
        <pt x="393" y="71" on="1"/>
        <pt x="421" y="47" on="0"/>
        <pt x="447" y="-36" on="1"/>
        <pt x="448" y="-51" on="1"/>
        <pt x="437" y="-50" on="0"/>
        <pt x="416" y="-42" on="0"/>
        <pt x="392" y="-33" on="0"/>
        <pt x="369" y="-28" on="0"/>
        <pt x="361" y="-27" on="1"/>
        <pt x="341" y="-26" on="1"/>
        <pt x="297" y="-27" on="0"/>
        <pt x="211" y="-37" on="0"/>
        <pt x="181" y="-37" on="1"/>
        <pt x="144" y="-37" on="0"/>
        <pt x="100" y="-25" on="0"/>
        <pt x="97" y="6" on="1"/>
        <pt x="74" y="598" on="1"/>
        <pt x="76" y="620" on="1"/>
      </contour>
    </TTGlyph>
    <TTGlyph name="bracketright" xMin="13" yMin="-51" xMax="398" yMax="702">
      <contour>
        <pt x="234" y="603" on="1"/>
        <pt x="233" y="616" on="1"/>
        <pt x="233" y="621" on="0"/>
        <pt x="229" y="641" on="0"/>
        <pt x="218" y="639" on="1"/>
        <pt x="68" y="614" on="1"/>
        <pt x="60" y="598" on="0"/>
        <pt x="44" y="585" on="0"/>
        <pt x="36" y="586" on="1"/>
        <pt x="22" y="586" on="0"/>
        <pt x="14" y="623" on="0"/>
        <pt x="13" y="656" on="1"/>
        <pt x="13" y="675" on="0"/>
        <pt x="21" y="700" on="0"/>
        <pt x="25" y="700" on="1"/>
        <pt x="35" y="702" on="1"/>
        <pt x="45" y="692" on="1"/>
        <pt x="70" y="668" on="1"/>
        <pt x="77" y="660" on="1"/>
        <pt x="377" y="685" on="1"/>
        <pt x="385" y="681" on="0"/>
        <pt x="393" y="665" on="0"/>
        <pt x="394" y="652" on="1"/>
        <pt x="396" y="620" on="1"/>
        <pt x="398" y="598" on="1"/>
        <pt x="375" y="6" on="1"/>
        <pt x="373" y="-10" on="0"/>
        <pt x="359" y="-28" on="0"/>
        <pt x="336" y="-36" on="0"/>
        <pt x="307" y="-38" on="0"/>
        <pt x="290" y="-38" on="1"/>
        <pt x="267" y="-39" on="0"/>
        <pt x="158" y="-26" on="0"/>
        <pt x="129" y="-26" on="1"/>
        <pt x="101" y="-26" on="0"/>
        <pt x="75" y="-36" on="0"/>
        <pt x="51" y="-44" on="0"/>
        <pt x="33" y="-50" on="0"/>
        <pt x="24" y="-51" on="1"/>
        <pt x="25" y="-36" on="1"/>
        <pt x="51" y="47" on="0"/>
        <pt x="79" y="71" on="1"/>
        <pt x="88" y="69" on="0"/>
        <pt x="95" y="50" on="0"/>
        <pt x="95" y="27" on="0"/>
        <pt x="98" y="8" on="0"/>
        <pt x="109" y="9" on="1"/>
        <pt x="197" y="17" on="1"/>
      </contour>
    </TTGlyph>
    <TTGlyph name="breve" xMin="18" yMin="654" xMax="454" yMax="831">
      <contour>
        <pt x="454" y="812" on="1"/>
        <pt x="454" y="774" on="0"/>
        <pt x="406" y="715" on="0"/>
        <pt x="336" y="675" on="0"/>
        <pt x="255" y="654" on="0"/>
        <pt x="222" y="654" on="1"/>
        <pt x="151" y="656" on="0"/>
        <pt x="69" y="699" on="0"/>
        <pt x="18" y="760" on="0"/>
        <pt x="18" y="764" on="1"/>
        <pt x="18" y="771" on="1"/>
        <pt x="18" y="787" on="0"/>
        <pt x="25" y="794" on="1"/>
        <pt x="44" y="794" on="0"/>
        <pt x="73" y="780" on="0"/>
        <pt x="88" y="760" on="0"/>
        <pt x="106" y="736" on="0"/>
        <pt x="128" y="714" on="0"/>
        <pt x="171" y="700" on="0"/>
        <pt x="205" y="700" on="1"/>
        <pt x="262" y="700" on="0"/>
        <pt x="349" y="726" on="0"/>
        <pt x="379" y="762" on="1"/>
        <pt x="383" y="767" on="0"/>
        <pt x="392" y="790" on="0"/>
        <pt x="404" y="813" on="0"/>
        <pt x="421" y="831" on="0"/>
        <pt x="433" y="831" on="1"/>
        <pt x="454" y="831" on="0"/>
      </contour>
    </TTGlyph>
    <TTGlyph name="brokenbar" xMin="64" yMin="65" xMax="115" yMax="619">
      <contour>
        <pt x="64" y="257" on="1"/>
        <pt x="81" y="257" on="0"/>
        <pt x="101" y="224" on="0"/>
        <pt x="101" y="186" on="1"/>
        <pt x="101" y="175" on="0"/>
        <pt x="97" y="138" on="0"/>
        <pt x="95" y="121" on="1"/>
        <pt x="92" y="101" on="0"/>
        <pt x="89" y="78" on="1"/>
        <pt x="76" y="65" on="1"/>
        <pt x="64" y="78" on="1"/>
      </contour>
      <contour>
        <pt x="115" y="538" on="1"/>
        <pt x="113" y="523" on="0"/>
        <pt x="108" y="456" on="0"/>
        <pt x="101" y="404" on="1"/>
        <pt x="76" y="404" on="1"/>
        <pt x="76" y="606" on="1"/>
        <pt x="76" y="613" on="0"/>
        <pt x="87" y="619" on="0"/>
        <pt x="94" y="619" on="1"/>
        <pt x="105" y="619" on="0"/>
        <pt x="111" y="606" on="0"/>
        <pt x="113" y="597" on="1"/>
        <pt x="115" y="583" on="1"/>
      </contour>
    </TTGlyph>
    <TTGlyph name="bullet" xMin="42" yMin="165" xMax="232" yMax="336">
      <contour>
        <pt x="42" y="246" on="1"/>
        <pt x="42" y="266" on="0"/>
        <pt x="64" y="299" on="0"/>
        <pt x="97" y="323" on="0"/>
        <pt x="137" y="336" on="0"/>
        <pt x="155" y="336" on="1"/>
        <pt x="193" y="336" on="0"/>
        <pt x="232" y="287" on="0"/>
        <pt x="232" y="250" on="1"/>
        <pt x="232" y="214" on="0"/>
        <pt x="181" y="165" on="0"/>
        <pt x="139" y="165" on="1"/>
        <pt x="123" y="166" on="0"/>
        <pt x="89" y="178" on="0"/>
        <pt x="61" y="199" on="0"/>
        <pt x="43" y="228" on="0"/>
      </contour>
    </TTGlyph>
    <TTGlyph name="c" xMin="33" yMin="-29" xMax="521" yMax="437">
      <contour>
        <pt x="472" y="437" on="1"/>
        <pt x="485" y="437" on="0"/>
        <pt x="508" y="420" on="0"/>
        <pt x="508" y="419" on="1"/>
        <pt x="508" y="305" on="1"/>
        <pt x="508" y="295" on="0"/>
        <pt x="484" y="281" on="0"/>
        <pt x="473" y="281" on="1"/>
        <pt x="463" y="281" on="0"/>
        <pt x="434" y="310" on="0"/>
        <pt x="414" y="328" on="1"/>
        <pt x="362" y="374" on="0"/>
        <pt x="304" y="374" on="1"/>
        <pt x="288" y="374" on="0"/>
        <pt x="262" y="348" on="0"/>
        <pt x="242" y="312" on="0"/>
        <pt x="229" y="271" on="0"/>
        <pt x="226" y="256" on="1"/>
        <pt x="223" y="238" on="0"/>
        <pt x="219" y="198" on="0"/>
        <pt x="219" y="177" on="1"/>
        <pt x="219" y="137" on="0"/>
        <pt x="235" y="77" on="0"/>
        <pt x="266" y="34" on="0"/>
        <pt x="299" y="10" on="0"/>
        <pt x="313" y="6" on="1"/>
        <pt x="384" y="6" on="0"/>
        <pt x="446" y="67" on="1"/>
        <pt x="452" y="74" on="0"/>
        <pt x="459" y="91" on="0"/>
        <pt x="467" y="106" on="0"/>
        <pt x="480" y="115" on="0"/>
        <pt x="492" y="115" on="1"/>
        <pt x="509" y="115" on="0"/>
        <pt x="521" y="96" on="0"/>
        <pt x="521" y="86" on="1"/>
        <pt x="506" y="61" on="0"/>
        <pt x="460" y="14" on="0"/>
        <pt x="401" y="-15" on="0"/>
        <pt x="334" y="-29" on="0"/>
        <pt x="299" y="-29" on="1"/>
        <pt x="236" y="-29" on="0"/>
        <pt x="138" y="-3" on="0"/>
        <pt x="69" y="52" on="0"/>
        <pt x="33" y="141" on="0"/>
        <pt x="33" y="204" on="1"/>
        <pt x="34" y="252" on="0"/>
        <pt x="72" y="331" on="0"/>
        <pt x="139" y="389" on="0"/>
        <pt x="230" y="421" on="0"/>
        <pt x="283" y="421" on="1"/>
        <pt x="299" y="421" on="0"/>
        <pt x="325" y="418" on="0"/>
        <pt x="352" y="413" on="0"/>
        <pt x="381" y="410" on="0"/>
        <pt x="401" y="410" on="1"/>
        <pt x="437" y="410" on="0"/>
      </contour>
    </TTGlyph>
    <TTGlyph name="caron" xMin="18" yMin="654" xMax="391" yMax="821">
      <contour>
        <pt x="44" y="797" on="1"/>
        <pt x="198" y="704" on="1"/>
        <pt x="354" y="816" on="1"/>
        <pt x="359" y="821" on="0"/>
        <pt x="368" y="821" on="1"/>
        <pt x="379" y="821" on="0"/>
        <pt x="391" y="809" on="0"/>
        <pt x="391" y="803" on="1"/>
        <pt x="391" y="797" on="1"/>
        <pt x="360" y="760" on="1"/>
        <pt x="211" y="654" on="1"/>
        <pt x="186" y="654" on="1"/>
        <pt x="31" y="754" on="1"/>
        <pt x="21" y="760" on="0"/>
        <pt x="18" y="768" on="0"/>
        <pt x="18" y="780" on="1"/>
        <pt x="18" y="792" on="0"/>
        <pt x="27" y="797" on="0"/>
      </contour>
    </TTGlyph>
    <TTGlyph name="ccedilla" xMin="33" yMin="-258" xMax="521" yMax="437">
      <contour>
        <pt x="472" y="437" on="1"/>
        <pt x="485" y="437" on="0"/>
        <pt x="508" y="420" on="0"/>
        <pt x="508" y="419" on="1"/>
        <pt x="508" y="305" on="1"/>
        <pt x="508" y="295" on="0"/>
        <pt x="484" y="281" on="0"/>
        <pt x="473" y="281" on="1"/>
        <pt x="463" y="281" on="0"/>
        <pt x="434" y="310" on="0"/>
        <pt x="414" y="328" on="1"/>
        <pt x="362" y="374" on="0"/>
        <pt x="304" y="374" on="1"/>
        <pt x="288" y="374" on="0"/>
        <pt x="262" y="348" on="0"/>
        <pt x="242" y="312" on="0"/>
        <pt x="229" y="271" on="0"/>
        <pt x="226" y="256" on="1"/>
        <pt x="223" y="238" on="0"/>
        <pt x="219" y="198" on="0"/>
        <pt x="219" y="177" on="1"/>
        <pt x="219" y="137" on="0"/>
        <pt x="235" y="77" on="0"/>
        <pt x="266" y="34" on="0"/>
        <pt x="299" y="10" on="0"/>
        <pt x="313" y="6" on="1"/>
        <pt x="384" y="6" on="0"/>
        <pt x="446" y="67" on="1"/>
        <pt x="452" y="74" on="0"/>
        <pt x="459" y="91" on="0"/>
        <pt x="467" y="106" on="0"/>
        <pt x="480" y="115" on="0"/>
        <pt x="492" y="115" on="1"/>
        <pt x="509" y="115" on="0"/>
        <pt x="521" y="96" on="0"/>
        <pt x="521" y="86" on="1"/>
        <pt x="506" y="61" on="0"/>
        <pt x="460" y="14" on="0"/>
        <pt x="401" y="-15" on="0"/>
        <pt x="334" y="-29" on="0"/>
        <pt x="299" y="-29" on="1"/>
        <pt x="286" y="-29" on="0"/>
        <pt x="274" y="-28" on="1"/>
        <pt x="273" y="-32" on="0"/>
        <pt x="271" y="-35" on="1"/>
        <pt x="265" y="-52" on="0"/>
        <pt x="265" y="-60" on="1"/>
        <pt x="265" y="-64" on="0"/>
        <pt x="267" y="-65" on="1"/>
        <pt x="330" y="-127" on="1"/>
        <pt x="336" y="-136" on="0"/>
        <pt x="336" y="-155" on="1"/>
        <pt x="336" y="-177" on="0"/>
        <pt x="321" y="-215" on="0"/>
        <pt x="299" y="-242" on="0"/>
        <pt x="271" y="-258" on="0"/>
        <pt x="258" y="-258" on="1"/>
        <pt x="228" y="-258" on="0"/>
        <pt x="187" y="-232" on="0"/>
        <pt x="187" y="-207" on="1"/>
        <pt x="187" y="-196" on="0"/>
        <pt x="193" y="-196" on="1"/>
        <pt x="201" y="-196" on="0"/>
        <pt x="214" y="-204" on="0"/>
        <pt x="227" y="-213" on="0"/>
        <pt x="239" y="-221" on="0"/>
        <pt x="246" y="-221" on="1"/>
        <pt x="259" y="-221" on="0"/>
        <pt x="279" y="-205" on="0"/>
        <pt x="292" y="-183" on="0"/>
        <pt x="298" y="-161" on="0"/>
        <pt x="298" y="-155" on="1"/>
        <pt x="298" y="-139" on="0"/>
        <pt x="279" y="-123" on="0"/>
        <pt x="268" y="-118" on="1"/>
        <pt x="245" y="-108" on="1"/>
        <pt x="234" y="-104" on="0"/>
        <pt x="230" y="-96" on="1"/>
        <pt x="230" y="-71" on="1"/>
        <pt x="230" y="-45" on="0"/>
        <pt x="234" y="-25" on="1"/>
        <pt x="209" y="-22" on="0"/>
        <pt x="187" y="-16" on="1"/>
        <pt x="138" y="-3" on="0"/>
        <pt x="69" y="52" on="0"/>
        <pt x="33" y="141" on="0"/>
        <pt x="33" y="204" on="1"/>
        <pt x="34" y="252" on="0"/>
        <pt x="72" y="331" on="0"/>
        <pt x="139" y="389" on="0"/>
        <pt x="230" y="421" on="0"/>
        <pt x="283" y="421" on="1"/>
        <pt x="299" y="421" on="0"/>
        <pt x="325" y="418" on="0"/>
        <pt x="352" y="413" on="0"/>
        <pt x="381" y="410" on="0"/>
        <pt x="401" y="410" on="1"/>
        <pt x="437" y="410" on="0"/>
      </contour>
    </TTGlyph>
    <TTGlyph name="cedilla" xMin="19" yMin="-258" xMax="168" yMax="16">
      <contour>
        <pt x="80" y="6" on="1"/>
        <pt x="88" y="16" on="0"/>
        <pt x="99" y="16" on="1"/>
        <pt x="112" y="16" on="0"/>
        <pt x="112" y="0" on="1"/>
        <pt x="110" y="-19" on="0"/>
        <pt x="97" y="-52" on="0"/>
        <pt x="97" y="-60" on="1"/>
        <pt x="97" y="-64" on="0"/>
        <pt x="99" y="-65" on="1"/>
        <pt x="162" y="-127" on="1"/>
        <pt x="168" y="-136" on="0"/>
        <pt x="168" y="-155" on="1"/>
        <pt x="168" y="-177" on="0"/>
        <pt x="153" y="-215" on="0"/>
        <pt x="131" y="-242" on="0"/>
        <pt x="103" y="-258" on="0"/>
        <pt x="90" y="-258" on="1"/>
        <pt x="60" y="-258" on="0"/>
        <pt x="19" y="-232" on="0"/>
        <pt x="19" y="-207" on="1"/>
        <pt x="19" y="-196" on="0"/>
        <pt x="25" y="-196" on="1"/>
        <pt x="33" y="-196" on="0"/>
        <pt x="46" y="-204" on="0"/>
        <pt x="59" y="-213" on="0"/>
        <pt x="71" y="-221" on="0"/>
        <pt x="78" y="-221" on="1"/>
        <pt x="91" y="-221" on="0"/>
        <pt x="111" y="-205" on="0"/>
        <pt x="124" y="-183" on="0"/>
        <pt x="130" y="-161" on="0"/>
        <pt x="130" y="-155" on="1"/>
        <pt x="130" y="-139" on="0"/>
        <pt x="111" y="-123" on="0"/>
        <pt x="100" y="-118" on="1"/>
        <pt x="77" y="-108" on="1"/>
        <pt x="66" y="-104" on="0"/>
        <pt x="62" y="-96" on="1"/>
        <pt x="62" y="-71" on="1"/>
        <pt x="62" y="-20" on="0"/>
      </contour>
    </TTGlyph>
    <TTGlyph name="cent" xMin="35" yMin="-7" xMax="464" yMax="707">
      <contour>
        <pt x="402" y="218" on="1"/>
        <pt x="408" y="218" on="0"/>
        <pt x="421" y="210" on="0"/>
        <pt x="421" y="196" on="1"/>
        <pt x="421" y="184" on="0"/>
        <pt x="395" y="157" on="0"/>
        <pt x="352" y="121" on="0"/>
        <pt x="294" y="104" on="0"/>
        <pt x="262" y="104" on="1"/>
        <pt x="245" y="104" on="1"/>
        <pt x="228" y="105" on="1"/>
        <pt x="203" y="6" on="1"/>
        <pt x="203" y="1" on="0"/>
        <pt x="187" y="-7" on="1"/>
        <pt x="173" y="-6" on="0"/>
        <pt x="165" y="7" on="0"/>
        <pt x="165" y="15" on="1"/>
        <pt x="165" y="22" on="0"/>
        <pt x="167" y="32" on="1"/>
        <pt x="172" y="58" on="1"/>
        <pt x="185" y="120" on="1"/>
        <pt x="179" y="130" on="1"/>
        <pt x="136" y="152" on="0"/>
        <pt x="81" y="194" on="0"/>
        <pt x="50" y="235" on="0"/>
        <pt x="35" y="277" on="0"/>
        <pt x="35" y="301" on="1"/>
        <pt x="36" y="316" on="1"/>
        <pt x="50" y="423" on="0"/>
        <pt x="171" y="572" on="0"/>
        <pt x="271" y="602" on="1"/>
        <pt x="280" y="647" on="0"/>
        <pt x="308" y="701" on="0"/>
        <pt x="314" y="707" on="1"/>
        <pt x="328" y="707" on="0"/>
        <pt x="334" y="687" on="0"/>
        <pt x="334" y="678" on="1"/>
        <pt x="327" y="616" on="1"/>
        <pt x="327" y="614" on="0"/>
        <pt x="363" y="597" on="0"/>
        <pt x="386" y="584" on="1"/>
        <pt x="449" y="547" on="0"/>
        <pt x="463" y="521" on="1"/>
        <pt x="464" y="512" on="1"/>
        <pt x="464" y="489" on="0"/>
        <pt x="442" y="489" on="1"/>
        <pt x="432" y="490" on="1"/>
        <pt x="411" y="513" on="0"/>
        <pt x="381" y="541" on="0"/>
        <pt x="353" y="553" on="0"/>
        <pt x="324" y="559" on="0"/>
        <pt x="305" y="559" on="1"/>
        <pt x="256" y="559" on="0"/>
        <pt x="253" y="539" on="1"/>
        <pt x="170" y="189" on="1"/>
        <pt x="171" y="177" on="0"/>
        <pt x="195" y="164" on="0"/>
        <pt x="229" y="151" on="0"/>
        <pt x="265" y="147" on="0"/>
        <pt x="276" y="147" on="1"/>
        <pt x="333" y="147" on="0"/>
        <pt x="396" y="217" on="1"/>
      </contour>
    </TTGlyph>
    <TTGlyph name="circumflex" xMin="12" yMin="673" xMax="391" yMax="788">
      <contour>
        <pt x="145" y="702" on="1"/>
        <pt x="78" y="675" on="0"/>
        <pt x="41" y="675" on="1"/>
        <pt x="31" y="675" on="0"/>
        <pt x="17" y="679" on="0"/>
        <pt x="12" y="689" on="1"/>
        <pt x="15" y="708" on="0"/>
        <pt x="32" y="726" on="0"/>
        <pt x="69" y="739" on="1"/>
        <pt x="198" y="787" on="1"/>
        <pt x="206" y="788" on="1"/>
        <pt x="235" y="785" on="0"/>
        <pt x="248" y="775" on="1"/>
        <pt x="379" y="711" on="1"/>
        <pt x="381" y="709" on="0"/>
        <pt x="391" y="691" on="0"/>
        <pt x="391" y="685" on="1"/>
        <pt x="391" y="673" on="0"/>
        <pt x="366" y="673" on="1"/>
        <pt x="219" y="732" on="1"/>
      </contour>
    </TTGlyph>
    <TTGlyph name="colon" xMin="55" yMin="-23" xMax="186" yMax="454">
      <contour>
        <pt x="82" y="78" on="1"/>
        <pt x="107" y="96" on="0"/>
        <pt x="134" y="96" on="1"/>
        <pt x="160" y="96" on="0"/>
        <pt x="186" y="62" on="0"/>
        <pt x="186" y="36" on="1"/>
        <pt x="186" y="11" on="0"/>
        <pt x="150" y="-23" on="0"/>
        <pt x="130" y="-23" on="1"/>
        <pt x="97" y="-23" on="0"/>
        <pt x="55" y="7" on="0"/>
        <pt x="55" y="32" on="1"/>
        <pt x="55" y="45" on="0"/>
        <pt x="69" y="70" on="0"/>
      </contour>
      <contour>
        <pt x="63" y="416" on="1"/>
        <pt x="74" y="435" on="0"/>
        <pt x="116" y="454" on="0"/>
        <pt x="133" y="454" on="1"/>
        <pt x="159" y="454" on="0"/>
        <pt x="186" y="419" on="0"/>
        <pt x="186" y="393" on="1"/>
        <pt x="186" y="368" on="0"/>
        <pt x="150" y="334" on="0"/>
        <pt x="130" y="334" on="1"/>
        <pt x="95" y="334" on="0"/>
        <pt x="55" y="367" on="0"/>
        <pt x="55" y="390" on="1"/>
        <pt x="55" y="404" on="0"/>
      </contour>
    </TTGlyph>
    <TTGlyph name="comma" xMin="7" yMin="-136" xMax="172" yMax="69">
      <contour>
        <pt x="58" y="-33" on="1"/>
        <pt x="42" y="15" on="1"/>
        <pt x="42" y="32" on="0"/>
        <pt x="75" y="69" on="0"/>
        <pt x="107" y="69" on="1"/>
        <pt x="140" y="69" on="0"/>
        <pt x="172" y="28" on="0"/>
        <pt x="172" y="-6" on="1"/>
        <pt x="172" y="-25" on="0"/>
        <pt x="140" y="-71" on="0"/>
        <pt x="97" y="-110" on="0"/>
        <pt x="50" y="-136" on="0"/>
        <pt x="35" y="-136" on="1"/>
        <pt x="19" y="-136" on="0"/>
        <pt x="7" y="-128" on="0"/>
        <pt x="7" y="-123" on="1"/>
        <pt x="7" y="-116" on="0"/>
        <pt x="23" y="-101" on="0"/>
        <pt x="43" y="-83" on="0"/>
        <pt x="59" y="-60" on="0"/>
        <pt x="59" y="-45" on="1"/>
      </contour>
    </TTGlyph>
    <TTGlyph name="copyright" xMin="47" yMin="121" xMax="588" yMax="614">
      <contour>
        <pt x="380" y="614" on="1"/>
        <pt x="401" y="614" on="0"/>
        <pt x="444" y="593" on="0"/>
        <pt x="485" y="569" on="0"/>
        <pt x="520" y="535" on="0"/>
        <pt x="533" y="519" on="1"/>
        <pt x="588" y="448" on="0"/>
        <pt x="588" y="368" on="1"/>
        <pt x="588" y="315" on="0"/>
        <pt x="552" y="233" on="0"/>
        <pt x="524" y="186" on="1"/>
        <pt x="501" y="147" on="0"/>
        <pt x="407" y="121" on="0"/>
        <pt x="332" y="121" on="1"/>
        <pt x="297" y="121" on="0"/>
        <pt x="226" y="131" on="0"/>
        <pt x="160" y="157" on="0"/>
        <pt x="104" y="201" on="0"/>
        <pt x="84" y="236" on="1"/>
        <pt x="47" y="301" on="0"/>
        <pt x="47" y="337" on="1"/>
        <pt x="47" y="382" on="0"/>
        <pt x="94" y="465" on="0"/>
        <pt x="163" y="533" on="0"/>
        <pt x="249" y="574" on="0"/>
        <pt x="285" y="581" on="1"/>
        <pt x="294" y="583" on="0"/>
        <pt x="315" y="588" on="0"/>
        <pt x="336" y="601" on="1"/>
        <pt x="361" y="614" on="0"/>
      </contour>
      <contour>
        <pt x="398" y="562" on="1"/>
        <pt x="361" y="550" on="1"/>
        <pt x="311" y="550" on="1"/>
        <pt x="264" y="540" on="0"/>
        <pt x="185" y="499" on="0"/>
        <pt x="128" y="445" on="0"/>
        <pt x="96" y="380" on="0"/>
        <pt x="96" y="346" on="1"/>
        <pt x="96" y="250" on="0"/>
        <pt x="227" y="146" on="0"/>
        <pt x="346" y="146" on="1"/>
        <pt x="381" y="146" on="0"/>
        <pt x="430" y="152" on="0"/>
        <pt x="464" y="164" on="0"/>
        <pt x="488" y="184" on="0"/>
        <pt x="499" y="198" on="1"/>
        <pt x="520" y="232" on="1"/>
        <pt x="531" y="250" on="1"/>
        <pt x="536" y="258" on="0"/>
        <pt x="539" y="267" on="0"/>
        <pt x="543" y="282" on="1"/>
        <pt x="559" y="343" on="1"/>
        <pt x="563" y="360" on="1"/>
        <pt x="561" y="370" on="1"/>
        <pt x="554" y="404" on="1"/>
        <pt x="551" y="419" on="0"/>
        <pt x="540" y="457" on="0"/>
        <pt x="512" y="500" on="0"/>
        <pt x="457" y="543" on="0"/>
        <pt x="409" y="562" on="1"/>
      </contour>
      <contour>
        <pt x="437" y="273" on="1"/>
        <pt x="449" y="267" on="0"/>
        <pt x="449" y="254" on="1"/>
        <pt x="449" y="240" on="0"/>
        <pt x="420" y="219" on="0"/>
        <pt x="381" y="204" on="0"/>
        <pt x="342" y="197" on="0"/>
        <pt x="333" y="197" on="1"/>
        <pt x="317" y="197" on="0"/>
        <pt x="293" y="206" on="0"/>
        <pt x="269" y="221" on="0"/>
        <pt x="241" y="250" on="0"/>
        <pt x="222" y="273" on="1"/>
        <pt x="217" y="281" on="0"/>
        <pt x="209" y="301" on="0"/>
        <pt x="209" y="311" on="1"/>
        <pt x="209" y="318" on="1"/>
        <pt x="214" y="338" on="1"/>
        <pt x="233" y="397" on="1"/>
        <pt x="243" y="409" on="1"/>
        <pt x="273" y="439" on="1"/>
        <pt x="284" y="449" on="0"/>
        <pt x="306" y="458" on="0"/>
        <pt x="323" y="461" on="1"/>
        <pt x="352" y="466" on="0"/>
        <pt x="382" y="469" on="0"/>
        <pt x="411" y="474" on="1"/>
        <pt x="437" y="487" on="1"/>
        <pt x="443" y="490" on="0"/>
        <pt x="463" y="490" on="1"/>
        <pt x="463" y="471" on="0"/>
        <pt x="442" y="416" on="0"/>
        <pt x="425" y="398" on="0"/>
        <pt x="417" y="398" on="1"/>
        <pt x="408" y="398" on="0"/>
        <pt x="403" y="403" on="0"/>
        <pt x="402" y="420" on="1"/>
        <pt x="371" y="425" on="1"/>
        <pt x="352" y="425" on="0"/>
        <pt x="348" y="412" on="1"/>
        <pt x="341" y="371" on="0"/>
        <pt x="335" y="316" on="0"/>
        <pt x="335" y="302" on="1"/>
        <pt x="335" y="287" on="0"/>
        <pt x="335" y="270" on="0"/>
        <pt x="338" y="258" on="0"/>
        <pt x="343" y="246" on="0"/>
        <pt x="348" y="236" on="1"/>
        <pt x="379" y="243" on="0"/>
      </contour>
    </TTGlyph>
    <TTGlyph name="currency" xMin="39" yMin="124" xMax="426" yMax="571">
      <contour>
        <pt x="103" y="130" on="1"/>
        <pt x="91" y="124" on="1"/>
        <pt x="80" y="124" on="0"/>
        <pt x="65" y="134" on="0"/>
        <pt x="65" y="143" on="1"/>
        <pt x="65" y="148" on="1"/>
        <pt x="123" y="219" on="1"/>
        <pt x="100" y="262" on="0"/>
        <pt x="72" y="310" on="1"/>
        <pt x="71" y="338" on="1"/>
        <pt x="71" y="356" on="0"/>
        <pt x="91" y="409" on="0"/>
        <pt x="91" y="428" on="1"/>
        <pt x="72" y="443" on="0"/>
        <pt x="51" y="463" on="0"/>
        <pt x="39" y="494" on="0"/>
        <pt x="39" y="505" on="1"/>
        <pt x="87" y="505" on="0"/>
        <pt x="121" y="459" on="1"/>
        <pt x="128" y="458" on="1"/>
        <pt x="144" y="458" on="0"/>
        <pt x="168" y="476" on="0"/>
        <pt x="210" y="515" on="0"/>
        <pt x="234" y="515" on="1"/>
        <pt x="254" y="515" on="0"/>
        <pt x="295" y="496" on="0"/>
        <pt x="318" y="496" on="1"/>
        <pt x="326" y="496" on="1"/>
        <pt x="382" y="564" on="1"/>
        <pt x="389" y="571" on="0"/>
        <pt x="396" y="571" on="1"/>
        <pt x="401" y="571" on="0"/>
        <pt x="413" y="561" on="0"/>
        <pt x="413" y="553" on="1"/>
        <pt x="413" y="545" on="0"/>
        <pt x="388" y="507" on="0"/>
        <pt x="371" y="486" on="1"/>
        <pt x="363" y="478" on="1"/>
        <pt x="394" y="441" on="0"/>
        <pt x="426" y="377" on="0"/>
        <pt x="426" y="332" on="1"/>
        <pt x="426" y="273" on="0"/>
        <pt x="370" y="217" on="1"/>
        <pt x="370" y="204" on="1"/>
        <pt x="413" y="149" on="1"/>
        <pt x="413" y="130" on="1"/>
        <pt x="382" y="130" on="1"/>
        <pt x="326" y="186" on="1"/>
        <pt x="307" y="186" on="0"/>
        <pt x="273" y="173" on="0"/>
        <pt x="252" y="173" on="1"/>
        <pt x="231" y="173" on="0"/>
        <pt x="188" y="193" on="0"/>
        <pt x="164" y="193" on="1"/>
        <pt x="159" y="192" on="1"/>
      </contour>
    </TTGlyph>
    <TTGlyph name="d" xMin="33" yMin="-39" xMax="662" yMax="682">
      <contour>
        <pt x="418" y="575" on="1"/>
        <pt x="400" y="575" on="0"/>
        <pt x="371" y="559" on="0"/>
        <pt x="355" y="559" on="1"/>
        <pt x="339" y="559" on="0"/>
        <pt x="328" y="573" on="0"/>
        <pt x="328" y="582" on="1"/>
        <pt x="328" y="594" on="0"/>
        <pt x="338" y="606" on="0"/>
        <pt x="364" y="615" on="0"/>
        <pt x="409" y="625" on="0"/>
        <pt x="443" y="635" on="1"/>
        <pt x="501" y="652" on="1"/>
        <pt x="523" y="656" on="0"/>
        <pt x="542" y="663" on="0"/>
        <pt x="568" y="678" on="1"/>
        <pt x="578" y="682" on="0"/>
        <pt x="590" y="682" on="1"/>
        <pt x="604" y="682" on="0"/>
        <pt x="617" y="671" on="0"/>
        <pt x="617" y="654" on="1"/>
        <pt x="617" y="646" on="0"/>
        <pt x="613" y="637" on="0"/>
        <pt x="607" y="626" on="0"/>
        <pt x="601" y="608" on="0"/>
        <pt x="600" y="592" on="1"/>
        <pt x="576" y="401" on="1"/>
        <pt x="568" y="339" on="0"/>
        <pt x="559" y="253" on="0"/>
        <pt x="555" y="196" on="0"/>
        <pt x="553" y="162" on="0"/>
        <pt x="552" y="153" on="1"/>
        <pt x="548" y="124" on="1"/>
        <pt x="545" y="106" on="0"/>
        <pt x="543" y="77" on="0"/>
        <pt x="543" y="66" on="1"/>
        <pt x="543" y="43" on="0"/>
        <pt x="547" y="28" on="1"/>
        <pt x="576" y="30" on="0"/>
        <pt x="618" y="58" on="0"/>
        <pt x="638" y="78" on="1"/>
        <pt x="662" y="76" on="0"/>
        <pt x="662" y="54" on="1"/>
        <pt x="662" y="33" on="0"/>
        <pt x="635" y="4" on="0"/>
        <pt x="596" y="-14" on="0"/>
        <pt x="555" y="-22" on="0"/>
        <pt x="541" y="-22" on="1"/>
        <pt x="518" y="-22" on="0"/>
        <pt x="485" y="-7" on="0"/>
        <pt x="459" y="19" on="0"/>
        <pt x="436" y="53" on="0"/>
        <pt x="427" y="72" on="1"/>
        <pt x="409" y="49" on="0"/>
        <pt x="360" y="8" on="0"/>
        <pt x="303" y="-22" on="0"/>
        <pt x="243" y="-39" on="0"/>
        <pt x="215" y="-39" on="1"/>
        <pt x="161" y="-39" on="0"/>
        <pt x="91" y="-4" on="0"/>
        <pt x="51" y="57" on="0"/>
        <pt x="33" y="141" on="0"/>
        <pt x="33" y="190" on="1"/>
        <pt x="34" y="235" on="0"/>
        <pt x="87" y="316" on="0"/>
        <pt x="160" y="377" on="0"/>
        <pt x="241" y="413" on="0"/>
        <pt x="271" y="413" on="1"/>
        <pt x="305" y="413" on="0"/>
        <pt x="352" y="402" on="0"/>
        <pt x="383" y="387" on="0"/>
        <pt x="403" y="374" on="0"/>
        <pt x="410" y="371" on="1"/>
        <pt x="417" y="385" on="0"/>
        <pt x="425" y="413" on="0"/>
        <pt x="428" y="446" on="0"/>
        <pt x="429" y="489" on="0"/>
        <pt x="429" y="518" on="1"/>
        <pt x="429" y="575" on="0"/>
      </contour>
      <contour>
        <pt x="203" y="164" on="1"/>
        <pt x="204" y="134" on="0"/>
        <pt x="221" y="85" on="0"/>
        <pt x="245" y="49" on="0"/>
        <pt x="273" y="27" on="0"/>
        <pt x="284" y="23" on="1"/>
        <pt x="286" y="23" on="1"/>
        <pt x="332" y="23" on="0"/>
        <pt x="396" y="106" on="0"/>
        <pt x="411" y="180" on="1"/>
        <pt x="421" y="226" on="0"/>
        <pt x="421" y="255" on="1"/>
        <pt x="421" y="283" on="0"/>
        <pt x="400" y="323" on="0"/>
        <pt x="371" y="350" on="0"/>
        <pt x="338" y="362" on="0"/>
        <pt x="326" y="362" on="1"/>
        <pt x="292" y="361" on="0"/>
        <pt x="244" y="337" on="0"/>
        <pt x="213" y="297" on="0"/>
        <pt x="199" y="245" on="0"/>
        <pt x="199" y="218" on="1"/>
        <pt x="199" y="205" on="0"/>
        <pt x="201" y="178" on="0"/>
      </contour>
    </TTGlyph>
    <TTGlyph name="dagger" xMin="35" yMin="18" xMax="316" yMax="633">
      <contour>
        <pt x="139" y="367" on="1"/>
        <pt x="80" y="354" on="1"/>
        <pt x="35" y="354" on="0"/>
        <pt x="35" y="381" on="1"/>
        <pt x="35" y="399" on="0"/>
        <pt x="74" y="410" on="0"/>
        <pt x="122" y="415" on="0"/>
        <pt x="161" y="422" on="0"/>
        <pt x="161" y="434" on="1"/>
        <pt x="161" y="444" on="0"/>
        <pt x="154" y="459" on="1"/>
        <pt x="152" y="566" on="1"/>
        <pt x="151" y="600" on="0"/>
        <pt x="164" y="633" on="0"/>
        <pt x="175" y="633" on="1"/>
        <pt x="181" y="633" on="0"/>
        <pt x="200" y="621" on="0"/>
        <pt x="200" y="614" on="1"/>
        <pt x="200" y="459" on="1"/>
        <pt x="200" y="439" on="0"/>
        <pt x="224" y="423" on="0"/>
        <pt x="247" y="423" on="1"/>
        <pt x="269" y="423" on="1"/>
        <pt x="292" y="423" on="0"/>
        <pt x="316" y="411" on="0"/>
        <pt x="316" y="394" on="1"/>
        <pt x="316" y="369" on="0"/>
        <pt x="303" y="369" on="1"/>
        <pt x="203" y="369" on="1"/>
        <pt x="203" y="25" on="1"/>
        <pt x="203" y="18" on="0"/>
        <pt x="192" y="18" on="1"/>
        <pt x="180" y="18" on="0"/>
        <pt x="169" y="23" on="0"/>
        <pt x="165" y="44" on="0"/>
        <pt x="165" y="86" on="0"/>
        <pt x="164" y="122" on="1"/>
        <pt x="161" y="230" on="1"/>
        <pt x="160" y="247" on="0"/>
        <pt x="160" y="272" on="0"/>
        <pt x="160" y="279" on="1"/>
        <pt x="162" y="322" on="1"/>
        <pt x="162" y="367" on="0"/>
      </contour>
    </TTGlyph>
    <TTGlyph name="daggerdbl" xMin="33" yMin="6" xMax="382" yMax="646">
      <contour>
        <pt x="237" y="160" on="1"/>
        <pt x="238" y="99" on="1"/>
        <pt x="237" y="84" on="0"/>
        <pt x="236" y="51" on="0"/>
        <pt x="235" y="24" on="0"/>
        <pt x="230" y="6" on="0"/>
        <pt x="221" y="6" on="1"/>
        <pt x="210" y="6" on="0"/>
        <pt x="196" y="31" on="0"/>
        <pt x="196" y="52" on="1"/>
        <pt x="203" y="160" on="1"/>
        <pt x="203" y="174" on="0"/>
        <pt x="196" y="174" on="1"/>
        <pt x="71" y="174" on="1"/>
        <pt x="57" y="174" on="0"/>
        <pt x="46" y="188" on="0"/>
        <pt x="46" y="203" on="1"/>
        <pt x="46" y="216" on="0"/>
        <pt x="71" y="229" on="0"/>
        <pt x="88" y="229" on="1"/>
        <pt x="105" y="229" on="0"/>
        <pt x="137" y="222" on="0"/>
        <pt x="160" y="222" on="1"/>
        <pt x="185" y="222" on="0"/>
        <pt x="196" y="238" on="0"/>
        <pt x="196" y="254" on="1"/>
        <pt x="196" y="270" on="1"/>
        <pt x="196" y="331" on="0"/>
        <pt x="187" y="405" on="0"/>
        <pt x="183" y="409" on="1"/>
        <pt x="177" y="415" on="1"/>
        <pt x="46" y="415" on="1"/>
        <pt x="39" y="426" on="0"/>
        <pt x="33" y="442" on="0"/>
        <pt x="33" y="444" on="1"/>
        <pt x="33" y="445" on="0"/>
        <pt x="45" y="465" on="0"/>
        <pt x="46" y="465" on="1"/>
        <pt x="171" y="465" on="1"/>
        <pt x="183" y="465" on="0"/>
        <pt x="183" y="477" on="1"/>
        <pt x="176" y="592" on="1"/>
        <pt x="176" y="627" on="0"/>
        <pt x="190" y="646" on="0"/>
        <pt x="206" y="646" on="1"/>
        <pt x="218" y="646" on="0"/>
        <pt x="233" y="635" on="0"/>
        <pt x="232" y="624" on="1"/>
        <pt x="225" y="487" on="1"/>
        <pt x="225" y="471" on="0"/>
        <pt x="236" y="471" on="1"/>
        <pt x="276" y="472" on="1"/>
        <pt x="312" y="473" on="0"/>
        <pt x="344" y="478" on="1"/>
        <pt x="352" y="478" on="0"/>
        <pt x="375" y="464" on="0"/>
        <pt x="375" y="453" on="1"/>
        <pt x="375" y="438" on="0"/>
        <pt x="329" y="426" on="0"/>
        <pt x="300" y="424" on="1"/>
        <pt x="264" y="422" on="1"/>
        <pt x="226" y="419" on="0"/>
        <pt x="226" y="415" on="1"/>
        <pt x="226" y="362" on="1"/>
        <pt x="226" y="339" on="0"/>
        <pt x="227" y="303" on="0"/>
        <pt x="228" y="290" on="1"/>
        <pt x="232" y="236" on="1"/>
        <pt x="256" y="229" on="0"/>
        <pt x="288" y="229" on="1"/>
        <pt x="344" y="236" on="1"/>
        <pt x="358" y="236" on="0"/>
        <pt x="382" y="216" on="0"/>
        <pt x="382" y="200" on="1"/>
        <pt x="382" y="172" on="0"/>
        <pt x="334" y="174" on="1"/>
        <pt x="237" y="176" on="1"/>
      </contour>
    </TTGlyph>
    <TTGlyph name="degree" xMin="23" yMin="502" xMax="210" yMax="684">
      <contour>
        <pt x="74" y="682" on="1"/>
        <pt x="108" y="684" on="1"/>
        <pt x="134" y="684" on="0"/>
        <pt x="172" y="669" on="0"/>
        <pt x="198" y="645" on="0"/>
        <pt x="210" y="616" on="0"/>
        <pt x="210" y="603" on="1"/>
        <pt x="210" y="585" on="0"/>
        <pt x="192" y="549" on="0"/>
        <pt x="163" y="520" on="0"/>
        <pt x="130" y="502" on="0"/>
        <pt x="115" y="502" on="1"/>
        <pt x="92" y="502" on="0"/>
        <pt x="86" y="509" on="1"/>
        <pt x="31" y="577" on="1"/>
        <pt x="23" y="583" on="0"/>
        <pt x="23" y="601" on="1"/>
        <pt x="23" y="611" on="0"/>
        <pt x="29" y="636" on="0"/>
        <pt x="42" y="659" on="0"/>
        <pt x="61" y="678" on="0"/>
      </contour>
    </TTGlyph>
    <TTGlyph name="dieresis" xMin="126" yMin="703" xMax="434" yMax="798">
      <contour>
        <pt x="148" y="784" on="1"/>
        <pt x="170" y="798" on="0"/>
        <pt x="190" y="798" on="1"/>
        <pt x="210" y="798" on="0"/>
        <pt x="232" y="773" on="0"/>
        <pt x="232" y="756" on="1"/>
        <pt x="232" y="736" on="0"/>
        <pt x="208" y="703" on="0"/>
        <pt x="190" y="703" on="1"/>
        <pt x="161" y="703" on="0"/>
        <pt x="126" y="725" on="0"/>
        <pt x="126" y="746" on="1"/>
        <pt x="126" y="757" on="0"/>
        <pt x="137" y="777" on="0"/>
      </contour>
      <contour>
        <pt x="350" y="784" on="1"/>
        <pt x="370" y="798" on="0"/>
        <pt x="392" y="798" on="1"/>
        <pt x="412" y="798" on="0"/>
        <pt x="434" y="771" on="0"/>
        <pt x="434" y="752" on="1"/>
        <pt x="434" y="732" on="0"/>
        <pt x="405" y="703" on="0"/>
        <pt x="383" y="703" on="1"/>
        <pt x="361" y="703" on="0"/>
        <pt x="328" y="731" on="0"/>
        <pt x="328" y="747" on="1"/>
        <pt x="328" y="759" on="0"/>
        <pt x="342" y="779" on="0"/>
      </contour>
    </TTGlyph>
</ttFont>
